<svg width="450" height="298" viewBox="0 0 450 298" fill="none" xmlns="http://www.w3.org/2000/svg">
<path d="M381.06 141.536C364.874 110.136 354.378 82.4117 348.371 64.4766C345.437 80.8567 338.193 118.353 327.484 155.937C336.302 171.274 344.978 183.432 352.541 194.104C362.895 178.555 373.498 160.284 381.06 141.536Z" fill="#3E3276" fill-opacity="0.1"/>
<path d="M345.386 204.258C337.752 193.497 330.419 181.958 323.21 169.695C317.856 186.924 311.795 203.604 305.062 217.687C308.261 222.387 313.173 229.102 319.905 236.93C323.864 232.371 333.971 220.391 345.368 204.258H345.386Z" fill="#3E3276" fill-opacity="0.1"/>
<path d="M209.773 216.912C220.164 231.225 231.49 246.015 242.834 259.391C251.669 253.807 259.409 248.259 266.212 242.905C260.363 229.758 252.341 209.95 244.283 189.523C236.614 196.238 225.023 205.833 209.773 216.912Z" fill="#3E3276" fill-opacity="0.1"/>
<path d="M239.583 178.027C229.829 153.095 220.658 128.94 215.958 116.5C201.079 131.873 185.865 146.062 170.492 159.12C177.437 170.199 189.134 188.152 203.076 207.819C219.527 195.627 231.772 185.148 239.583 178.045V178.027Z" fill="#3E3276" fill-opacity="0.1"/>
<path d="M131.242 265.14C148.948 273.533 167.749 281.696 185.79 288.199C192.823 285.372 199.502 282.474 205.81 279.505C190.013 272.508 172.078 262.913 154.372 252.594C147.039 256.782 139.335 260.987 131.26 265.157L131.242 265.14Z" fill="#3E3276" fill-opacity="0.1"/>
<path d="M147.761 246.393C129.525 235.42 112.067 224.093 98.0723 214.48C88.4244 220.365 78.9178 225.86 69.5703 230.931C82.5402 238.335 101.783 248.866 123.5 259.539C131.999 255.192 140.074 250.775 147.779 246.393H147.761Z" fill="#3E3276" fill-opacity="0.1"/>
<path d="M327.484 243.357C332.326 248.623 337.927 254.259 344.289 260.037C378.127 245.424 407.778 222.895 424.282 209.024C414.616 195.807 405.975 182.536 398.271 169.531C370.582 204.924 335.03 236.748 327.502 243.339L327.484 243.357Z" fill="#3E3276" fill-opacity="0.1"/>
<path d="M-40.2382 277.312C-49.5857 280.458 -57.5373 282.879 -63.7925 284.663C-63.7925 284.663 -64.7291 284.875 -64.9058 285.264C-65.0471 285.547 -65.1885 286.148 -64.0576 286.625C-41.6164 293.958 -17.7617 300.125 4.29076 305.055C12.9315 302.598 21.3778 300.001 29.5945 297.297C4.5558 290.883 -20.0588 283.815 -40.2382 277.312Z" fill="#3E3276" fill-opacity="0.1"/>
<path d="M106.037 266.392C84.1086 256.621 63.5758 246.549 49.7048 239.445C41.117 243.81 32.7414 247.856 24.6484 251.549C42.3363 259.413 63.3108 268.089 84.6387 276.217C91.9895 273.001 99.1283 269.714 106.02 266.392H106.037Z" fill="#3E3276" fill-opacity="0.1"/>
<path d="M97.6094 281.204C117.223 288.413 136.607 294.898 153.465 299.633C160.604 297.407 167.407 295.075 173.945 292.689C157.423 287.883 137.526 280.161 117.948 271.75C111.392 274.948 104.607 278.111 97.6094 281.204Z" fill="#3E3276" fill-opacity="0.1"/>
<path d="M70.101 282.225C45.1154 273.92 21.5787 265.544 5.7992 259.695C-3.3893 263.583 -12.0653 267.028 -20.1406 270.032C-3.31861 275.863 20.9426 283.85 46.5997 291.272C54.6573 288.356 62.4852 285.317 70.101 282.207V282.225Z" fill="#3E3276" fill-opacity="0.1"/>
<path d="M58.3438 295.639C78.4347 301.117 98.5964 305.941 116.019 308.857C123.105 307.178 129.943 305.411 136.534 303.556C119.624 299.103 100.063 293.166 80.6435 286.875C73.4341 289.879 65.9949 292.794 58.3614 295.622L58.3438 295.639Z" fill="#3E3276" fill-opacity="0.1"/>
<path d="M396.762 297.595C416.553 296.075 453.059 291.781 490.078 279.73C483.116 273.917 476.419 267.927 470.005 261.777C451.398 268.792 416.394 281.532 377.961 286.303C383.863 290.173 390.1 293.955 396.762 297.595Z" fill="#3E3276" fill-opacity="0.1"/>
<path d="M368.124 280.649C384.292 277.415 420.781 267.679 456.917 250.239C449.266 242.252 442.056 234.071 435.324 225.766C417.795 236.456 382.879 256.317 349.906 266.548C355.455 271.231 361.533 275.966 368.107 280.649H368.124Z" fill="#3E3276" fill-opacity="0.1"/>
<path d="M514.136 299.363C508.57 295.476 503.163 291.482 497.879 287.348C487.224 290.899 452.272 301.395 405.977 303.251C412.727 306.573 419.83 309.718 427.287 312.651C447.166 313.588 477.488 312.174 514.118 301.431C514.789 301.183 514.984 300.901 515.002 300.53C515.037 299.893 514.118 299.328 514.118 299.328L514.136 299.363Z" fill="#3E3276" fill-opacity="0.1"/>
<path d="M151.883 175.94C139.425 185.64 126.897 194.634 114.422 202.869C135.997 221.316 180.42 256.338 215.619 275.74C223.447 271.853 230.692 267.877 237.371 263.901C215.566 244.005 169.836 195.235 151.865 175.922L151.883 175.94Z" fill="#3E3276" fill-opacity="0.1"/>
<path d="M237.822 89.4959C247.912 136.569 263.356 210.66 268.993 238.154C281.468 227.711 290.144 218.275 295.798 211.278C313.999 110.859 309.104 8.21358 309.104 8.21358C309.086 7.34775 309.016 0.968849 307.054 0.209035C304.51 -0.780489 302.937 2.06439 302.937 2.06439C302.937 2.06439 264.434 60.4817 237.805 89.5136L237.822 89.4959Z" fill="#3E3276" fill-opacity="0.1"/>
</svg>
