<svg width="92" height="90" viewBox="0 0 92 90" fill="none" xmlns="http://www.w3.org/2000/svg">
<path d="M67.9476 31.4225C65.6574 26.9798 64.1724 23.0571 63.3223 20.5195C62.9073 22.8371 61.8823 28.1424 60.3672 33.4601C61.6147 35.6302 62.8423 37.3503 63.9124 38.8603C65.3774 36.6602 66.8775 34.0751 67.9476 31.4225Z" fill="url(#paint0_linear_78_16355)"/>
<path d="M62.924 40.2965C61.844 38.7739 60.8064 37.1413 59.7864 35.4062C59.0288 37.8439 58.1713 40.204 57.2188 42.1965C57.6713 42.8616 58.3663 43.8116 59.3189 44.9192C59.8789 44.2741 61.309 42.5791 62.9215 40.2965H62.924Z" fill="url(#paint1_linear_78_16355)"/>
<path d="M43.6719 42.0861C45.1419 44.1112 46.7445 46.2038 48.3496 48.0964C49.5997 47.3063 50.6947 46.5213 51.6573 45.7638C50.8297 43.9037 49.6947 41.1011 48.5546 38.2109C47.4696 39.161 45.8295 40.5185 43.6719 42.0861Z" fill="url(#paint2_linear_78_16355)"/>
<path d="M47.9161 36.5843C46.536 33.0566 45.2385 29.639 44.5734 27.8789C42.4683 30.054 40.3157 32.0616 38.1406 33.9092C39.1232 35.4767 40.7783 38.0169 42.7509 40.7995C45.0785 39.0744 46.8111 37.5918 47.9161 36.5868V36.5843Z" fill="url(#paint3_linear_78_16355)"/>
<path d="M32.5781 48.9118C35.0832 50.0994 37.7434 51.2544 40.296 52.1744C41.2911 51.7744 42.2361 51.3644 43.1286 50.9444C40.8935 49.9543 38.3559 48.5968 35.8508 47.1367C34.8132 47.7292 33.7232 48.3243 32.5806 48.9143L32.5781 48.9118Z" fill="url(#paint4_linear_78_16355)"/>
<path d="M34.3677 46.2574C31.7876 44.7048 29.3175 43.1022 27.3374 41.7422C25.9723 42.5747 24.6273 43.3523 23.3047 44.0698C25.1398 45.1173 27.8624 46.6074 30.9351 48.1175C32.1376 47.5024 33.2802 46.8774 34.3702 46.2574H34.3677Z" fill="url(#paint5_linear_78_16355)"/>
<path d="M60.125 45.8283C60.81 46.5733 61.6026 47.3708 62.5026 48.1884C67.2904 46.1208 71.4856 42.9331 73.8207 40.9706C72.4531 39.1005 71.2306 37.2229 70.1405 35.3828C66.2228 40.3905 61.1926 44.8932 60.1275 45.8258L60.125 45.8283Z" fill="url(#paint6_linear_78_16355)"/>
<path d="M8.29257 50.6328C6.97 51.0778 5.84495 51.4203 4.9599 51.6729C4.9599 51.6729 4.8274 51.7029 4.8024 51.7579C4.7824 51.7979 4.76239 51.8829 4.9224 51.9504C8.09756 52.9879 11.4727 53.8605 14.5929 54.558C15.8154 54.2105 17.0105 53.843 18.1731 53.4604C14.6304 52.5529 11.1477 51.5529 8.29257 50.6328Z" fill="url(#paint7_linear_78_16355)"/>
<path d="M20.5008 54.043C19.4082 54.413 18.2882 54.7655 17.1406 55.103C20.1158 55.708 22.7084 56.1306 24.456 56.3606C25.7536 56.1606 27.0036 55.9405 28.2087 55.7005C25.8436 55.273 23.1909 54.698 20.5008 54.0455V54.043Z" fill="url(#paint8_linear_78_16355)"/>
<path d="M28.9843 49.09C25.8817 47.7075 22.9765 46.2824 21.0139 45.2773C19.7989 45.8949 18.6138 46.4674 17.4688 46.9899C19.9714 48.1025 22.939 49.33 25.9567 50.4801C26.9967 50.0251 28.0068 49.56 28.9818 49.09H28.9843Z" fill="url(#paint9_linear_78_16355)"/>
<path d="M27.8359 51.1852C30.6111 52.2053 33.3537 53.1228 35.7388 53.7928C36.7489 53.4778 37.7114 53.1478 38.6365 52.8103C36.2989 52.1303 33.4837 51.0377 30.7136 49.8477C29.786 50.3002 28.826 50.7477 27.8359 51.1852Z" fill="url(#paint10_linear_78_16355)"/>
<path d="M23.9556 51.3283C20.4205 50.1532 17.0903 48.9682 14.8577 48.1406C13.5576 48.6906 12.3301 49.1782 11.1875 49.6032C13.5676 50.4282 17.0003 51.5583 20.6305 52.6083C21.7705 52.1958 22.8781 51.7658 23.9556 51.3258V51.3283Z" fill="url(#paint11_linear_78_16355)"/>
<path d="M22.8047 53.2244C25.6473 53.9995 28.5 54.682 30.9651 55.0945C31.9676 54.857 32.9352 54.607 33.8677 54.3445C31.4751 53.7144 28.7075 52.8744 25.9598 51.9844C24.9398 52.4094 23.8872 52.8219 22.8072 53.2219L22.8047 53.2244Z" fill="url(#paint12_linear_78_16355)"/>
<path d="M69.957 53.5052C72.7571 53.2902 77.9224 52.6827 83.1602 50.9776C82.1751 50.1551 81.2276 49.3075 80.32 48.4375C77.6874 49.43 72.7346 51.2326 67.2969 51.9077C68.1319 52.4552 69.0145 52.9902 69.957 53.5052Z" fill="url(#paint13_linear_78_16355)"/>
<path d="M66.1323 51.1052C68.4199 50.6477 73.5827 49.2701 78.6954 46.8025C77.6129 45.6724 76.5928 44.5149 75.6403 43.3398C73.1602 44.8524 68.2199 47.6625 63.5547 49.1101C64.3397 49.7726 65.1998 50.4427 66.1298 51.1052H66.1323Z" fill="url(#paint14_linear_78_16355)"/>
<path d="M86.8033 53.7548C86.0157 53.2047 85.2507 52.6397 84.5031 52.0547C82.9956 52.5572 78.0503 54.0423 71.5 54.3048C72.455 54.7748 73.4601 55.2198 74.5151 55.6348C77.3278 55.7674 81.618 55.5673 86.8008 54.0473C86.8958 54.0123 86.9233 53.9723 86.9258 53.9198C86.9308 53.8298 86.8008 53.7498 86.8008 53.7498L86.8033 53.7548Z" fill="url(#paint15_linear_78_16355)"/>
<path d="M35.2143 36.2916C33.4517 37.6641 31.6792 38.9367 29.9141 40.1017C32.9667 42.7118 39.252 47.6671 44.2323 50.4122C45.3398 49.8622 46.3649 49.2996 47.3099 48.7371C44.2248 45.922 37.7545 39.0217 35.2118 36.2891L35.2143 36.2916Z" fill="url(#paint16_linear_78_16355)"/>
<path d="M48.0728 24.0611C49.5004 30.7214 51.6855 41.2043 52.483 45.0945C54.2481 43.6169 55.4757 42.2819 56.2757 41.2918C58.8509 27.0837 58.1583 12.5606 58.1583 12.5606C58.1558 12.4381 58.1458 11.5355 57.8683 11.428C57.5083 11.288 57.2858 11.6905 57.2858 11.6905C57.2858 11.6905 51.838 19.9559 48.0703 24.0636L48.0728 24.0611Z" fill="url(#paint17_linear_78_16355)"/>
<path d="M23.6314 67.6092C23.6664 67.5742 28.0366 63.269 28.0366 63.269C28.0366 63.269 32.4093 67.5742 32.4443 67.6092H35.607C35.4145 67.4117 31.2468 63.129 31.2468 63.129H34.827V61.0039H21.2488V63.129H24.829C24.829 63.129 20.6613 67.4092 20.4688 67.6092H23.6314Z" fill="#4C5C65"/>
<path d="M3.9727 61.0078L0 71.3683H2.27011L4.91524 64.483L7.56288 71.3683H9.83299L5.86029 61.0078H3.9727Z" fill="#4C5C65"/>
<path d="M15.0391 71.3683H17.3067V61.0078H15.0391V71.3683Z" fill="#4C5C65"/>
<path d="M11.057 64.108C10.802 63.8004 10.4195 63.6054 9.99194 63.6054C9.22941 63.6054 8.60938 64.2255 8.60938 64.988C8.60938 65.7505 9.22941 66.3706 9.99194 66.3706C10.4195 66.3706 10.8045 66.1755 11.057 65.868V71.3683H13.3221V61.0078H11.057V64.108Z" fill="#4C5C65"/>
<path d="M29.5702 67.604C29.5702 66.7539 28.8826 66.0664 28.0326 66.0664C27.1825 66.0664 26.495 66.7539 26.495 67.604C26.495 68.054 26.6925 68.4565 27.0025 68.7365H19.9922V70.8641H24.7699C23.9699 71.6842 23.4774 72.8042 23.4774 74.0418C23.4774 76.5594 25.5175 78.5995 28.0351 78.5995C30.5527 78.5995 32.5928 76.5594 32.5928 74.0418C32.5928 72.8042 32.0978 71.6842 31.2977 70.8641H36.0755V68.7365H29.0651C29.3752 68.4565 29.5727 68.054 29.5727 67.604H29.5702ZM28.0326 76.3269C26.77 76.3269 25.7475 75.3018 25.7475 74.0418C25.7475 72.7817 26.77 71.7567 28.0326 71.7567C29.2951 71.7567 30.3202 72.7792 30.3202 74.0418C30.3202 75.3043 29.2976 76.3269 28.0326 76.3269Z" fill="#4C5C65"/>
<path d="M51.7188 67.7014H57.064V68.4465H51.7188V71.3341H58.4741V70.3866H53.1313V69.3965H58.4741V66.7539H51.7188V67.7039V67.7014Z" fill="#4C5C65"/>
<path d="M57.0669 61.9154H55.3143V61.0103H53.9042V62.1754H51.6991V61.0103H50.2891V65.728H55.3143V64.8505H57.0669V66.098H58.477V61.0078H57.0669V61.9129V61.9154ZM53.9042 64.778H51.6991V63.1229H53.9042V64.778ZM57.0669 63.9029H55.3143V62.8654H57.0669V63.9029Z" fill="#4C5C65"/>
<path d="M40.0494 68.4475H46.0822V71.3977H47.4922V67.5H40.0469V68.4475H40.0494Z" fill="#4C5C65"/>
<path d="M47.4922 64.363H41.4594V63.5629H47.2972V62.6854H41.4594V61.8854H47.4922V61.0078H40.0469V65.2405H47.4922V64.363Z" fill="#4C5C65"/>
<path d="M69.4413 61.0117H68.0312V71.3372H69.4413V65.1744H70.8964V64.2269H69.4413V61.0142V61.0117Z" fill="#4C5C65"/>
<path d="M64.2808 62.8773V62.1922H66.4784V61.2422H60.6181V62.1922H62.8157V62.8773C62.8132 64.9549 61.9957 66.3724 60.4531 66.9549V68.075C60.4731 68.07 62.6357 67.6175 63.4583 65.9799L63.5483 65.7999L63.6383 65.9799C64.4608 67.615 66.6209 68.07 66.6434 68.075V66.9549C65.1009 66.3724 64.2858 64.9549 64.2808 62.8773Z" fill="#4C5C65"/>
<path d="M79.4609 71.3333H80.871V61.0078H79.4609V71.3333Z" fill="#4C5C65"/>
<path d="M75.7302 62.9087V62.6137H78.0753V61.6636H75.7077V60.8086H74.2401V61.6636H71.8725V62.6137H74.2176V62.9087C74.2176 65.3638 73.2076 66.4888 71.625 67.0889V68.2414H71.63C71.6525 68.2364 73.9726 67.7489 74.8802 66.0913L74.9702 65.9113L75.0602 66.0913C75.9702 67.7489 78.2903 68.2364 78.3103 68.2414H78.3153V67.0889C76.7327 66.4888 75.7227 65.3638 75.7227 62.9087H75.7302Z" fill="#4C5C65"/>
<path d="M38.6719 66.8421H48.8624V65.8945H38.6719V66.8421Z" fill="#4C5C65"/>
<path d="M90.3281 61.0117V71.3372H91.7382V61.0117H90.3281Z" fill="#4C5C65"/>
<path d="M86.5949 62.9079V61.0078H85.0848V62.9079C85.0848 65.363 84.0748 66.4881 82.4922 67.0881V68.2406H82.4997C82.5222 68.2356 84.8423 67.7481 85.7498 66.0905L85.8399 65.9105L85.9299 66.0905C86.8374 67.7481 89.1575 68.2356 89.18 68.2406H89.185V67.0881C87.6024 66.4881 86.5924 65.363 86.5924 62.9079H86.5949Z" fill="#4C5C65"/>
<defs>
<linearGradient id="paint0_linear_78_16355" x1="66.862" y1="25.3341" x2="58.4009" y2="45.6553" gradientUnits="userSpaceOnUse">
<stop stop-color="#44C8F5"/>
<stop offset="0.15" stop-color="#2BB9EE"/>
<stop offset="0.39" stop-color="#0BA7E6"/>
<stop offset="0.52" stop-color="#00A1E4"/>
<stop offset="1" stop-color="#0066B3"/>
</linearGradient>
<linearGradient id="paint1_linear_78_16355" x1="67.4279" y1="25.567" x2="58.9691" y2="45.8882" gradientUnits="userSpaceOnUse">
<stop stop-color="#44C8F5"/>
<stop offset="0.15" stop-color="#2BB9EE"/>
<stop offset="0.39" stop-color="#0BA7E6"/>
<stop offset="0.52" stop-color="#00A1E4"/>
<stop offset="1" stop-color="#0066B3"/>
</linearGradient>
<linearGradient id="paint2_linear_78_16355" x1="39.0747" y1="27.1591" x2="49.105" y2="45.6874" gradientUnits="userSpaceOnUse">
<stop stop-color="#44C8F5"/>
<stop offset="0.15" stop-color="#2BB9EE"/>
<stop offset="0.39" stop-color="#0BA7E6"/>
<stop offset="0.52" stop-color="#00A1E4"/>
<stop offset="1" stop-color="#0066B3"/>
</linearGradient>
<linearGradient id="paint3_linear_78_16355" x1="39.2737" y1="27.0543" x2="49.3015" y2="45.5825" gradientUnits="userSpaceOnUse">
<stop stop-color="#44C8F5"/>
<stop offset="0.15" stop-color="#2BB9EE"/>
<stop offset="0.39" stop-color="#0BA7E6"/>
<stop offset="0.52" stop-color="#00A1E4"/>
<stop offset="1" stop-color="#0066B3"/>
</linearGradient>
<linearGradient id="paint4_linear_78_16355" x1="22.3269" y1="39.0943" x2="42.8158" y2="51.5011" gradientUnits="userSpaceOnUse">
<stop stop-color="#44C8F5"/>
<stop offset="0.15" stop-color="#2BB9EE"/>
<stop offset="0.39" stop-color="#0BA7E6"/>
<stop offset="0.52" stop-color="#00A1E4"/>
<stop offset="1" stop-color="#0066B3"/>
</linearGradient>
<linearGradient id="paint5_linear_78_16355" x1="22.0803" y1="39.511" x2="42.5692" y2="51.9132" gradientUnits="userSpaceOnUse">
<stop stop-color="#44C8F5"/>
<stop offset="0.15" stop-color="#2BB9EE"/>
<stop offset="0.39" stop-color="#0BA7E6"/>
<stop offset="0.52" stop-color="#00A1E4"/>
<stop offset="1" stop-color="#0066B3"/>
</linearGradient>
<linearGradient id="paint6_linear_78_16355" x1="75.8866" y1="36.8686" x2="60.4705" y2="48.3157" gradientUnits="userSpaceOnUse">
<stop stop-color="#44C8F5"/>
<stop offset="0.15" stop-color="#2BB9EE"/>
<stop offset="0.39" stop-color="#0BA7E6"/>
<stop offset="0.52" stop-color="#00A1E4"/>
<stop offset="1" stop-color="#0066B3"/>
</linearGradient>
<linearGradient id="paint7_linear_78_16355" x1="0.996007" y1="49.0833" x2="27.4842" y2="55.3605" gradientUnits="userSpaceOnUse">
<stop stop-color="#44C8F5"/>
<stop offset="0.15" stop-color="#2BB9EE"/>
<stop offset="0.39" stop-color="#0BA7E6"/>
<stop offset="0.52" stop-color="#00A1E4"/>
<stop offset="1" stop-color="#0066B3"/>
</linearGradient>
<linearGradient id="paint8_linear_78_16355" x1="0.965571" y1="49.2174" x2="27.4537" y2="55.4923" gradientUnits="userSpaceOnUse">
<stop stop-color="#44C8F5"/>
<stop offset="0.15" stop-color="#2BB9EE"/>
<stop offset="0.39" stop-color="#0BA7E6"/>
<stop offset="0.52" stop-color="#00A1E4"/>
<stop offset="1" stop-color="#0066B3"/>
</linearGradient>
<linearGradient id="paint9_linear_78_16355" x1="15.2919" y1="43.1955" x2="38.3989" y2="53.068" gradientUnits="userSpaceOnUse">
<stop stop-color="#44C8F5"/>
<stop offset="0.15" stop-color="#2BB9EE"/>
<stop offset="0.39" stop-color="#0BA7E6"/>
<stop offset="0.52" stop-color="#00A1E4"/>
<stop offset="1" stop-color="#0066B3"/>
</linearGradient>
<linearGradient id="paint10_linear_78_16355" x1="15.3351" y1="43.0887" x2="38.4374" y2="52.9611" gradientUnits="userSpaceOnUse">
<stop stop-color="#44C8F5"/>
<stop offset="0.15" stop-color="#2BB9EE"/>
<stop offset="0.39" stop-color="#0BA7E6"/>
<stop offset="0.52" stop-color="#00A1E4"/>
<stop offset="1" stop-color="#0066B3"/>
</linearGradient>
<linearGradient id="paint11_linear_78_16355" x1="8.87548" y1="46.2679" x2="33.7798" y2="54.9505" gradientUnits="userSpaceOnUse">
<stop stop-color="#44C8F5"/>
<stop offset="0.15" stop-color="#2BB9EE"/>
<stop offset="0.39" stop-color="#0BA7E6"/>
<stop offset="0.52" stop-color="#00A1E4"/>
<stop offset="1" stop-color="#0066B3"/>
</linearGradient>
<linearGradient id="paint12_linear_78_16355" x1="9.00282" y1="45.8816" x2="33.9071" y2="54.5642" gradientUnits="userSpaceOnUse">
<stop stop-color="#44C8F5"/>
<stop offset="0.15" stop-color="#2BB9EE"/>
<stop offset="0.39" stop-color="#0BA7E6"/>
<stop offset="0.52" stop-color="#00A1E4"/>
<stop offset="1" stop-color="#0066B3"/>
</linearGradient>
<linearGradient id="paint13_linear_78_16355" x1="85.7057" y1="50.3676" x2="65.5505" y2="54.2171" gradientUnits="userSpaceOnUse">
<stop stop-color="#44C8F5"/>
<stop offset="0.15" stop-color="#2BB9EE"/>
<stop offset="0.39" stop-color="#0BA7E6"/>
<stop offset="0.52" stop-color="#00A1E4"/>
<stop offset="1" stop-color="#0066B3"/>
</linearGradient>
<linearGradient id="paint14_linear_78_16355" x1="80.5351" y1="45.6079" x2="63.0941" y2="51.0796" gradientUnits="userSpaceOnUse">
<stop stop-color="#44C8F5"/>
<stop offset="0.15" stop-color="#2BB9EE"/>
<stop offset="0.39" stop-color="#0BA7E6"/>
<stop offset="0.52" stop-color="#00A1E4"/>
<stop offset="1" stop-color="#0066B3"/>
</linearGradient>
<linearGradient id="paint15_linear_78_16355" x1="88.4549" y1="54.7944" x2="69.1847" y2="55.2995" gradientUnits="userSpaceOnUse">
<stop stop-color="#44C8F5"/>
<stop offset="0.15" stop-color="#2BB9EE"/>
<stop offset="0.39" stop-color="#0BA7E6"/>
<stop offset="0.52" stop-color="#00A1E4"/>
<stop offset="1" stop-color="#0066B3"/>
</linearGradient>
<linearGradient id="paint16_linear_78_16355" x1="29.5056" y1="34.8871" x2="45.021" y2="48.4731" gradientUnits="userSpaceOnUse">
<stop stop-color="#44C8F5"/>
<stop offset="0.15" stop-color="#2BB9EE"/>
<stop offset="0.39" stop-color="#0BA7E6"/>
<stop offset="0.52" stop-color="#00A1E4"/>
<stop offset="1" stop-color="#0066B3"/>
</linearGradient>
<linearGradient id="paint17_linear_78_16355" x1="53.0207" y1="10.8787" x2="54.2115" y2="45.416" gradientUnits="userSpaceOnUse">
<stop stop-color="#44C8F5"/>
<stop offset="0.15" stop-color="#2BB9EE"/>
<stop offset="0.39" stop-color="#0BA7E6"/>
<stop offset="0.52" stop-color="#00A1E4"/>
<stop offset="1" stop-color="#0066B3"/>
</linearGradient>
</defs>
</svg>
