<svg width="127" height="26" viewBox="0 0 127 26" fill="none" xmlns="http://www.w3.org/2000/svg">
<g clip-path="url(#clip0_80_2269)">
<path d="M124.631 9.04872C124.131 9.06468 123.964 8.86522 123.977 8.35262C124.003 7.42514 123.984 6.49567 123.984 5.5662C123.984 3.49384 123.984 3.5457 121.989 3.48586C121.094 3.45794 120.955 3.82294 120.961 4.64271C120.992 9.22026 120.976 13.7978 120.976 18.3753C120.976 20.6671 120.976 20.6372 123.165 20.6432C123.851 20.6452 124.007 20.4038 123.998 19.7317C123.964 17.3761 124.002 15.0205 123.973 12.6669C123.965 12.0625 124.136 11.8391 124.726 11.869C125.482 11.9089 126.242 11.8651 127 11.8551V9.06468C126.21 9.0567 125.419 9.02279 124.631 9.04872Z" fill="#949494"/>
<path d="M105.776 22.2206C105.731 15.6146 105.752 9.00656 105.752 2.39854C105.752 -0.0408205 105.752 -0.0228695 103.395 0.0409569C102.856 0.0549189 102.686 0.218474 102.702 0.780943C102.736 2.14124 102.679 3.50353 102.726 4.86383C102.751 5.57589 102.341 5.48215 101.936 5.46619C101.558 5.45223 101.081 5.63573 101.121 4.89176C101.166 4.06401 101.13 3.23227 101.13 2.40253C101.13 0.00904376 101.13 0.0369677 98.8612 0.0369677C98.2322 0.0369677 98.0726 0.232436 98.0783 0.874688C98.1068 4.46093 98.0916 8.04518 98.0916 11.6314C98.0916 14.7848 98.0916 17.9402 98.0916 21.0937C98.0916 23.3356 98.0916 23.3056 100.197 23.3256C100.921 23.3336 101.157 23.1381 101.151 22.3343C101.111 17.9861 101.147 13.636 101.117 9.2858C101.111 8.58371 101.295 8.39622 101.957 8.39821C102.607 8.39821 102.73 8.63756 102.726 9.25788C102.704 13.241 102.715 17.2262 102.715 21.2094C102.715 23.3037 102.715 23.2658 104.665 23.3316C105.491 23.3595 105.786 23.178 105.778 22.2166L105.776 22.2206Z" fill="#AE0061"/>
<path d="M37.7076 20.5207C38.2511 18.3526 37.7665 16.4218 36.2634 14.6746C37.4416 14.6746 38.4506 14.6746 39.4616 14.6746C41.4378 14.6746 41.4055 14.6746 41.4245 12.6142C41.4321 11.8921 41.1984 11.7266 40.5599 11.7386C38.5989 11.7765 36.6359 11.6887 34.6786 11.7824C33.6601 11.8323 33.4112 11.4872 33.472 10.476C33.5575 9.09774 33.4929 9.09375 32.2064 9.09375C30.4734 9.09375 30.4392 9.09375 30.4696 10.8749C30.481 11.573 30.2852 11.7844 29.6258 11.7665C27.9194 11.7226 26.2111 11.7465 24.5027 11.7485C22.4809 11.7485 22.5037 11.7525 22.4923 13.8568C22.4885 14.4851 22.6177 14.7165 23.2619 14.6905C24.6738 14.6367 26.0895 14.6746 27.6743 14.6746C25.031 17.7841 26.0115 21.3883 27.6135 23.1196C29.6752 25.3475 32.976 25.7205 35.4064 23.9394C36.5599 23.0937 37.3504 21.9567 37.7095 20.5207H37.7076ZM31.9898 21.9727C30.4601 21.9927 29.128 20.5725 29.1223 18.913C29.1147 17.2156 30.3688 15.8514 31.9499 15.8374C33.4929 15.8234 34.8401 17.2336 34.8516 18.8711C34.8611 20.4987 33.5233 21.9528 31.9917 21.9727H31.9898Z" fill="#210972"/>
<path d="M24.7508 10.5085C24.8496 10.8057 25.0168 10.8097 25.2639 10.686C27.3903 9.6149 29.682 8.90683 31.6602 7.50864C31.8407 7.38098 31.9414 7.17355 32.2017 7.40492C33.6022 8.6595 35.3885 9.11227 37.0113 9.90013C39.0845 10.9074 39.0769 10.8675 40.0308 8.6595C40.2569 8.13693 40.2075 7.9275 39.7001 7.7061C38.2141 7.05986 36.749 6.36375 35.2782 5.67961C34.5961 5.36248 34.007 4.92766 33.7618 4.13781C33.5946 3.59528 33.6668 3.27017 34.3471 3.30208C35.4531 3.35195 36.5609 3.31605 37.6688 3.31605C39.6051 3.31605 39.569 3.31604 39.5956 1.29754C39.6051 0.557551 39.3486 0.435882 38.7253 0.445855C36.4792 0.479763 34.2331 0.459817 31.987 0.459817C30.1209 0.459817 28.2549 0.459817 26.3869 0.459817C24.2909 0.459817 24.31 0.459817 24.3632 2.65584C24.3765 3.17443 24.5 3.33998 25.0035 3.32801C26.3945 3.2941 27.7874 3.30408 29.1784 3.32402C29.5357 3.33001 30.0734 3.10861 30.2179 3.46963C30.4193 3.97226 30.1019 4.49284 29.7618 4.90372C29.4007 5.34054 28.9029 5.5759 28.4164 5.80926C27.5271 6.2341 26.6245 6.63302 25.7294 7.0459C24.2485 7.72937 23.8913 8.82439 24.6577 10.331C24.6881 10.3888 24.7261 10.4446 24.747 10.5065L24.7508 10.5085Z" fill="#210972"/>
<path d="M86.8092 12.6278C89.0876 12.5979 91.3679 12.6158 93.6482 12.6158C95.7613 12.6158 95.7309 12.6158 95.7062 10.4238C95.6986 9.75762 95.4516 9.67185 94.9176 9.67983C93.2397 9.70776 91.5618 9.67584 89.8838 9.69978C89.367 9.70776 89.0401 9.66188 89.0838 8.96976C89.1199 8.38934 89.1028 7.98046 89.8762 8.01037C91.5523 8.0762 93.2321 8.01436 94.91 8.04029C95.4136 8.04827 95.6492 7.94056 95.6397 7.33621C95.6074 5.31172 95.6131 3.28324 95.6397 1.25875C95.6454 0.728191 95.4801 0.574609 94.986 0.586577C93.6254 0.616495 92.263 0.59655 90.9024 0.59655C90.0473 0.59655 89.1921 0.59655 88.3389 0.59655C88.2439 0.59655 88.1489 0.59655 88.0539 0.594555C86.0434 0.562642 86.0738 0.562642 86.051 2.62702C86.0434 3.31515 86.1992 3.55051 86.8833 3.52857C88.5289 3.47871 90.1765 3.54253 91.8221 3.49666C92.4682 3.47871 92.6069 3.71806 92.6126 4.35033C92.6183 4.9886 92.4036 5.12822 91.843 5.11825C90.1651 5.08434 88.4871 5.13021 86.8092 5.09431C86.2334 5.08234 86.0377 5.25986 86.0472 5.87419C86.0776 7.86677 86.0776 9.85934 86.0472 11.8519C86.0377 12.4742 86.2448 12.6358 86.8149 12.6278H86.8092Z" fill="#AE0061"/>
<path d="M77.6124 1.29637C77.6162 0.725926 77.4584 0.572344 76.9283 0.578327C73.9582 0.604257 70.9862 0.616224 68.0161 0.578327C67.3928 0.570349 67.2883 0.79773 67.2997 1.37217C67.332 2.99575 67.3111 4.62133 67.3111 6.2469C67.3111 7.87248 67.3377 9.49805 67.2978 11.1216C67.2826 11.74 67.4593 11.9035 68.0408 11.8975C70.9805 11.8676 73.9202 11.8696 76.858 11.8955C77.409 11.8995 77.6238 11.7918 77.6162 11.1436C77.582 7.86051 77.5877 4.57744 77.6143 1.29637H77.6124ZM74.4123 8.79796C73.9183 9.32054 72.8579 8.9316 72.0465 8.94755C70.3477 8.98146 70.3458 8.9655 70.3458 7.21826C70.3458 6.19105 70.3629 5.16385 70.3382 4.13664C70.3268 3.66792 70.4712 3.4904 70.933 3.50436C71.942 3.53229 72.9548 3.53229 73.9639 3.50436C74.4104 3.4924 74.5853 3.63601 74.5644 4.12069C74.5339 4.84871 74.5568 5.57872 74.5568 6.46232C74.4921 7.15842 74.9083 8.27139 74.4104 8.79796H74.4123Z" fill="#AE0061"/>
<path d="M49.6647 6.01563C46.3677 6.02162 43.7891 8.69235 43.7891 12.1011C43.7891 15.4759 46.4076 18.1885 49.6761 18.2025C52.897 18.2164 55.5669 15.442 55.5612 12.0871C55.5555 8.69235 52.9521 6.00965 49.6628 6.01563H49.6647ZM49.6932 15.0471C48.1559 15.061 46.9758 13.8005 46.9625 12.133C46.9492 10.4336 48.1749 9.06733 49.6913 9.08728C51.1906 9.10722 52.3877 10.4356 52.3896 12.0811C52.3934 13.7207 51.2001 15.0331 49.6913 15.0451L49.6932 15.0471Z" fill="#939394"/>
<path d="M15.6697 11.7492V2.4804C15.6697 -0.00882279 15.6697 0.0111229 13.3039 0.0470252C12.7699 0.0550035 12.6027 0.200607 12.6179 0.767066C12.6559 2.12736 12.616 3.49165 12.6388 4.85195C12.6464 5.30272 12.559 5.54407 12.0744 5.48223C11.7932 5.44633 11.5043 5.47625 11.2193 5.47625C9.49196 5.47625 9.55467 5.48024 9.47296 7.27935C9.42735 8.28261 9.74849 8.57582 10.6378 8.44218C11.0407 8.38234 11.4644 8.47609 11.8692 8.42223C12.5115 8.33846 12.6464 8.61571 12.6426 9.24799C12.616 13.1673 12.6293 17.0867 12.6293 21.008C12.6293 23.3616 12.6293 23.3357 14.9058 23.3317C15.5215 23.3317 15.6906 23.1641 15.6849 22.5099C15.6526 18.9217 15.6697 15.3354 15.6697 11.7472V11.7492Z" fill="#210972"/>
<path d="M117.811 14.8247C115.913 14.8706 114.015 14.8168 112.116 14.8547C111.484 14.8666 111.208 14.721 111.242 13.987C111.297 12.7623 111.288 11.5297 111.246 10.303C111.221 9.62289 111.413 9.36559 112.094 9.38753C113.547 9.4354 115.005 9.42344 116.46 9.39751C118.769 9.35363 118.382 9.87221 118.439 7.18353C118.45 6.62505 118.275 6.43357 117.735 6.43756C114.792 6.4595 111.85 6.4595 108.907 6.43756C108.356 6.43357 108.202 6.645 108.211 7.1935C108.236 8.81908 108.221 10.4467 108.221 12.0742C108.221 13.5343 108.221 14.9963 108.221 16.4563C108.221 17.3352 108.626 17.7754 109.435 17.7767C111.871 17.7767 114.307 17.7767 116.745 17.7767C118.676 17.7767 118.646 17.7767 118.663 15.7203C118.668 15.0242 118.486 14.8128 117.815 14.8287L117.811 14.8247Z" fill="#949494"/>
<path d="M8.35145 7.19202C7.91439 6.44605 7.63695 5.66018 7.65025 4.75664C7.66925 3.43025 7.62555 2.10187 7.59704 0.775476C7.58944 0.474296 7.71296 0.0554353 7.19419 0.0634136C6.37518 0.0773756 5.42505 -0.159979 4.78466 0.203034C4.3115 0.470306 4.67255 1.55136 4.62884 2.26742C4.60034 2.73016 4.60604 3.19888 4.62694 3.66162C4.69535 5.16952 4.3362 6.52782 3.52669 7.79438C2.66397 9.14271 1.88107 10.5469 1.07156 11.9311C0.676302 12.6053 -0.0838016 13.3652 0.0169121 13.9556C0.136628 14.6637 1.26538 14.8093 1.87537 15.3199C2.40174 15.7607 2.59556 15.4575 2.8559 15.0107C3.90484 13.1997 4.97849 11.4065 6.04453 9.60345C6.13765 9.66928 6.20796 9.6952 6.23836 9.74507C7.02887 11.0635 7.81747 12.3839 8.60228 13.7063C9.77094 15.6729 9.75194 15.643 11.637 14.53C12.247 14.169 12.3629 13.9257 11.9581 13.2735C10.7173 11.2729 9.54861 9.22449 8.35525 7.19202H8.35145Z" fill="#210972"/>
<path d="M83.5202 2.3488C83.5202 0.00717182 83.5202 0.039085 81.3045 0.039085C80.6489 0.039085 80.5197 0.27245 80.5235 0.894756C80.5463 4.481 80.5349 8.06524 80.5349 11.6515C80.5349 14.8388 80.5349 18.0261 80.5349 21.2135C80.5349 23.3337 80.5349 23.2858 82.5739 23.3437C83.41 23.3676 83.5392 23.0545 83.5354 22.2706C83.5069 15.6307 83.5183 8.99073 83.5183 2.35079L83.5202 2.3488Z" fill="#AF0161"/>
<path d="M20.384 2.37136C20.384 0.0417016 20.384 0.0855822 18.1835 0.039707C17.4234 0.0237505 17.3226 0.302991 17.3283 0.997102C17.3587 4.54744 17.3435 8.09579 17.3435 11.6461C17.3435 14.7636 17.3435 17.8832 17.3435 21.0007C17.3435 23.3463 17.3435 23.3064 19.5383 23.3363C20.287 23.3463 20.403 23.083 20.3992 22.3749C20.3726 15.7071 20.384 9.03922 20.384 2.36937V2.37136Z" fill="#210972"/>
<path d="M61.2416 5.76401C61.2416 3.47025 61.2416 3.49618 59.0506 3.49219C58.3969 3.49219 58.1765 3.67569 58.1879 4.38376C58.224 6.9408 58.2031 9.49784 58.2031 12.0529C58.2031 14.211 58.2031 16.3691 58.2031 18.5273C58.2031 20.6854 58.2031 20.5956 60.2497 20.6415C61.0231 20.6595 61.2682 20.458 61.2606 19.6063C61.2188 14.9909 61.2416 10.3755 61.2416 5.76002V5.76401Z" fill="#949494"/>
</g>
<defs>
<clipPath id="clip0_80_2269">
<rect width="127" height="25.0658" fill="white"/>
</clipPath>
</defs>
</svg>
