<svg width="104" height="22" viewBox="0 0 104 22" fill="none" xmlns="http://www.w3.org/2000/svg">
<g clip-path="url(#clip0_73_35)">
<path d="M13.3545 13.4183L10.7531 6.31175L8.12108 13.4183H13.3545ZM14.6877 17.1627H6.69297L5.07466 21.1582H0.000976562L8.53372 0H13.0046L21.3511 21.1582H16.2737L14.6877 17.1627ZM32.246 12.1499C32.2137 12.0224 31.9911 11.1345 31.3254 10.4992C30.8198 10.0237 30.0895 9.70618 29.1691 9.70618C27.9939 9.70618 27.2979 10.1836 26.8528 10.6267C26.5029 11.007 26.1873 11.5147 26.0598 12.1499H32.246ZM36.4639 14.8769H25.902C25.902 15.6395 26.1873 16.6549 26.7577 17.2882C27.4537 18.0508 28.4065 18.1762 29.1045 18.1762C29.7719 18.1762 30.4679 18.0508 30.9452 17.7657C31.0081 17.7333 31.5482 17.3833 31.9283 16.5901L36.2434 17.0353C35.6082 19.0339 34.3398 20.0798 33.5144 20.5876C32.1509 21.413 30.6277 21.6354 29.0416 21.6354C26.9175 21.6354 25.0443 21.255 23.3955 19.6045C22.1575 18.3683 21.2695 16.4952 21.2695 14.1486C21.2695 12.1175 21.9998 10.0239 23.426 8.56514C25.1394 6.85173 27.2655 6.53419 28.8514 6.53419C30.4375 6.53419 32.7215 6.81949 34.4652 8.66024C36.1483 10.4365 36.4639 12.6577 36.4639 14.4016V14.8769ZM38.3244 7.01049H42.8921V9.23164C43.3049 8.43861 43.938 7.70843 44.6684 7.2634C45.4309 6.7879 46.2221 6.6604 47.112 6.6604C47.6826 6.6604 48.095 6.72519 48.601 6.88492L48.3481 11.1675C47.7451 10.85 47.0796 10.6578 46.2867 10.6578C45.3015 10.6578 44.5733 11.0078 44.0027 11.6106C42.9872 12.6888 42.8921 14.2122 42.8921 15.4159V21.1588H38.3244V7.01049ZM54.5656 11.4201C53.9 12.0875 53.5198 12.9433 53.5198 14.0843C53.5198 15.3849 54.0256 16.2104 54.5656 16.7486C55.1362 17.321 55.9614 17.7641 57.1671 17.7641C58.1826 17.7641 59.0383 17.4161 59.7058 16.7486C60.3713 16.0831 60.7517 15.2252 60.7517 14.0843C60.7517 12.9433 60.3715 12.0875 59.7058 11.4201C59.0383 10.7526 58.1826 10.4046 57.1347 10.4046C56.0889 10.4046 55.233 10.7526 54.5656 11.4201ZM63.3209 19.35C62.0525 20.6185 59.896 21.6359 57.1347 21.6359C54.3755 21.6359 52.219 20.6185 50.9505 19.35C49.5224 17.9238 48.8225 15.8928 48.8225 14.0843C48.8225 12.2777 49.5224 10.2466 50.9506 8.81853C52.219 7.54999 54.3755 6.53467 57.1347 6.53467C59.896 6.53467 62.0525 7.55015 63.3209 8.81853C64.7492 10.2466 65.447 12.2777 65.447 14.0843C65.447 15.8928 64.7492 17.9236 63.3209 19.35ZM89.3605 8.82655L96.5888 0.0121877H102.549L93.9891 10.0303L103.216 21.1588H96.9368L89.3605 11.774V21.159H84.4788V0.0120274H89.3605V8.82655Z" fill="white"/>
<path d="M67.3047 21.1585H82.1586V13.8047H67.3047V21.1585Z" fill="#FFA600"/>
</g>
<defs>
<clipPath id="clip0_73_35">
<rect width="103.215" height="21.6359" fill="white"/>
</clipPath>
</defs>
</svg>
