<svg width="104" height="22" viewBox="0 0 104 22" fill="none" xmlns="http://www.w3.org/2000/svg">
<g clip-path="url(#clip0_33_9938)">
<path d="M13.3545 13.6019L10.7531 6.49535L8.12108 13.6019H13.3545ZM14.6877 17.3463H6.69297L5.07466 21.3418H0.000976562L8.53372 0.183594H13.0046L21.3511 21.3418H16.2737L14.6877 17.3463ZM32.246 12.3335C32.2137 12.206 31.9911 11.318 31.3254 10.6828C30.8198 10.2073 30.0895 9.88978 29.1691 9.88978C27.9939 9.88978 27.2979 10.3672 26.8528 10.8103C26.5029 11.1906 26.1873 11.6983 26.0598 12.3335H32.246ZM36.4639 15.0605H25.902C25.902 15.8231 26.1873 16.8385 26.7577 17.4718C27.4537 18.2344 28.4065 18.3598 29.1045 18.3598C29.7719 18.3598 30.4679 18.2344 30.9452 17.9493C31.0081 17.9169 31.5482 17.5669 31.9283 16.7737L36.2434 17.2189C35.6082 19.2175 34.3398 20.2634 33.5144 20.7712C32.1509 21.5966 30.6277 21.819 29.0416 21.819C26.9175 21.819 25.0443 21.4386 23.3955 19.7881C22.1575 18.5519 21.2695 16.6788 21.2695 14.3322C21.2695 12.3011 21.9998 10.2075 23.426 8.74873C25.1394 7.03532 27.2655 6.71778 28.8514 6.71778C30.4375 6.71778 32.7215 7.00309 34.4652 8.84383C36.1483 10.6201 36.4639 12.8413 36.4639 14.5851V15.0605ZM38.3244 7.19409H42.8921V9.41524C43.3049 8.6222 43.938 7.89203 44.6684 7.44699C45.431 6.97149 46.2221 6.844 47.112 6.844C47.6826 6.844 48.095 6.90879 48.601 7.06852L48.3481 11.3511C47.7451 11.0336 47.0796 10.8414 46.2867 10.8414C45.3015 10.8414 44.5733 11.1914 44.0027 11.7942C42.9872 12.8724 42.8921 14.3957 42.8921 15.5995V21.3424H38.3244V7.19409ZM54.5656 11.6037C53.9 12.2711 53.5198 13.1269 53.5198 14.2679C53.5198 15.5685 54.0256 16.394 54.5656 16.9322C55.1362 17.5046 55.9614 17.9477 57.1671 17.9477C58.1826 17.9477 59.0383 17.5997 59.7058 16.9322C60.3713 16.2666 60.7517 15.4088 60.7517 14.2679C60.7517 13.1269 60.3715 12.2711 59.7058 11.6037C59.0383 10.9362 58.1826 10.5882 57.1347 10.5882C56.0889 10.5882 55.233 10.9362 54.5656 11.6037ZM63.3209 19.5336C62.0525 20.8021 59.896 21.8195 57.1347 21.8195C54.3755 21.8195 52.219 20.8021 50.9505 19.5336C49.5224 18.1074 48.8225 16.0764 48.8225 14.2679C48.8225 12.4613 49.5224 10.4302 50.9506 9.00212C52.219 7.73358 54.3755 6.71826 57.1347 6.71826C59.896 6.71826 62.0525 7.73374 63.3209 9.00212C64.7492 10.4302 65.447 12.4613 65.447 14.2679C65.447 16.0764 64.7492 18.1072 63.3209 19.5336ZM89.3605 9.01014L96.5888 0.195781H102.549L93.9891 10.2139L103.216 21.3424H96.9368L89.3605 11.9576V21.3426H84.4788V0.195621H89.3605V9.01014Z" fill="#1C2C4C"/>
<path d="M67.3047 21.3421H82.1586V13.9883H67.3047V21.3421Z" fill="#FCB44C"/>
</g>
<defs>
<clipPath id="clip0_33_9938">
<rect width="103.215" height="21.6359" fill="white" transform="translate(0 0.183594)"/>
</clipPath>
</defs>
</svg>
