<svg width="722" height="324" viewBox="0 0 722 324" fill="none" xmlns="http://www.w3.org/2000/svg">
<g clip-path="url(#clip0_39_52)">
<rect width="722" height="324" rx="20" fill="#002554"/>
<g filter="url(#filter0_bd_39_52)">
<mask id="path-2-inside-1_39_52" fill="white">
<path fill-rule="evenodd" clip-rule="evenodd" d="M-59.2794 129.324C-69.1487 127.693 -78.4713 134.372 -80.1019 144.241L-82.3119 157.617C-71.9033 162.547 -65.5689 173.929 -67.5397 185.857C-69.5105 197.786 -79.1693 206.525 -90.6103 207.845L-93.0472 222.594C-94.6778 232.464 -87.999 241.786 -78.1297 243.417L88.1989 270.897C98.0682 272.528 107.391 265.849 109.021 255.98L121.967 177.626C123.597 167.757 116.918 158.435 107.049 156.804L-59.2794 129.324Z"/>
</mask>
<path fill-rule="evenodd" clip-rule="evenodd" d="M-59.2794 129.324C-69.1487 127.693 -78.4713 134.372 -80.1019 144.241L-82.3119 157.617C-71.9033 162.547 -65.5689 173.929 -67.5397 185.857C-69.5105 197.786 -79.1693 206.525 -90.6103 207.845L-93.0472 222.594C-94.6778 232.464 -87.999 241.786 -78.1297 243.417L88.1989 270.897C98.0682 272.528 107.391 265.849 109.021 255.98L121.967 177.626C123.597 167.757 116.918 158.435 107.049 156.804L-59.2794 129.324Z" fill="url(#paint0_linear_39_52)"/>
<path d="M-59.2794 129.324L-59.234 129.049L-59.2794 129.324ZM-82.3119 157.617L-82.5868 157.572L-82.621 157.779L-82.4311 157.869L-82.3119 157.617ZM-90.6103 207.845L-90.6423 207.568L-90.851 207.592L-90.8853 207.799L-90.6103 207.845ZM-78.1297 243.417L-78.1751 243.692L-78.1297 243.417ZM88.1989 270.897L88.2443 270.622L88.1989 270.897ZM107.049 156.804L107.004 157.079L107.049 156.804ZM-79.8269 144.287C-78.2214 134.569 -69.0423 127.993 -59.3248 129.598L-59.234 129.049C-69.2552 127.393 -78.7211 134.175 -80.3768 144.196L-79.8269 144.287ZM-82.0369 157.663L-79.8269 144.287L-80.3768 144.196L-82.5868 157.572L-82.0369 157.663ZM-82.4311 157.869C-72.132 162.747 -65.8646 174.009 -67.8146 185.812L-67.2647 185.903C-65.2732 173.848 -71.6746 162.347 -82.1926 157.366L-82.4311 157.869ZM-67.8146 185.812C-69.7646 197.614 -79.3215 206.262 -90.6423 207.568L-90.5784 208.122C-79.0171 206.788 -69.2563 197.957 -67.2647 185.903L-67.8146 185.812ZM-92.7723 222.64L-90.3354 207.89L-90.8853 207.799L-93.3221 222.549L-92.7723 222.64ZM-78.0842 243.142C-87.8017 241.536 -94.3778 232.357 -92.7723 222.64L-93.3221 222.549C-94.9778 232.57 -88.1962 242.036 -78.1751 243.692L-78.0842 243.142ZM88.2443 270.622L-78.0842 243.142L-78.1751 243.692L88.1535 271.172L88.2443 270.622ZM108.746 255.934C107.141 265.652 97.9618 272.228 88.2443 270.622L88.1535 271.172C98.1746 272.828 107.641 266.046 109.296 256.025L108.746 255.934ZM121.692 177.581L108.746 255.934L109.296 256.025L122.242 177.672L121.692 177.581ZM107.004 157.079C116.721 158.684 123.297 167.864 121.692 177.581L122.242 177.672C123.897 167.651 117.116 158.185 107.095 156.529L107.004 157.079ZM-59.3248 129.598L107.004 157.079L107.095 156.529L-59.234 129.049L-59.3248 129.598Z" fill="black" mask="url(#path-2-inside-1_39_52)"/>
</g>
<path d="M-25.0461 203.626C-26.3217 203.416 -27.44 203.073 -28.4008 202.598C-29.3397 202.126 -30.1522 201.574 -30.8384 200.941C-31.5026 200.311 -32.0954 199.66 -32.6168 198.986L-30.1135 196.553C-29.7243 197.069 -29.2875 197.571 -28.803 198.057C-28.315 198.522 -27.761 198.93 -27.1412 199.281C-26.4957 199.614 -25.7771 199.845 -24.9853 199.976C-24.1055 200.121 -23.2957 200.074 -22.5557 199.835C-21.8158 199.596 -21.1934 199.179 -20.6885 198.585C-20.1799 197.968 -19.8475 197.187 -19.6913 196.242C-19.4587 194.834 -19.6857 193.678 -20.3723 192.774C-21.0369 191.873 -22.018 191.316 -23.3157 191.101C-24.0635 190.978 -24.7194 190.982 -25.2836 191.115C-25.8442 191.226 -26.5255 191.452 -27.3276 191.794L-29.155 190.137L-26.4942 178.545L-13.8258 180.638L-14.4308 184.3L-23.3713 182.823L-24.8091 188.448C-24.2853 188.286 -23.7705 188.179 -23.2649 188.127C-22.7372 188.079 -22.1655 188.106 -21.5496 188.207C-20.186 188.433 -18.987 188.902 -17.9525 189.615C-16.896 190.332 -16.1287 191.295 -15.6506 192.503C-15.1469 193.694 -15.0349 195.136 -15.3147 196.829C-15.5981 198.545 -16.2375 199.953 -17.2327 201.054C-18.228 202.154 -19.4162 202.918 -20.7972 203.345C-22.1562 203.776 -23.5725 203.87 -25.0461 203.626ZM-13.592 212.06L-14.1178 209.499C-12.8282 209.215 -11.7863 208.72 -10.992 208.016C-10.1794 207.337 -9.70234 206.5 -9.56081 205.507L-9.22459 202.241L-8.04955 205.18C-8.33145 205.382 -8.63544 205.513 -8.96153 205.572C-9.26562 205.635 -9.58261 205.639 -9.91252 205.584C-10.6603 205.461 -11.282 205.121 -11.7775 204.565C-12.251 204.012 -12.417 203.307 -12.2752 202.449C-12.1408 201.635 -11.7495 201.044 -11.1013 200.677C-10.4496 200.288 -9.72777 200.158 -8.93599 200.289C-7.90228 200.46 -7.17591 200.987 -6.75688 201.869C-6.33421 202.73 -6.23735 203.853 -6.46627 205.239C-6.76788 207.064 -7.53537 208.564 -8.76875 209.739C-10.0058 210.935 -11.6135 211.709 -13.592 212.06ZM4.27033 208.47C2.64278 208.201 1.30231 207.494 0.248896 206.348C-0.80088 205.181 -1.50487 203.63 -1.86309 201.695C-2.21766 199.739 -2.17329 197.419 -1.72997 194.735C-1.28665 192.052 -0.586097 189.863 0.371689 188.169C1.32947 186.474 2.48951 185.265 3.85179 184.541C5.21407 183.817 6.70898 183.59 8.33653 183.859C9.98607 184.131 11.3394 184.829 12.3964 185.953C13.4534 187.077 14.1519 188.593 14.4917 190.502C14.8536 192.414 14.8129 194.712 14.3695 197.395C13.9262 200.079 13.222 202.289 12.257 204.028C11.3175 205.748 10.1631 206.992 8.79351 207.76C7.42759 208.506 5.91987 208.742 4.27033 208.47ZM4.8372 205.039C5.60698 205.166 6.33422 205.004 7.01889 204.552C7.70721 204.078 8.32533 203.209 8.87326 201.944C9.44319 200.682 9.91166 198.941 10.2787 196.719C10.6493 194.476 10.7641 192.688 10.6229 191.354C10.5074 190.002 10.1963 189.013 9.68972 188.387C9.1831 187.761 8.54489 187.384 7.77511 187.257C7.02732 187.133 6.3129 187.286 5.63186 187.716C4.95081 188.146 4.32714 188.98 3.76085 190.22C3.19818 191.437 2.73153 193.168 2.36089 195.411C1.99387 197.633 1.87731 199.432 2.01118 200.81C2.14506 202.188 2.46167 203.212 2.96103 203.882C3.46402 204.53 4.08941 204.915 4.8372 205.039ZM23.0777 211.577C21.4501 211.308 20.1096 210.601 19.0562 209.455C18.0064 208.288 17.3025 206.737 16.9442 204.802C16.5897 202.846 16.634 200.526 17.0774 197.843C17.5207 195.159 18.2212 192.971 19.179 191.276C20.1368 189.582 21.2968 188.372 22.6591 187.649C24.0214 186.925 25.5163 186.697 27.1439 186.966C28.7934 187.239 30.1467 187.937 31.2037 189.06C32.2608 190.184 32.9592 191.7 33.2991 193.609C33.6609 195.522 33.6202 197.819 33.1769 200.503C32.7335 203.186 32.0294 205.397 31.0643 207.135C30.1249 208.855 28.9704 210.099 27.6008 210.867C26.2349 211.613 24.7272 211.85 23.0777 211.577ZM23.6445 208.146C24.4143 208.273 25.1415 208.111 25.8262 207.659C26.5145 207.186 27.1327 206.316 27.6806 205.051C28.2505 203.79 28.719 202.048 29.086 199.827C29.4566 197.583 29.5714 195.795 29.4303 194.461C29.3147 193.109 29.0037 192.12 28.497 191.494C27.9904 190.868 27.3522 190.491 26.5824 190.364C25.8346 190.241 25.1202 190.394 24.4392 190.823C23.7581 191.253 23.1345 192.088 22.5682 193.327C22.0055 194.545 21.5389 196.275 21.1682 198.519C20.8012 200.74 20.6846 202.54 20.8185 203.917C20.9524 205.295 21.269 206.319 21.7684 206.989C22.2713 207.637 22.8967 208.023 23.6445 208.146ZM41.885 214.685C40.2574 214.416 38.917 213.708 37.8635 212.563C36.8138 211.395 36.1098 209.844 35.7516 207.91C35.397 205.953 35.4414 203.633 35.8847 200.95C36.328 198.267 37.0285 196.078 37.9863 194.383C38.9441 192.689 40.1042 191.48 41.4664 190.756C42.8287 190.032 44.3236 189.804 45.9512 190.073C47.6007 190.346 48.954 191.044 50.011 192.168C51.0681 193.291 51.7665 194.807 52.1064 196.716C52.4682 198.629 52.4275 200.927 51.9842 203.61C51.5409 206.293 50.8367 208.504 49.8716 210.243C48.9322 211.963 47.7777 213.207 46.4082 213.975C45.0422 214.72 43.5345 214.957 41.885 214.685ZM42.4518 211.253C43.2216 211.381 43.9489 211.218 44.6335 210.767C45.3219 210.293 45.94 209.424 46.4879 208.158C47.0578 206.897 47.5263 205.155 47.8933 202.934C48.264 200.691 48.3787 198.902 48.2376 197.568C48.1221 196.216 47.811 195.227 47.3044 194.601C46.7977 193.975 46.1595 193.599 45.3898 193.471C44.642 193.348 43.9275 193.501 43.2465 193.931C42.5655 194.36 41.9418 195.195 41.3755 196.435C40.8128 197.652 40.3462 199.383 39.9755 201.626C39.6085 203.847 39.492 205.647 39.6258 207.025C39.7597 208.402 40.0763 209.426 40.5757 210.096C41.0787 210.744 41.7041 211.13 42.4518 211.253ZM54.3024 216.262L58.3305 191.881L66.0173 193.151C67.8428 193.453 69.4194 193.962 70.747 194.678C72.0783 195.373 73.06 196.337 73.6921 197.571C74.3462 198.809 74.5188 200.363 74.2099 202.232C73.912 204.036 73.258 205.464 72.248 206.517C71.2416 207.549 69.9874 208.234 68.4853 208.573C66.9869 208.89 65.3579 208.904 63.5984 208.613L60.1343 208.041L58.6572 216.981L54.3024 216.262ZM60.7066 204.577L63.8408 205.094C65.6443 205.392 67.0459 205.251 68.0455 204.671C69.0488 204.068 69.674 203.019 69.9211 201.524C70.1682 200.028 69.879 198.907 69.0533 198.161C68.2277 197.414 66.9021 196.89 65.0766 196.589L62.1075 196.098L60.7066 204.577Z" fill="white"/>
<rect x="-72.0771" y="213.348" width="168.583" height="4.2593" rx="2.12965" transform="rotate(9.38154 -72.0771 213.348)" fill="white"/>
<g filter="url(#filter1_bd_39_52)">
<mask id="path-6-inside-2_39_52" fill="white">
<path fill-rule="evenodd" clip-rule="evenodd" d="M-15.6823 62.4199C-22.0187 65.657 -24.531 73.4179 -21.2939 79.7542L-16.9062 88.3425C-8.86738 86.7653 -0.433536 90.6016 3.47897 98.2599C7.39149 105.918 5.55746 115 -0.431572 120.59L4.40607 130.059C7.64322 136.395 15.4041 138.907 21.7404 135.67L128.527 81.1143C134.864 77.8771 137.376 70.1163 134.139 63.7799L108.439 13.4754C105.202 7.13906 97.4408 4.62667 91.1045 7.86383L-15.6823 62.4199Z"/>
</mask>
<path fill-rule="evenodd" clip-rule="evenodd" d="M-15.6823 62.4199C-22.0187 65.657 -24.531 73.4179 -21.2939 79.7542L-16.9062 88.3425C-8.86738 86.7653 -0.433536 90.6016 3.47897 98.2599C7.39149 105.918 5.55746 115 -0.431572 120.59L4.40607 130.059C7.64322 136.395 15.4041 138.907 21.7404 135.67L128.527 81.1143C134.864 77.8771 137.376 70.1163 134.139 63.7799L108.439 13.4754C105.202 7.13906 97.4408 4.62667 91.1045 7.86383L-15.6823 62.4199Z" fill="url(#paint1_linear_39_52)"/>
<path d="M-21.2939 79.7542L-21.1174 79.664L-21.2939 79.7542ZM-15.6823 62.4199L-15.7725 62.2433L-15.6823 62.4199ZM-16.9062 88.3425L-17.0827 88.4327L-17.0147 88.5658L-16.8681 88.537L-16.9062 88.3425ZM-0.431572 120.59L-0.566809 120.445L-0.676078 120.547L-0.608079 120.68L-0.431572 120.59ZM134.139 63.7799L133.962 63.8701L134.139 63.7799ZM108.439 13.4754L108.615 13.3852L108.439 13.4754ZM91.1045 7.86383L91.1946 8.04034L91.1045 7.86383ZM-21.1174 79.664C-24.3047 73.4252 -21.831 65.7837 -15.5921 62.5964L-15.7725 62.2433C-22.2063 65.5303 -24.7574 73.4105 -21.4704 79.8444L-21.1174 79.664ZM-16.7297 88.2523L-21.1174 79.664L-21.4704 79.8444L-17.0827 88.4327L-16.7297 88.2523ZM-16.8681 88.537C-8.91372 86.9764 -0.568728 90.7727 3.30247 98.35L3.65548 98.1697C-0.298344 90.4306 -8.82104 86.5542 -16.9444 88.148L-16.8681 88.537ZM3.30247 98.35C7.17366 105.927 5.35926 114.914 -0.566809 120.445L-0.296335 120.735C5.75565 115.086 7.60931 105.909 3.65548 98.1697L3.30247 98.35ZM4.58257 129.969L-0.255065 120.499L-0.608079 120.68L4.22956 130.149L4.58257 129.969ZM21.6503 135.494C15.4114 138.681 7.76993 136.207 4.58257 129.969L4.22956 130.149C7.51652 136.583 15.3968 139.134 21.8306 135.847L21.6503 135.494ZM128.437 80.9378L21.6503 135.494L21.8306 135.847L128.617 81.2908L128.437 80.9378ZM133.962 63.8701C137.15 70.109 134.676 77.7504 128.437 80.9378L128.617 81.2908C135.051 78.0038 137.602 70.1236 134.315 63.6898L133.962 63.8701ZM108.262 13.5656L133.962 63.8701L134.315 63.6898L108.615 13.3852L108.262 13.5656ZM91.1946 8.04034C97.4335 4.85298 105.075 7.32671 108.262 13.5656L108.615 13.3852C105.328 6.9514 97.4481 4.40036 91.0143 7.68733L91.1946 8.04034ZM-15.5921 62.5964L91.1946 8.04034L91.0143 7.68733L-15.7725 62.2433L-15.5921 62.5964Z" fill="black" mask="url(#path-6-inside-2_39_52)"/>
</g>
<path d="M30.1172 92.7114L29.2948 91.1016C30.0143 89.0247 30.6153 87.1863 31.0978 85.5865C31.5732 83.9726 31.8625 82.5872 31.966 81.4304C32.0763 80.2522 31.9331 79.2749 31.5363 78.4982C31.255 77.9475 30.9181 77.532 30.5256 77.2518C30.1473 76.9643 29.7204 76.8084 29.2451 76.7842C28.7625 76.7458 28.2459 76.8673 27.6952 77.1487C27.1021 77.4517 26.645 77.8989 26.324 78.4902C26.017 79.0744 25.7742 79.697 25.5955 80.3581L23.2702 79.623C23.5726 78.507 23.997 77.5601 24.5434 76.7824C25.0967 75.9834 25.8958 75.3169 26.9407 74.7831C27.915 74.2853 28.8596 74.0431 29.7746 74.0565C30.6895 74.0698 31.525 74.3285 32.2811 74.8325C33.0441 75.3152 33.6672 76.0296 34.1506 76.9757C34.6123 77.8794 34.827 78.9271 34.7948 80.1188C34.7626 81.3104 34.5788 82.6062 34.2434 84.0062C33.9081 85.4061 33.5026 86.8953 33.027 88.4738C33.4148 88.2222 33.8345 87.9633 34.2861 87.697C34.7304 87.4165 35.1362 87.1825 35.5033 86.995L39.2099 85.1013L40.4111 87.4524L30.1172 92.7114ZM45.2367 90.5158L43.8537 89.2726C44.4717 88.5652 44.859 87.842 45.0157 87.1031C45.1937 86.3711 45.1134 85.6911 44.7746 85.0628L43.5871 83.052L45.5014 84.2375C45.4254 84.4721 45.3067 84.6753 45.145 84.8469C44.9975 85.0113 44.8179 85.1476 44.6061 85.2558C44.126 85.501 43.6266 85.5692 43.108 85.4602C42.6035 85.3441 42.2105 85.0106 41.9292 84.4599C41.6623 83.9375 41.6366 83.4342 41.8523 82.9501C42.0607 82.4519 42.4191 82.0729 42.9274 81.8132C43.5911 81.4741 44.2293 81.4686 44.842 81.7966C45.4475 82.1105 45.9775 82.7122 46.432 83.6018C47.0308 84.7738 47.2254 85.9564 47.0159 87.1496C46.8136 88.3569 46.2206 89.479 45.2367 90.5158ZM53.9409 80.9141C52.896 81.4479 51.8301 81.6096 50.7433 81.3992C49.6492 81.1747 48.591 80.5846 47.5686 79.629C46.5391 78.6593 45.5842 77.3131 44.7041 75.5904C43.824 73.8677 43.3 72.3192 43.132 70.9449C42.9641 69.5706 43.1169 68.3885 43.5906 67.3987C44.0642 66.4088 44.8235 65.647 45.8684 65.1131C46.9275 64.5721 47.9968 64.3997 49.0764 64.596C50.156 64.7923 51.1964 65.3648 52.1974 66.3135C53.2126 67.2549 54.1602 68.587 55.0403 70.3097C55.9205 72.0324 56.4517 73.5951 56.6341 74.9976C56.8233 76.3788 56.6883 77.5785 56.2291 78.5966C55.7627 79.6005 55 80.373 53.9409 80.9141ZM52.8155 78.7113C53.3098 78.4588 53.6573 78.0586 53.8582 77.5108C54.0519 76.9489 54.0382 76.1902 53.8172 75.2348C53.6103 74.2721 53.1425 73.0777 52.4139 71.6515C51.6781 70.2112 50.988 69.1393 50.3437 68.4357C49.7062 67.7108 49.1103 67.2763 48.5559 67.1322C48.0015 66.9881 47.4772 67.0423 46.983 67.2948C46.5029 67.5401 46.1588 67.9295 45.9507 68.4632C45.7426 68.9969 45.7383 69.738 45.938 70.6865C46.1305 71.6209 46.5947 72.8083 47.3305 74.2486C48.0591 75.6748 48.7528 76.7538 49.4116 77.4856C50.0704 78.2174 50.6842 78.6695 51.253 78.8418C51.8146 79.0001 52.3354 78.9565 52.8155 78.7113ZM66.0157 74.7452C64.9707 75.2791 63.9049 75.4408 62.818 75.2304C61.724 75.0058 60.6658 74.4158 59.6434 73.4602C58.6138 72.4905 57.6589 71.1443 56.7788 69.4216C55.8987 67.6989 55.3747 66.1503 55.2068 64.776C55.0388 63.4017 55.1917 62.2197 55.6653 61.2298C56.139 60.24 56.8982 59.4781 57.9432 58.9443C59.0022 58.4033 60.0715 58.2309 61.1512 58.4272C62.2308 58.6235 63.2711 59.196 64.2722 60.1446C65.2873 61.0861 66.235 62.4182 67.1151 64.1409C67.9952 65.8636 68.5264 67.4262 68.7088 68.8288C68.8981 70.21 68.7631 71.4096 68.3039 72.4277C67.8374 73.4317 67.0747 74.2042 66.0157 74.7452ZM64.8903 72.5424C65.3845 72.2899 65.7321 71.8898 65.933 71.342C66.1267 70.7801 66.113 70.0214 65.8919 69.066C65.685 68.1033 65.2173 66.9089 64.4887 65.4827C63.7528 64.0424 63.0627 62.9705 62.4184 62.2669C61.781 61.542 61.185 61.1075 60.6307 60.9634C60.0763 60.8193 59.552 60.8734 59.0577 61.1259C58.5776 61.3712 58.2335 61.7607 58.0254 62.2944C57.8173 62.828 57.8131 63.5691 58.0128 64.5177C58.2053 65.4521 58.6694 66.6395 59.4053 68.0798C60.1339 69.5059 60.8276 70.5849 61.4863 71.3167C62.1451 72.0485 62.7589 72.5006 63.3277 72.673C63.8893 72.8312 64.4102 72.7877 64.8903 72.5424ZM78.0904 68.5764C77.0455 69.1102 75.9796 69.2719 74.8928 69.0615C73.7987 68.837 72.7405 68.2469 71.7181 67.2914C70.6885 66.3216 69.7337 64.9754 68.8536 63.2527C67.9735 61.53 67.4494 59.9815 67.2815 58.6072C67.1136 57.2329 67.2664 56.0508 67.7401 55.061C68.2137 54.0712 68.973 53.3093 70.0179 52.7755C71.077 52.2344 72.1463 52.062 73.2259 52.2583C74.3055 52.4546 75.3459 53.0271 76.3469 53.9758C77.3621 54.9173 78.3097 56.2494 79.1898 57.9721C80.0699 59.6948 80.6012 61.2574 80.7835 62.6599C80.9728 64.0412 80.8378 65.2408 80.3786 66.2589C79.9122 67.2628 79.1494 68.0353 78.0904 68.5764ZM76.965 66.3736C77.4592 66.1211 77.8068 65.721 78.0077 65.1732C78.2014 64.6112 78.1877 63.8526 77.9667 62.8971C77.7598 61.9345 77.292 60.74 76.5634 59.3139C75.8276 57.8736 75.1375 56.8016 74.4931 56.0981C73.8557 55.3732 73.2598 54.9387 72.7054 54.7945C72.151 54.6504 71.6267 54.7046 71.1325 54.9571C70.6524 55.2024 70.3083 55.5919 70.1002 56.1255C69.892 56.6592 69.8878 57.4003 70.0875 58.3488C70.28 59.2833 70.7442 60.4706 71.48 61.9109C72.2086 63.3371 72.9023 64.4161 73.5611 65.1479C74.2198 65.8797 74.8336 66.3318 75.4025 66.5041C75.9641 66.6624 76.4849 66.6189 76.965 66.3736ZM85.8622 64.232L77.8655 48.5793L82.8006 46.058C83.9726 45.4592 85.0898 45.0843 86.1522 44.9333C87.2075 44.7681 88.1766 44.9051 89.0598 45.3442C89.9571 45.7761 90.7123 46.5922 91.3255 47.7924C91.9171 48.9503 92.1464 50.044 92.0135 51.0734C91.8734 52.0887 91.4452 53.0108 90.7291 53.8396C90.0057 54.6543 89.0792 55.3502 87.9496 55.9274L85.7256 57.0636L88.6581 62.8036L85.8622 64.232ZM84.5894 54.8396L86.6015 53.8116C87.7594 53.22 88.5018 52.547 88.8285 51.7924C89.1481 51.0238 89.0626 50.1594 88.572 49.1992C88.0815 48.239 87.4423 47.7197 86.6544 47.6415C85.8666 47.5632 84.8866 47.8234 83.7146 48.4222L81.8084 49.3961L84.5894 54.8396Z" fill="white"/>
<rect x="12.4951" y="115.91" width="119.916" height="3.0297" rx="1.51485" transform="rotate(-27.0619 12.4951 115.91)" fill="white"/>
</g>
<defs>
<filter id="filter0_bd_39_52" x="-232.617" y="-10.247" width="494.154" height="420.713" filterUnits="userSpaceOnUse" color-interpolation-filters="sRGB">
<feFlood flood-opacity="0" result="BackgroundImageFix"/>
<feGaussianBlur in="BackgroundImageFix" stdDeviation="69.6626"/>
<feComposite in2="SourceAlpha" operator="in" result="effect1_backgroundBlur_39_52"/>
<feColorMatrix in="SourceAlpha" type="matrix" values="0 0 0 0 0 0 0 0 0 0 0 0 0 0 0 0 0 0 127 0" result="hardAlpha"/>
<feOffset dy="5.573"/>
<feGaussianBlur stdDeviation="2.7865"/>
<feComposite in2="hardAlpha" operator="out"/>
<feColorMatrix type="matrix" values="0 0 0 0 0 0 0 0 0 0 0 0 0 0 0 0 0 0 0.25 0"/>
<feBlend mode="normal" in2="effect1_backgroundBlur_39_52" result="effect2_dropShadow_39_52"/>
<feBlend mode="normal" in="SourceGraphic" in2="effect2_dropShadow_39_52" result="shape"/>
</filter>
<filter id="filter1_bd_39_52" x="-121.811" y="-92.6547" width="356.467" height="328.841" filterUnits="userSpaceOnUse" color-interpolation-filters="sRGB">
<feFlood flood-opacity="0" result="BackgroundImageFix"/>
<feGaussianBlur in="BackgroundImageFix" stdDeviation="49.552"/>
<feComposite in2="SourceAlpha" operator="in" result="effect1_backgroundBlur_39_52"/>
<feColorMatrix in="SourceAlpha" type="matrix" values="0 0 0 0 0 0 0 0 0 0 0 0 0 0 0 0 0 0 127 0" result="hardAlpha"/>
<feOffset dy="3.96416"/>
<feGaussianBlur stdDeviation="1.98208"/>
<feComposite in2="hardAlpha" operator="out"/>
<feColorMatrix type="matrix" values="0 0 0 0 0 0 0 0 0 0 0 0 0 0 0 0 0 0 0.25 0"/>
<feBlend mode="normal" in2="effect1_backgroundBlur_39_52" result="effect2_dropShadow_39_52"/>
<feBlend mode="normal" in="SourceGraphic" in2="effect2_dropShadow_39_52" result="shape"/>
</filter>
<linearGradient id="paint0_linear_39_52" x1="75.2579" y1="134.808" x2="-117.028" y2="131.843" gradientUnits="userSpaceOnUse">
<stop stop-color="#FF4A4A"/>
<stop offset="0.74" stop-color="#FFA5A5"/>
<stop offset="1" stop-color="white"/>
</linearGradient>
<linearGradient id="paint1_linear_39_52" x1="37.7111" y1="35.1418" x2="75.1338" y2="108.392" gradientUnits="userSpaceOnUse">
<stop stop-color="#AE47FF"/>
<stop offset="1" stop-color="#0018F1"/>
</linearGradient>
<clipPath id="clip0_39_52">
<rect width="722" height="324" rx="20" fill="white"/>
</clipPath>
</defs>
</svg>
