<svg width="722" height="324" viewBox="0 0 722 324" fill="none" xmlns="http://www.w3.org/2000/svg">
<g clip-path="url(#clip0_39_21)">
<rect width="722" height="324" rx="20" fill="#FFA600"/>
<rect x="53" y="172" width="164.481" height="208.171" rx="19.2751" fill="white"/>
<rect x="214.912" y="232.395" width="6.42504" height="50.1153" rx="3.21252" fill="white"/>
<rect x="94.1191" y="187.422" width="50.1153" height="11.5651" rx="5.78253" fill="#D9D9D9"/>
<circle cx="159.656" cy="192.558" r="6.42504" fill="#D9D9D9"/>
<rect x="70.9902" y="210.551" width="128.501" height="208.171" rx="12.8501" fill="#002554"/>
<path d="M104.611 251.109L108.875 237.779H112.023L116.287 251.109H113.48L111.591 244.165C111.387 243.47 111.189 242.75 110.998 242.006C110.818 241.251 110.626 240.519 110.422 239.812H110.35C110.182 240.531 109.996 241.263 109.792 242.006C109.6 242.75 109.408 243.47 109.217 244.165L107.31 251.109H104.611ZM107.256 247.691V245.622H113.588V247.691H107.256ZM121.839 251.361C120.903 251.361 120.058 251.151 119.302 250.732C118.547 250.312 117.941 249.706 117.485 248.915C117.041 248.123 116.82 247.176 116.82 246.072C116.82 245.257 116.945 244.525 117.197 243.877C117.461 243.23 117.815 242.678 118.259 242.222C118.715 241.755 119.218 241.401 119.77 241.161C120.334 240.909 120.915 240.783 121.515 240.783C122.438 240.783 123.212 240.993 123.836 241.413C124.459 241.82 124.927 242.39 125.239 243.122C125.563 243.841 125.725 244.669 125.725 245.604C125.725 245.844 125.713 246.078 125.689 246.306C125.665 246.522 125.635 246.696 125.599 246.828H119.392C119.464 247.367 119.626 247.823 119.878 248.195C120.13 248.567 120.454 248.849 120.849 249.041C121.245 249.22 121.695 249.31 122.199 249.31C122.606 249.31 122.99 249.256 123.35 249.148C123.71 249.029 124.076 248.855 124.447 248.627L125.347 250.246C124.855 250.582 124.303 250.852 123.692 251.055C123.08 251.259 122.462 251.361 121.839 251.361ZM119.338 245.047H123.458C123.458 244.375 123.302 243.841 122.99 243.446C122.69 243.038 122.211 242.834 121.551 242.834C121.203 242.834 120.873 242.918 120.562 243.086C120.25 243.242 119.986 243.488 119.77 243.823C119.554 244.147 119.41 244.555 119.338 245.047ZM127.723 251.109V241.035H129.881L130.079 242.816H130.133C130.505 242.156 130.943 241.653 131.447 241.305C131.95 240.957 132.466 240.783 132.994 240.783C133.281 240.783 133.509 240.807 133.677 240.855C133.857 240.891 134.019 240.939 134.163 240.999L133.731 243.284C133.539 243.236 133.365 243.2 133.21 243.176C133.066 243.14 132.88 243.122 132.652 243.122C132.268 243.122 131.86 243.272 131.429 243.572C131.009 243.871 130.655 244.381 130.367 245.101V251.109H127.723ZM139.307 251.361C138.467 251.361 137.676 251.151 136.932 250.732C136.2 250.312 135.607 249.712 135.151 248.933C134.695 248.141 134.467 247.188 134.467 246.072C134.467 244.957 134.695 244.009 135.151 243.23C135.607 242.438 136.2 241.832 136.932 241.413C137.676 240.993 138.467 240.783 139.307 240.783C139.942 240.783 140.548 240.903 141.124 241.143C141.699 241.383 142.215 241.731 142.671 242.186C143.127 242.63 143.486 243.182 143.75 243.841C144.014 244.489 144.146 245.233 144.146 246.072C144.146 247.188 143.918 248.141 143.462 248.933C143.007 249.712 142.407 250.312 141.663 250.732C140.932 251.151 140.146 251.361 139.307 251.361ZM139.307 249.202C139.763 249.202 140.146 249.076 140.458 248.825C140.782 248.561 141.022 248.195 141.178 247.727C141.346 247.259 141.43 246.708 141.43 246.072C141.43 245.436 141.346 244.885 141.178 244.417C141.022 243.949 140.782 243.59 140.458 243.338C140.146 243.074 139.763 242.942 139.307 242.942C138.851 242.942 138.461 243.074 138.137 243.338C137.826 243.59 137.586 243.949 137.418 244.417C137.262 244.885 137.184 245.436 137.184 246.072C137.184 246.708 137.262 247.259 137.418 247.727C137.586 248.195 137.826 248.561 138.137 248.825C138.461 249.076 138.851 249.202 139.307 249.202ZM156.422 251.109V237.779H159.084V243.572H159.138L163.546 237.779H166.478L162.413 243.032L167.198 251.109H164.284L160.829 245.119L159.084 247.367V251.109H156.422Z" fill="white"/>
<path d="M145.009 253.898V252.369H154.706V253.898H145.009Z" fill="#FFB547"/>
<path d="M88.9306 293.527C88.9306 294.822 89.8661 295.596 91.1254 295.596C92.3847 295.596 93.3382 294.822 93.3382 293.527C93.3382 292.232 92.3847 291.476 91.1254 291.476C89.8661 291.476 88.9306 292.232 88.9306 293.527ZM92.3308 297.467V299.734C93.626 299.68 94.8854 299.572 96.0907 299.428L96.2886 301.137C92.8345 301.785 89.1465 301.785 86.358 301.767L86.0702 299.842C87.2396 299.842 88.5888 299.842 89.9741 299.824V297.485C88.0131 297.071 86.6279 295.542 86.6279 293.527C86.6279 291.153 88.5708 289.443 91.1254 289.443C93.698 289.443 95.6409 291.153 95.6409 293.527C95.6409 295.524 94.2737 297.035 92.3308 297.467ZM101.506 294.984V296.945H99.3289V305.041H96.9542V288.472H99.3289V294.984H101.506ZM114.151 288.472H116.526V305.095H114.151V288.472ZM107.621 289.641C110.122 289.641 111.975 291.908 111.975 295.542C111.975 299.194 110.122 301.479 107.621 301.479C105.12 301.479 103.267 299.194 103.267 295.542C103.267 291.908 105.12 289.641 107.621 289.641ZM107.621 291.782C106.398 291.782 105.552 293.095 105.552 295.542C105.552 298.007 106.398 299.32 107.621 299.32C108.844 299.32 109.69 298.007 109.69 295.542C109.69 293.095 108.844 291.782 107.621 291.782ZM132.752 296.136V298.025H121.094V289.857H132.626V291.782H123.469V296.136H132.752ZM119.349 301.137H134.353V303.08H119.349V301.137ZM139.802 291.584V295.974H146.944V291.584H139.802ZM144.57 301.209H150.902V303.134H135.899V301.209H142.195V297.845H137.482V289.713H149.265V297.845H144.57V301.209ZM158.637 299.338V295.668H155.308V299.338H158.637ZM158.637 293.815V289.803H160.993V301.227H152.952V289.803H155.308V293.815H158.637ZM167.83 294.661V296.639H165.419V305.059H163.044V288.508H165.419V294.661H167.83ZM182.76 288.49V296.783H180.367V288.49H182.76ZM171.534 292.754C171.534 293.941 172.452 294.625 173.675 294.625C174.898 294.625 175.78 293.941 175.78 292.754C175.78 291.584 174.898 290.883 173.675 290.883C172.452 290.883 171.534 291.584 171.534 292.754ZM178.083 292.754C178.083 294.966 176.194 296.55 173.675 296.55C171.138 296.55 169.231 294.966 169.231 292.754C169.231 290.559 171.138 288.976 173.675 288.976C176.194 288.976 178.083 290.559 178.083 292.754ZM174.089 303.026H183.174V304.861H171.732V300.291H180.403V299.284H171.714V297.467H182.76V301.983H174.089V303.026Z" fill="white"/>
<rect x="391" y="193.25" width="140.066" height="208.171" rx="16.7051" transform="rotate(-15 391 193.25)" fill="#002554"/>
<path d="M491.965 247.348L442.316 260.652C434.775 262.672 430.3 270.423 432.321 277.964L437.543 297.453C439.864 306.114 449.558 310.453 457.563 306.415L504.44 282.768C510.418 279.753 513.46 272.957 511.727 266.489L509.277 257.343C507.256 249.803 499.505 245.328 491.965 247.348Z" stroke="white" stroke-width="2.57001"/>
<path d="M441.921 274.061C441.554 272.69 442.367 271.28 443.738 270.913L476.01 262.266C477.381 261.898 478.79 262.712 479.158 264.083L483.336 279.677C483.638 280.805 483.142 281.994 482.129 282.574L452.133 299.713C450.669 300.549 448.811 299.775 448.375 298.147L441.921 274.061Z" fill="url(#paint0_linear_39_21)"/>
<path d="M442.586 276.543L454.998 273.217" stroke="black" stroke-width="0.257001"/>
<path d="M466.168 270.227L479.821 266.568" stroke="black" stroke-width="0.257001"/>
<path d="M443.916 281.508L456.328 278.182" stroke="black" stroke-width="0.257001"/>
<path d="M467.498 275.188L481.151 271.529" stroke="black" stroke-width="0.257001"/>
<path d="M445.246 286.473L457.658 283.147" stroke="black" stroke-width="0.257001"/>
<path d="M468.828 280.152L482.482 276.494" stroke="black" stroke-width="0.257001"/>
<path d="M453.668 268.25L460.652 294.316" stroke="black" stroke-width="0.257001"/>
<path d="M464.838 265.258L471.157 288.841" stroke="black" stroke-width="0.257001"/>
<path d="M553.173 220.593C555.27 213.813 562.465 210.016 569.246 212.112L678.157 245.781C684.937 247.877 688.734 255.073 686.638 261.853L664.467 333.569C662.371 340.349 655.176 344.147 648.395 342.051L539.484 308.381C532.704 306.285 528.907 299.09 531.003 292.309L553.173 220.593Z" fill="#3A80E9"/>
<circle cx="547.217" cy="292.194" r="8.58792" transform="rotate(17.1787 547.217 292.194)" fill="white"/>
<path d="M551.834 271.449V271.449C562.887 277.299 568.215 290.185 564.521 302.132L563.787 304.508" stroke="white" stroke-width="7.71004" stroke-linecap="round"/>
<path d="M559.93 260.77V260.77C576.659 269.616 584.726 289.114 579.137 307.194L578.048 310.716" stroke="white" stroke-width="7.71004" stroke-linecap="round"/>
</g>
<defs>
<linearGradient id="paint0_linear_39_21" x1="436.822" y1="267.445" x2="473.506" y2="283.336" gradientUnits="userSpaceOnUse">
<stop stop-color="#FFE3B9"/>
<stop offset="0.681239" stop-color="#FFDAA4"/>
<stop offset="1" stop-color="#FFFA8D"/>
</linearGradient>
<clipPath id="clip0_39_21">
<rect width="722" height="324" rx="20" fill="white"/>
</clipPath>
</defs>
</svg>
