<svg width="400" height="400" viewBox="0 0 400 400" fill="none" xmlns="http://www.w3.org/2000/svg">
<path d="M89.8012 313.499L294.734 313.499C297.451 313.499 299.677 315.921 299.677 318.879C299.677 337.899 285.384 353.465 267.908 353.465L116.627 353.465C99.1515 353.465 84.8585 337.899 84.8585 318.88C84.8585 315.921 87.0838 313.499 89.8012 313.499Z" fill="#FFAF00"/>
<path d="M119.842 236.217H91.6898C88.9206 236.217 86.6763 234.048 86.6763 231.372V226.118C86.6763 223.442 88.9206 221.273 91.6898 221.273H119.842C122.612 221.273 124.856 223.442 124.856 226.118V231.372C124.856 234.048 122.612 236.217 119.842 236.217Z" fill="#36671B"/>
<path d="M118.079 235.831L89.9261 235.936C87.157 235.947 84.9046 233.786 84.8946 231.11L84.875 225.856C84.865 223.18 87.1012 221.003 89.8704 220.993L118.023 220.888C120.792 220.878 123.044 223.038 123.054 225.714L123.074 230.968C123.084 233.644 120.848 235.821 118.079 235.831Z" fill="#36671B"/>
<path d="M162.31 235.831L134.157 235.936C131.388 235.947 129.136 233.786 129.126 231.11L129.106 225.856C129.096 223.18 131.332 221.003 134.101 220.993L162.254 220.888C165.023 220.878 167.275 223.038 167.285 225.714L167.305 230.968C167.315 233.644 165.079 235.821 162.31 235.831Z" fill="#36671B"/>
<path d="M206.54 235.831L178.387 235.936C175.618 235.947 173.366 233.786 173.356 231.11L173.336 225.856C173.326 223.18 175.562 221.003 178.331 220.993L206.484 220.888C209.253 220.878 211.505 223.038 211.515 225.714L211.535 230.968C211.545 233.644 209.309 235.821 206.54 235.831Z" fill="#36671B"/>
<path d="M250.768 235.831L222.616 235.936C219.846 235.947 217.594 233.786 217.584 231.11L217.564 225.856C217.554 223.18 219.791 221.003 222.56 220.993L250.712 220.888C253.481 220.878 255.734 223.038 255.744 225.714L255.763 230.968C255.773 233.644 253.537 235.821 250.768 235.831Z" fill="#36671B"/>
<path d="M292.862 235.831L264.709 235.936C261.94 235.947 259.688 233.786 259.678 231.11L259.658 225.856C259.648 223.18 261.884 221.003 264.654 220.993L292.806 220.888C295.575 220.878 297.828 223.038 297.838 225.714L297.857 230.968C297.867 233.644 295.631 235.821 292.862 235.831Z" fill="#36671B"/>
<ellipse cx="98.0383" cy="250.901" rx="14.1785" ry="9.68229" fill="#40A808"/>
<ellipse cx="120.594" cy="250.901" rx="14.1785" ry="9.68229" fill="#40A808"/>
<ellipse cx="145.085" cy="250.901" rx="14.1785" ry="9.68229" fill="#40A808"/>
<ellipse cx="169.574" cy="250.901" rx="14.1785" ry="9.68229" fill="#40A808"/>
<ellipse cx="194.066" cy="250.901" rx="14.1785" ry="9.68229" fill="#40A808"/>
<ellipse cx="218.555" cy="250.901" rx="14.1785" ry="9.68229" fill="#40A808"/>
<ellipse cx="240.916" cy="250.901" rx="14.1785" ry="9.68229" fill="#40A808"/>
<ellipse cx="263.28" cy="250.901" rx="14.1785" ry="9.68229" fill="#40A808"/>
<ellipse cx="285.643" cy="250.901" rx="14.1785" ry="9.68229" fill="#40A808"/>
<path d="M294.037 285.755L89.6159 286.517C85.3738 286.533 81.9227 283.223 81.9074 279.124L81.8876 273.813C81.8723 269.714 85.2986 266.378 89.5407 266.362L293.962 265.599C298.204 265.584 301.655 268.894 301.671 272.993L301.69 278.304C301.706 282.403 298.279 285.739 294.037 285.755Z" fill="#AB3C00"/>
<path d="M297.32 299.984L86.2459 300.771C83.8409 300.78 81.8842 298.903 81.8756 296.579C81.8669 294.255 83.8095 292.364 86.2145 292.355L297.288 291.567C299.693 291.558 301.65 293.435 301.659 295.759C301.667 298.083 299.725 299.975 297.32 299.984Z" fill="#FF6200"/>
</svg>
