<svg width="198" height="258" viewBox="0 0 198 258" fill="none" xmlns="http://www.w3.org/2000/svg">
<path d="M22.3593 138.534L164.295 41.309C166.177 40.0198 166.571 37.2885 165.169 35.2423C156.158 22.087 138.883 18.1013 126.78 26.3923L22.0032 98.1636C9.89951 106.455 7.37533 124.002 16.3866 137.158C17.7883 139.204 20.4773 139.824 22.3593 138.534Z" fill="#FFAF00"/>
<path d="M190.482 224.27L18.6673 224.27C16.3891 224.27 14.5234 226.301 14.5234 228.781C14.5234 244.727 26.5066 257.777 41.1583 257.777L167.991 257.777C182.643 257.777 194.626 244.727 194.626 228.781C194.626 226.301 192.76 224.27 190.482 224.27Z" fill="#FFAF00"/>
<path d="M165.296 159.489H188.899C191.22 159.489 193.102 157.671 193.102 155.427V151.023C193.102 148.779 191.22 146.961 188.899 146.961H165.296C162.974 146.961 161.092 148.779 161.092 151.023V155.427C161.092 157.671 162.974 159.489 165.296 159.489Z" fill="#36671B"/>
<path d="M166.775 159.167L190.377 159.255C192.699 159.263 194.587 157.452 194.596 155.209L194.612 150.804C194.621 148.56 192.746 146.735 190.424 146.727L166.821 146.638C164.5 146.63 162.611 148.441 162.603 150.685L162.587 155.089C162.578 157.333 164.453 159.158 166.775 159.167Z" fill="#36671B"/>
<path d="M129.692 159.167L153.294 159.255C155.616 159.263 157.504 157.452 157.513 155.209L157.529 150.804C157.538 148.56 155.663 146.735 153.341 146.727L129.738 146.638C127.417 146.63 125.528 148.441 125.52 150.685L125.503 155.089C125.495 157.333 127.37 159.158 129.692 159.167Z" fill="#36671B"/>
<path d="M92.61 159.167L116.213 159.255C118.535 159.263 120.423 157.452 120.431 155.209L120.448 150.804C120.456 148.56 118.581 146.735 116.26 146.727L92.6568 146.638C90.3351 146.63 88.4468 148.441 88.4384 150.685L88.422 155.089C88.4136 157.333 90.2884 159.158 92.61 159.167Z" fill="#36671B"/>
<path d="M55.528 159.167L79.1309 159.255C81.4525 159.263 83.3409 157.452 83.3493 155.209L83.3657 150.804C83.3741 148.56 81.4993 146.735 79.1776 146.727L55.5747 146.638C53.2531 146.63 51.3647 148.441 51.3564 150.685L51.3399 155.089C51.3316 157.333 53.2063 159.158 55.528 159.167Z" fill="#36671B"/>
<path d="M20.237 159.167L43.8398 159.255C46.1615 159.263 48.0499 157.452 48.0583 155.209L48.0747 150.804C48.0831 148.56 46.2083 146.735 43.8866 146.727L20.2837 146.638C17.9621 146.63 16.0737 148.441 16.0653 150.685L16.0489 155.089C16.0405 157.333 17.9153 159.158 20.237 159.167Z" fill="#36671B"/>
<ellipse cx="11.8872" cy="8.11757" rx="11.8872" ry="8.11757" transform="matrix(-1 0 0 1 195.463 163.68)" fill="#40A808"/>
<ellipse cx="11.8872" cy="8.11757" rx="11.8872" ry="8.11757" transform="matrix(-1 0 0 1 176.552 163.68)" fill="#40A808"/>
<ellipse cx="11.8872" cy="8.11757" rx="11.8872" ry="8.11757" transform="matrix(-1 0 0 1 156.02 163.68)" fill="#40A808"/>
<ellipse cx="11.8872" cy="8.11757" rx="11.8872" ry="8.11757" transform="matrix(-1 0 0 1 135.487 163.68)" fill="#40A808"/>
<ellipse cx="11.8872" cy="8.11757" rx="11.8872" ry="8.11757" transform="matrix(-1 0 0 1 114.954 163.68)" fill="#40A808"/>
<ellipse cx="11.8872" cy="8.11757" rx="11.8872" ry="8.11757" transform="matrix(-1 0 0 1 94.4229 163.68)" fill="#40A808"/>
<ellipse cx="11.8872" cy="8.11757" rx="11.8872" ry="8.11757" transform="matrix(-1 0 0 1 75.6748 163.68)" fill="#40A808"/>
<ellipse cx="11.8872" cy="8.11757" rx="11.8872" ry="8.11757" transform="matrix(-1 0 0 1 56.9268 163.68)" fill="#40A808"/>
<ellipse cx="11.8872" cy="8.11757" rx="11.8872" ry="8.11757" transform="matrix(-1 0 0 1 38.1758 163.68)" fill="#40A808"/>
<path d="M19.2518 201.02L190.638 201.659C194.194 201.673 197.087 198.897 197.1 195.46L197.117 191.008C197.13 187.571 194.257 184.774 190.701 184.761L19.3149 184.122C15.7583 184.108 12.8649 186.884 12.8521 190.321L12.8355 194.773C12.8227 198.21 15.6953 201.007 19.2518 201.02Z" fill="#AB3C00"/>
<path d="M16.4999 212.949L193.463 213.609C195.479 213.616 197.12 212.043 197.127 210.094C197.134 208.146 195.506 206.56 193.489 206.553L16.5262 205.893C14.5099 205.885 12.8694 207.459 12.8621 209.407C12.8549 211.355 14.4836 212.941 16.4999 212.949Z" fill="#FF6200"/>
<path d="M97.8176 -0.00052365L81.4121 11.2539L116.533 62.4489L132.938 51.1944L97.8176 -0.00052365Z" fill="white"/>
<path d="M68.3986 20.1831L51.9932 31.4375L87.1138 82.6324L103.519 71.378L68.3986 20.1831Z" fill="white"/>
<path d="M98.4896 21.6106L91.7041 26.2656L106.235 47.4477L113.021 42.7927L98.4896 21.6106Z" fill="black"/>
<path d="M69.0717 41.7864L62.2861 46.4414L76.8174 67.6234L83.6029 62.9684L69.0717 41.7864Z" fill="black"/>
</svg>
