<svg width="400" height="400" viewBox="0 0 400 400" fill="none" xmlns="http://www.w3.org/2000/svg">
<path d="M290.331 211.239L121.036 95.2732C118.791 93.7354 118.322 90.4776 119.994 88.037C130.742 72.346 151.346 67.592 165.783 77.4811L290.756 163.087C305.192 172.976 308.203 193.906 297.455 209.597C295.783 212.038 292.576 212.777 290.331 211.239Z" fill="#FFAF00"/>
<path d="M200.327 45.9981L219.895 59.4219L178.004 120.485L158.436 107.061L200.327 45.9981Z" fill="white"/>
<path d="M235.416 70.0723L254.984 83.4961L213.094 144.559L193.526 131.135L235.416 70.0723Z" fill="white"/>
<path d="M199.525 71.7758L207.619 77.3281L190.286 102.593L182.193 97.0408L199.525 71.7758Z" fill="black"/>
<path d="M234.614 95.8423L242.707 101.395L225.375 126.66L217.281 121.107L234.614 95.8423Z" fill="black"/>
</svg>
