<svg width="187" height="232" viewBox="0 0 187 232" fill="none" xmlns="http://www.w3.org/2000/svg">
<path d="M47.2767 0H16.0508V180.373H47.2767V0Z" fill="#FFAF00"/>
<path d="M87.7748 39.1562H56.5488V180.377H87.7748V39.1562Z" fill="#FFAF00"/>
<path d="M126.201 0H94.9746V180.373H126.201V0Z" fill="#FFAF00"/>
<path d="M169.856 22.8359H138.63V180.37H169.856V22.8359Z" fill="#FFAF00"/>
<path d="M169.86 231.794H15.0685L0 129.258H187L169.86 231.794Z" fill="#F00028"/>
<path d="M84.4614 139.007L65.4424 139.078L65.6638 198.429L84.6828 198.358L84.4614 139.007Z" fill="white"/>
<path d="M50.3549 139.132L31.3359 139.203L31.5574 198.554L50.5764 198.483L50.3549 139.132Z" fill="white"/>
<path d="M73.3714 156.443L65.5049 156.473L65.5965 181.029L73.463 181L73.3714 156.443Z" fill="black"/>
<path d="M39.2679 156.568L31.4014 156.598L31.493 181.154L39.3595 181.125L39.2679 156.568Z" fill="black"/>
</svg>
