<svg width="297" height="297" viewBox="0 0 297 297" fill="none" xmlns="http://www.w3.org/2000/svg">
<g clip-path="url(#clip0_105_1586)">
<g clip-path="url(#clip1_105_1586)">
<path d="M200.804 168.663H222.124C222.323 168.663 222.449 168.565 222.522 168.482C222.594 168.399 222.673 168.262 222.648 168.067L219.37 142.381C219.208 141.095 220.115 139.917 221.401 139.754C222.684 139.588 223.866 140.498 224.028 141.785L227.306 167.47C227.497 168.959 227.035 170.459 226.045 171.586C225.055 172.714 223.624 173.357 222.124 173.357H200.804" fill="#E4E4E4"/>
<path d="M221.809 151.662C227.811 151.662 232.676 146.797 232.676 140.796C232.676 134.795 227.811 129.93 221.809 129.93C215.808 129.93 210.943 134.795 210.943 140.796C210.943 146.797 215.808 151.662 221.809 151.662Z" fill="#E4E4E4"/>
</g>
<g clip-path="url(#clip2_105_1586)">
<path d="M105.224 170.987H83.9033C83.7046 170.987 83.5781 170.889 83.5058 170.806C83.4336 170.723 83.3541 170.586 83.3793 170.391L86.6569 144.705C86.8195 143.419 85.9125 142.241 84.626 142.078C83.3432 141.912 82.1616 142.823 81.999 144.109L78.7214 169.795C78.5299 171.283 78.9924 172.783 79.9826 173.91C80.9727 175.038 82.4037 175.681 83.9033 175.681H105.224" fill="#E4E4E4"/>
<path d="M84.2179 153.986C78.2167 153.986 73.3517 149.121 73.3517 143.12C73.3517 137.119 78.2167 132.254 84.2179 132.254C90.2191 132.254 95.084 137.119 95.084 143.12C95.084 149.121 90.2191 153.986 84.2179 153.986Z" fill="#E4E4E4"/>
</g>
<path d="M308.67 225.003C293.368 225.003 285.914 211.301 279.943 200.299C274.08 189.49 270.108 182.87 262.899 182.87C255.69 182.87 251.732 189.49 245.856 200.299C239.871 211.301 232.431 225.003 217.129 225.003C201.826 225.003 194.386 211.301 188.401 200.299C182.539 189.49 178.567 182.87 171.358 182.87C164.149 182.87 160.19 189.49 154.314 200.299C148.33 211.301 140.889 225.003 125.587 225.003C110.285 225.003 102.844 211.301 96.8595 200.299C90.997 189.49 87.0252 182.87 79.8162 182.87C72.6071 182.87 68.6489 189.49 62.7729 200.299C56.788 211.301 49.3613 225.003 34.0454 225.003C18.7295 225.003 11.3028 211.301 5.31795 200.299C-0.517316 189.49 -4.4755 182.87 -11.6846 182.87V167.961C3.6177 167.961 11.058 181.662 17.0429 192.665C22.9054 203.474 26.8635 210.094 34.0726 210.094C41.2817 210.094 45.2399 203.474 51.1159 192.665C57.0872 181.662 64.5275 167.961 79.8298 167.961C95.1321 167.961 102.572 181.662 108.557 192.665C114.42 203.474 118.391 210.094 125.601 210.094C132.81 210.094 136.768 203.474 142.644 192.665C148.629 181.662 156.069 167.961 171.371 167.961C186.674 167.961 194.114 181.662 200.099 192.665C205.961 203.474 209.933 210.094 217.142 210.094C224.351 210.094 228.309 203.474 234.185 192.665C240.17 181.662 247.611 167.961 262.913 167.961C278.215 167.961 285.669 181.662 291.64 192.665C297.503 203.474 301.475 210.094 308.684 210.094V225.003H308.67Z" fill="#F00028"/>
<path d="M103.958 111.862L205.098 92.1733C206.44 91.9122 207.305 90.5044 207.021 89.0463C205.197 79.6721 196.649 73.3732 188.024 75.0522L113.363 89.5864C104.738 91.2654 99.1772 100.311 101.002 109.685C101.286 111.143 102.617 112.123 103.958 111.862Z" fill="#FFAF00"/>
<path d="M205.08 165.404L102.177 165.404C100.813 165.404 99.6953 166.621 99.6953 168.106C99.6953 177.657 106.872 185.473 115.647 185.473L191.61 185.473C200.385 185.473 207.562 177.657 207.562 168.106C207.562 166.621 206.444 165.404 205.08 165.404Z" fill="#FFAF00"/>
<path d="M171.989 126.593H184.96C186.236 126.593 187.27 125.504 187.27 124.161V121.523C187.27 120.179 186.236 119.09 184.96 119.09H171.989C170.714 119.09 169.68 120.179 169.68 121.523V124.161C169.68 125.504 170.714 126.593 171.989 126.593Z" fill="#36671B"/>
<path d="M190.88 126.398L205.016 126.451C206.407 126.456 207.538 125.371 207.543 124.028L207.552 121.39C207.557 120.046 206.435 118.953 205.044 118.948L190.908 118.895C189.517 118.89 188.386 119.975 188.381 121.318L188.372 123.956C188.367 125.3 189.489 126.393 190.88 126.398Z" fill="#36671B"/>
<path d="M168.67 126.398L182.806 126.451C184.197 126.456 185.328 125.371 185.333 124.028L185.342 121.39C185.347 120.046 184.225 118.953 182.834 118.948L168.698 118.895C167.308 118.89 166.177 119.975 166.172 121.318L166.162 123.956C166.157 125.3 167.28 126.393 168.67 126.398Z" fill="#36671B"/>
<path d="M146.461 126.398L160.597 126.451C161.988 126.456 163.119 125.371 163.124 124.028L163.134 121.39C163.139 120.046 162.016 118.953 160.625 118.948L146.489 118.895C145.099 118.89 143.968 119.975 143.963 121.318L143.953 123.956C143.948 125.3 145.071 126.393 146.461 126.398Z" fill="#36671B"/>
<path d="M124.254 126.398L138.39 126.451C139.781 126.456 140.912 125.371 140.917 124.028L140.926 121.39C140.931 120.046 139.809 118.953 138.418 118.948L124.282 118.895C122.891 118.89 121.761 119.975 121.756 121.318L121.746 123.956C121.741 125.3 122.864 126.393 124.254 126.398Z" fill="#36671B"/>
<path d="M103.117 126.398L117.253 126.451C118.644 126.456 119.775 125.371 119.78 124.028L119.79 121.39C119.795 120.046 118.672 118.953 117.281 118.948L103.145 118.895C101.755 118.89 100.624 119.975 100.619 121.318L100.609 123.956C100.604 125.3 101.727 126.393 103.117 126.398Z" fill="#36671B"/>
<ellipse cx="7.11943" cy="4.86176" rx="7.11943" ry="4.86176" transform="matrix(-1 0 0 1 208.063 129.102)" fill="#40A808"/>
<ellipse cx="7.11943" cy="4.86176" rx="7.11943" ry="4.86176" transform="matrix(-1 0 0 1 196.737 129.102)" fill="#40A808"/>
<ellipse cx="7.11943" cy="4.86176" rx="7.11943" ry="4.86176" transform="matrix(-1 0 0 1 184.44 129.102)" fill="#40A808"/>
<ellipse cx="7.11943" cy="4.86176" rx="7.11943" ry="4.86176" transform="matrix(-1 0 0 1 172.144 129.102)" fill="#40A808"/>
<ellipse cx="7.11943" cy="4.86176" rx="7.11943" ry="4.86176" transform="matrix(-1 0 0 1 159.846 129.102)" fill="#40A808"/>
<ellipse cx="7.11943" cy="4.86176" rx="7.11943" ry="4.86176" transform="matrix(-1 0 0 1 147.549 129.102)" fill="#40A808"/>
<ellipse cx="7.11943" cy="4.86176" rx="7.11943" ry="4.86176" transform="matrix(-1 0 0 1 136.32 129.102)" fill="#40A808"/>
<ellipse cx="7.11943" cy="4.86176" rx="7.11943" ry="4.86176" transform="matrix(-1 0 0 1 125.091 129.102)" fill="#40A808"/>
<ellipse cx="7.11943" cy="4.86176" rx="7.11943" ry="4.86176" transform="matrix(-1 0 0 1 113.862 129.102)" fill="#40A808"/>
<path d="M102.526 151.462L205.172 151.845C207.302 151.852 209.035 150.19 209.043 148.132L209.053 145.465C209.06 143.407 207.34 141.732 205.21 141.724L102.564 141.341C100.434 141.333 98.7007 142.995 98.693 145.054L98.6831 147.72C98.6754 149.779 100.396 151.454 102.526 151.462Z" fill="#AB3C00"/>
<path d="M100.878 158.608L206.864 159.003C208.072 159.008 209.054 158.065 209.059 156.898C209.063 155.731 208.087 154.782 206.88 154.777L100.894 154.382C99.6859 154.377 98.7034 155.319 98.6991 156.486C98.6947 157.653 99.6702 158.603 100.878 158.608Z" fill="#FF6200"/>
<path d="M164.786 84.8314C168.556 84.1221 172.141 86.8786 172.792 90.9873L159.138 93.5564C158.487 89.4477 161.017 85.5408 164.786 84.8314Z" fill="white"/>
<path d="M165.434 88.9121C167.17 88.5854 168.822 89.854 169.122 91.748L162.834 92.9312C162.532 91.0376 163.698 89.2388 165.434 88.9121Z" fill="black"/>
<path d="M150.527 87.5072C154.297 86.7979 157.881 89.5543 158.532 93.6631L144.879 96.2322C144.228 92.1235 146.757 88.2166 150.527 87.5072Z" fill="white"/>
<path d="M151.174 91.5996C152.911 91.2729 154.562 92.5415 154.862 94.4355L148.574 95.6187C148.274 93.7248 149.438 91.9263 151.174 91.5996Z" fill="black"/>
</g>
<defs>
<clipPath id="clip0_105_1586">
<rect width="297" height="297" fill="white"/>
</clipPath>
<clipPath id="clip1_105_1586">
<rect width="31.8721" height="43.432" fill="white" transform="translate(200.804 129.93)"/>
</clipPath>
<clipPath id="clip2_105_1586">
<rect width="31.8721" height="43.432" fill="white" transform="matrix(-1 0 0 1 105.224 132.254)"/>
</clipPath>
</defs>
</svg>
