<svg width="297" height="297" viewBox="0 0 297 297" fill="none" xmlns="http://www.w3.org/2000/svg">
<path d="M73.3451 128.742L191.764 105.69C193.334 105.384 194.347 103.736 194.015 102.029C191.879 91.0531 181.871 83.6781 171.773 85.6439L84.3566 102.661C74.2584 104.627 67.748 115.217 69.8846 126.193C70.2169 127.9 71.7749 129.048 73.3451 128.742Z" fill="#FFAF00"/>
<path d="M191.743 191.433L71.2613 191.433C69.6637 191.433 68.3555 192.857 68.3555 194.597C68.3555 205.778 76.7585 214.93 87.0326 214.93L175.972 214.93C186.246 214.93 194.649 205.778 194.649 194.597C194.649 192.858 193.34 191.433 191.743 191.433Z" fill="#FFAF00"/>
<path d="M155.505 145.984L170.691 145.985C172.185 145.985 173.396 144.709 173.396 143.136L173.396 140.048C173.396 138.474 172.185 137.199 170.691 137.199L155.505 137.199C154.011 137.199 152.801 138.474 152.801 140.048L152.801 143.136C152.801 144.709 154.011 145.984 155.505 145.984Z" fill="#36671B"/>
<path d="M175.117 145.748L191.668 145.809C193.296 145.815 194.62 144.545 194.626 142.972L194.638 139.883C194.644 138.31 193.329 137.03 191.701 137.024L175.15 136.962C173.522 136.956 172.198 138.226 172.192 139.8L172.18 142.888C172.174 144.462 173.489 145.742 175.117 145.748Z" fill="#36671B"/>
<path d="M149.113 145.752L165.664 145.813C167.292 145.819 168.617 144.549 168.622 142.976L168.634 139.887C168.64 138.314 167.325 137.034 165.697 137.028L149.146 136.966C147.518 136.96 146.194 138.23 146.188 139.804L146.176 142.892C146.171 144.466 147.485 145.745 149.113 145.752Z" fill="#36671B"/>
<path d="M123.11 145.752L139.661 145.813C141.289 145.819 142.614 144.549 142.619 142.976L142.631 139.887C142.637 138.314 141.322 137.034 139.694 137.028L123.143 136.966C121.515 136.96 120.191 138.23 120.185 139.804L120.174 142.892C120.168 144.466 121.482 145.745 123.11 145.752Z" fill="#36671B"/>
<path d="M97.1074 145.752L113.658 145.813C115.286 145.819 116.611 144.549 116.617 142.976L116.628 139.887C116.634 138.314 115.319 137.034 113.691 137.028L97.1402 136.966C95.5122 136.96 94.188 138.23 94.1821 139.804L94.1706 142.892C94.1647 144.466 95.4794 145.745 97.1074 145.752Z" fill="#36671B"/>
<path d="M72.3603 145.752L88.9114 145.813C90.5394 145.819 91.8636 144.549 91.8695 142.976L91.881 139.887C91.8868 138.314 90.5722 137.034 88.9442 137.028L72.3931 136.966C70.7651 136.96 69.4409 138.23 69.4351 139.804L69.4235 142.892C69.4177 144.466 70.7323 145.745 72.3603 145.752Z" fill="#36671B"/>
<ellipse cx="8.33563" cy="5.69229" rx="8.33563" ry="5.69229" transform="matrix(-1 -8.74228e-08 -8.74228e-08 1 195.236 148.91)" fill="#40A808"/>
<ellipse cx="8.33563" cy="5.69229" rx="8.33563" ry="5.69229" transform="matrix(-1 -8.74228e-08 -8.74228e-08 1 181.975 148.91)" fill="#40A808"/>
<ellipse cx="8.33563" cy="5.69229" rx="8.33563" ry="5.69229" transform="matrix(-1 -8.74228e-08 -8.74228e-08 1 167.577 148.914)" fill="#40A808"/>
<ellipse cx="8.33563" cy="5.69229" rx="8.33563" ry="5.69229" transform="matrix(-1 -8.74228e-08 -8.74228e-08 1 153.178 148.914)" fill="#40A808"/>
<ellipse cx="8.33563" cy="5.69229" rx="8.33563" ry="5.69229" transform="matrix(-1 -8.74228e-08 -8.74228e-08 1 138.78 148.914)" fill="#40A808"/>
<ellipse cx="8.33563" cy="5.69229" rx="8.33563" ry="5.69229" transform="matrix(-1 -8.74228e-08 -8.74228e-08 1 124.384 148.91)" fill="#40A808"/>
<ellipse cx="8.33563" cy="5.69229" rx="8.33563" ry="5.69229" transform="matrix(-1 -8.74228e-08 -8.74228e-08 1 111.236 148.914)" fill="#40A808"/>
<ellipse cx="8.33563" cy="5.69229" rx="8.33563" ry="5.69229" transform="matrix(-1 -8.74228e-08 -8.74228e-08 1 98.0898 148.91)" fill="#40A808"/>
<ellipse cx="8.33563" cy="5.69229" rx="8.33563" ry="5.69229" transform="matrix(-1 -8.74228e-08 -8.74228e-08 1 84.9414 148.91)" fill="#40A808"/>
<path d="M71.6715 175.107L191.852 175.555C194.346 175.565 196.375 173.619 196.384 171.209L196.396 168.086C196.405 165.676 194.39 163.715 191.896 163.706L71.7157 163.257C69.2217 163.248 67.1928 165.194 67.1838 167.604L67.1721 170.726C67.1631 173.137 69.1775 175.098 71.6715 175.107Z" fill="#AB3C00"/>
<path d="M69.7417 183.464L193.834 183.927C195.247 183.932 196.398 182.829 196.403 181.462C196.408 180.096 195.266 178.984 193.852 178.979L69.7602 178.516C68.3463 178.51 67.1959 179.614 67.1908 180.98C67.1857 182.347 68.3278 183.458 69.7417 183.464Z" fill="#FF6200"/>
<path d="M147.072 97.0899C151.486 96.2594 155.683 99.4868 156.445 104.297L140.459 107.305C139.697 102.495 142.659 97.9205 147.072 97.0899Z" fill="white"/>
<path d="M147.83 101.88C149.862 101.498 151.796 102.983 152.147 105.201L144.785 106.586C144.432 104.369 145.797 102.263 147.83 101.88Z" fill="black"/>
<path d="M130.377 100.234C134.791 99.4039 138.988 102.631 139.75 107.442L123.764 110.45C123.002 105.639 125.963 101.065 130.377 100.234Z" fill="white"/>
<path d="M131.134 105.017C133.167 104.635 135.101 106.12 135.452 108.337L128.089 109.723C127.738 107.505 129.101 105.4 131.134 105.017Z" fill="black"/>
<g clip-path="url(#clip0_105_1495)">
<path d="M215.21 116.43L213.627 134.352L172.763 124.72L145.778 128.358L172.964 112.697L215.21 116.43Z" fill="#F00028"/>
<path d="M219.15 138.137L221.312 113.676L212.352 112.884L210.191 137.345L219.15 138.137Z" fill="#40A808"/>
<path d="M230.013 125.67L216.33 124.461L216.138 126.64L229.82 127.849L230.013 125.67Z" fill="#40A808"/>
</g>
<defs>
<clipPath id="clip0_105_1495">
<rect width="24.5562" height="83.6742" fill="white" transform="translate(231 114.531) rotate(95.0488)"/>
</clipPath>
</defs>
</svg>
