<svg width="297" height="297" viewBox="0 0 297 297" fill="none" xmlns="http://www.w3.org/2000/svg">
<path d="M39.7671 135.302L131.409 117.462C132.624 117.226 133.408 115.95 133.151 114.629C131.498 106.135 123.753 100.428 115.938 101.949L48.2887 115.118C40.4739 116.64 35.4356 124.835 37.0891 133.329C37.3463 134.65 38.5519 135.538 39.7671 135.302Z" fill="#FFAF00"/>
<path d="M131.392 183.813L38.154 183.813C36.9177 183.813 35.9053 184.915 35.9053 186.261C35.9053 194.914 42.4082 201.996 50.3591 201.996L119.187 201.996C127.138 201.996 133.641 194.914 133.641 186.261C133.641 184.915 132.629 183.813 131.392 183.813Z" fill="#FFAF00"/>
<path d="M107.614 148.646H119.366C120.522 148.646 121.459 147.66 121.459 146.442V144.052C121.459 142.834 120.522 141.848 119.366 141.848H107.614C106.458 141.848 105.521 142.834 105.521 144.052V146.442C105.521 147.66 106.458 148.646 107.614 148.646Z" fill="#36671B"/>
<path d="M118.525 148.473L131.333 148.521C132.593 148.525 133.618 147.542 133.623 146.325L133.631 143.935C133.636 142.717 132.619 141.727 131.359 141.722L118.55 141.674C117.29 141.669 116.266 142.652 116.261 143.87L116.252 146.26C116.248 147.478 117.265 148.468 118.525 148.473Z" fill="#36671B"/>
<path d="M98.4008 148.473L111.209 148.521C112.469 148.525 113.494 147.542 113.498 146.325L113.507 143.935C113.512 142.717 112.495 141.727 111.235 141.722L98.4261 141.674C97.1663 141.669 96.1415 142.652 96.137 143.87L96.128 146.26C96.1235 147.478 97.1409 148.468 98.4008 148.473Z" fill="#36671B"/>
<path d="M78.2777 148.473L91.0862 148.521C92.3461 148.525 93.3709 147.542 93.3754 146.325L93.3844 143.935C93.3889 142.717 92.3715 141.727 91.1116 141.722L78.3031 141.674C77.0432 141.669 76.0184 142.652 76.0139 143.87L76.005 146.26C76.0004 147.478 77.0178 148.468 78.2777 148.473Z" fill="#36671B"/>
<path d="M58.1557 148.473L70.9642 148.521C72.2241 148.525 73.2488 147.542 73.2534 146.325L73.2623 143.935C73.2668 142.717 72.2494 141.727 70.9895 141.722L58.181 141.674C56.9211 141.669 55.8964 142.652 55.8918 143.87L55.8829 146.26C55.8784 147.478 56.8958 148.468 58.1557 148.473Z" fill="#36671B"/>
<path d="M39.0043 148.473L51.8128 148.521C53.0727 148.525 54.0975 147.542 54.102 146.325L54.1109 143.935C54.1155 142.717 53.0981 141.727 51.8382 141.722L39.0297 141.674C37.7698 141.669 36.745 142.652 36.7405 143.87L36.7316 146.26C36.727 147.478 37.7444 148.468 39.0043 148.473Z" fill="#36671B"/>
<ellipse cx="6.45078" cy="4.40515" rx="6.45078" ry="4.40515" transform="matrix(-1 0 0 1 134.095 150.918)" fill="#40A808"/>
<ellipse cx="6.45078" cy="4.40515" rx="6.45078" ry="4.40515" transform="matrix(-1 0 0 1 123.833 150.918)" fill="#40A808"/>
<ellipse cx="6.45078" cy="4.40515" rx="6.45078" ry="4.40515" transform="matrix(-1 0 0 1 112.689 150.918)" fill="#40A808"/>
<ellipse cx="6.45078" cy="4.40515" rx="6.45078" ry="4.40515" transform="matrix(-1 0 0 1 101.548 150.918)" fill="#40A808"/>
<ellipse cx="6.45078" cy="4.40515" rx="6.45078" ry="4.40515" transform="matrix(-1 0 0 1 90.4053 150.918)" fill="#40A808"/>
<ellipse cx="6.45078" cy="4.40515" rx="6.45078" ry="4.40515" transform="matrix(-1 0 0 1 79.2637 150.918)" fill="#40A808"/>
<ellipse cx="6.45078" cy="4.40515" rx="6.45078" ry="4.40515" transform="matrix(-1 0 0 1 69.0889 150.918)" fill="#40A808"/>
<ellipse cx="6.45078" cy="4.40515" rx="6.45078" ry="4.40515" transform="matrix(-1 0 0 1 58.916 150.918)" fill="#40A808"/>
<ellipse cx="6.45078" cy="4.40515" rx="6.45078" ry="4.40515" transform="matrix(-1 0 0 1 48.7412 150.918)" fill="#40A808"/>
<path d="M38.4696 171.189L131.475 171.536C133.405 171.543 134.975 170.037 134.982 168.172L134.991 165.756C134.998 163.891 133.439 162.373 131.509 162.366L38.5038 162.019C36.5738 162.012 35.0036 163.518 34.9967 165.383L34.9877 167.799C34.9807 169.664 36.5396 171.182 38.4696 171.189Z" fill="#AB3C00"/>
<path d="M36.9762 177.659L133.008 178.017C134.103 178.021 134.993 177.167 134.997 176.11C135.001 175.053 134.117 174.192 133.023 174.188L36.9905 173.83C35.8963 173.826 35.0061 174.679 35.0021 175.737C34.9982 176.794 35.882 177.655 36.9762 177.659Z" fill="#FF6200"/>
<path d="M101.087 110.808C104.503 110.166 107.751 112.663 108.34 116.386L95.9691 118.714C95.3794 114.991 97.671 111.451 101.087 110.808Z" fill="white"/>
<path d="M101.673 114.513C103.246 114.217 104.743 115.366 105.014 117.082L99.3166 118.154C99.0434 116.439 100.1 114.809 101.673 114.513Z" fill="black"/>
<path d="M88.1669 113.238C91.5827 112.595 94.8307 115.093 95.4205 118.816L83.0492 121.144C82.4595 117.421 84.7511 113.881 88.1669 113.238Z" fill="white"/>
<path d="M88.753 116.942C90.3262 116.646 91.8227 117.796 92.0945 119.512L86.3967 120.584C86.1248 118.868 87.1797 117.238 88.753 116.942Z" fill="black"/>
<path d="M164.062 113.206L254.83 135.058C256.034 135.347 257.277 134.513 257.592 133.204C259.618 124.792 254.945 116.382 247.204 114.519L180.199 98.388C172.459 96.5245 164.471 101.886 162.445 110.299C162.13 111.607 162.858 112.916 164.062 113.206Z" fill="#FFAF00"/>
<path d="M259.115 181.649L165.877 181.649C164.64 181.649 163.628 182.751 163.628 184.097C163.628 192.75 170.131 199.832 178.082 199.832L246.91 199.832C254.861 199.832 261.364 192.75 261.364 184.097C261.364 182.751 260.351 181.649 259.115 181.649Z" fill="#FFAF00"/>
<path d="M166.193 169.025L259.199 169.372C261.129 169.379 262.699 167.873 262.706 166.008L262.715 163.592C262.722 161.727 261.163 160.209 259.233 160.202L166.227 159.855C164.297 159.848 162.727 161.354 162.72 163.219L162.711 165.635C162.704 167.5 164.263 169.018 166.193 169.025Z" fill="#AB3C00"/>
<path d="M166.383 157.619L259.388 157.966C261.318 157.973 262.888 156.467 262.895 154.602L262.904 152.186C262.911 150.32 261.352 148.803 259.422 148.796L166.417 148.449C164.487 148.441 162.917 149.947 162.91 151.813L162.901 154.229C162.894 156.094 164.453 157.612 166.383 157.619Z" fill="#AB3C00"/>
<path d="M164.7 175.499L260.732 175.857C261.826 175.861 262.716 175.007 262.72 173.95C262.724 172.892 261.84 172.032 260.746 172.028L164.714 171.669C163.62 171.665 162.73 172.519 162.726 173.577C162.722 174.634 163.606 175.495 164.7 175.499Z" fill="#FF6200"/>
<path d="M164.701 145.772L260.733 146.13C261.827 146.134 262.717 145.281 262.721 144.223C262.725 143.166 261.841 142.305 260.747 142.301L164.715 141.943C163.621 141.939 162.731 142.793 162.727 143.85C162.723 144.907 163.607 145.768 164.701 145.772Z" fill="#F00028"/>
<path d="M215.604 119.264C218.952 120.242 220.94 123.994 220.042 127.643L207.916 124.102C208.813 120.453 212.255 118.287 215.604 119.264Z" fill="white"/>
<path d="M214.713 122.895C216.255 123.346 217.171 125.073 216.757 126.755L211.172 125.124C211.585 123.442 213.171 122.445 214.713 122.895Z" fill="black"/>
<path d="M202.941 115.569C206.289 116.547 208.276 120.299 207.379 123.948L195.253 120.407C196.15 116.758 199.592 114.591 202.941 115.569Z" fill="white"/>
<path d="M202.049 119.196C203.591 119.646 204.507 121.374 204.093 123.056L198.508 121.425C198.922 119.743 200.507 118.746 202.049 119.196Z" fill="black"/>
</svg>
