<svg width="297" height="297" viewBox="0 0 297 297" fill="none" xmlns="http://www.w3.org/2000/svg">
<g clip-path="url(#clip0_105_1444)">
<path d="M166.761 184.827C172.051 186.244 177.488 183.106 178.905 177.815C178.955 177.63 178.998 177.443 179.038 177.258L185.649 176.89C194.959 176.37 204.352 178.944 212.101 184.132L226.298 193.64L228.534 190.3L214.336 180.791C210.029 177.906 205.258 175.764 200.269 174.427C195.28 173.09 190.425 172.597 185.424 172.875L179.037 173.23C178.296 169.682 175.634 166.67 171.894 165.668C166.604 164.251 161.167 167.389 159.75 172.68C158.332 177.97 161.47 183.409 166.761 184.827Z" fill="#E4E4E4"/>
</g>
<path d="M198.123 90H183.67V180.992H198.123V90Z" fill="#FFAF00"/>
<path d="M216.868 109.754H202.415V180.995H216.868V109.754Z" fill="#FFAF00"/>
<path d="M234.655 90H220.202V180.992H234.655V90Z" fill="#FFAF00"/>
<path d="M254.861 101.52H240.407V180.99H254.861V101.52Z" fill="#FFAF00"/>
<path d="M254.863 206.93H183.216L176.241 155.203H262.796L254.863 206.93Z" fill="#F00028"/>
<path d="M215.343 160.129L206.531 160.168L206.625 190.105L215.437 190.066L215.343 160.129Z" fill="white"/>
<path d="M199.558 160.191L190.746 160.23L190.84 190.168L199.652 190.129L199.558 160.191Z" fill="white"/>
<path d="M210.206 168.921L206.562 168.938L206.6 181.324L210.245 181.308L210.206 168.921Z" fill="black"/>
<path d="M194.42 168.988L190.775 169.004L190.814 181.391L194.459 181.374L194.42 168.988Z" fill="black"/>
<g clip-path="url(#clip1_105_1444)">
<path d="M152.874 186.424C148.565 185.818 145.563 181.835 146.169 177.526C146.19 177.375 146.217 177.225 146.245 177.078L141.524 174.756C134.876 171.487 127.208 170.453 119.931 171.842L106.597 174.39L105.998 171.253L119.334 168.706C123.379 167.932 127.533 167.846 131.596 168.417C135.66 168.988 139.364 170.134 142.934 171.89L147.495 174.132C149.139 171.768 152.021 170.391 155.066 170.819C159.375 171.424 162.377 175.407 161.772 179.716C161.166 184.025 157.183 187.029 152.874 186.424Z" fill="#E4E4E4"/>
</g>
<path d="M40.073 138.146L134.679 119.729C135.934 119.485 136.744 118.168 136.478 116.804C134.771 108.036 126.776 102.144 118.708 103.714L48.8703 117.31C40.8026 118.88 35.6014 127.341 37.3083 136.11C37.5738 137.473 38.8185 138.39 40.073 138.146Z" fill="#FFAF00"/>
<path d="M134.662 188.228L38.4074 188.228C37.1311 188.228 36.0859 189.366 36.0859 190.756C36.0859 199.689 42.7992 207 51.0074 207L122.062 207C130.27 207 136.983 199.689 136.983 190.756C136.983 189.366 135.938 188.228 134.662 188.228Z" fill="#FFAF00"/>
<path d="M111.848 151.929H123.98C125.173 151.929 126.141 150.91 126.141 149.653V147.186C126.141 145.929 125.173 144.91 123.98 144.91H111.848C110.654 144.91 109.687 145.929 109.687 147.186V149.653C109.687 150.91 110.654 151.929 111.848 151.929Z" fill="#36671B"/>
<path d="M121.379 151.746L134.601 151.795C135.902 151.8 136.96 150.785 136.965 149.528L136.974 147.061C136.979 145.804 135.928 144.781 134.628 144.776L121.405 144.727C120.104 144.722 119.046 145.737 119.042 146.994L119.032 149.461C119.028 150.718 120.078 151.741 121.379 151.746Z" fill="#36671B"/>
<path d="M100.604 151.746L113.827 151.795C115.128 151.8 116.186 150.785 116.19 149.528L116.2 147.061C116.204 145.804 115.154 144.781 113.853 144.776L100.63 144.727C99.3297 144.722 98.2718 145.737 98.2672 146.994L98.2579 149.461C98.2533 150.718 99.3036 151.741 100.604 151.746Z" fill="#36671B"/>
<path d="M79.8308 151.746L93.0536 151.795C94.3543 151.8 95.4122 150.785 95.4169 149.528L95.4261 147.061C95.4308 145.804 94.3805 144.781 93.0798 144.776L79.857 144.727C78.5563 144.722 77.4984 145.737 77.4937 146.994L77.4845 149.461C77.4798 150.718 78.5301 151.741 79.8308 151.746Z" fill="#36671B"/>
<path d="M59.0564 151.746L72.2792 151.795C73.5799 151.8 74.6378 150.785 74.6425 149.528L74.6517 147.061C74.6564 145.804 73.606 144.781 72.3054 144.776L59.0825 144.727C57.7819 144.722 56.724 145.737 56.7193 146.994L56.7101 149.461C56.7054 150.718 57.7557 151.741 59.0564 151.746Z" fill="#36671B"/>
<path d="M39.2849 151.746L52.5077 151.795C53.8084 151.8 54.8663 150.785 54.871 149.528L54.8802 147.061C54.8849 145.804 53.8346 144.781 52.5339 144.776L39.3111 144.727C38.0104 144.722 36.9525 145.737 36.9478 146.994L36.9386 149.461C36.9339 150.718 37.9842 151.741 39.2849 151.746Z" fill="#36671B"/>
<ellipse cx="6.65945" cy="4.54765" rx="6.65945" ry="4.54765" transform="matrix(-1 0 0 1 137.452 154.273)" fill="#40A808"/>
<ellipse cx="6.65945" cy="4.54765" rx="6.65945" ry="4.54765" transform="matrix(-1 0 0 1 126.857 154.273)" fill="#40A808"/>
<ellipse cx="6.65945" cy="4.54765" rx="6.65945" ry="4.54765" transform="matrix(-1 0 0 1 115.355 154.273)" fill="#40A808"/>
<ellipse cx="6.65945" cy="4.54765" rx="6.65945" ry="4.54765" transform="matrix(-1 0 0 1 103.853 154.273)" fill="#40A808"/>
<ellipse cx="6.65945" cy="4.54765" rx="6.65945" ry="4.54765" transform="matrix(-1 0 0 1 92.3496 154.273)" fill="#40A808"/>
<ellipse cx="6.65945" cy="4.54765" rx="6.65945" ry="4.54765" transform="matrix(-1 0 0 1 80.8477 154.273)" fill="#40A808"/>
<ellipse cx="6.65945" cy="4.54765" rx="6.65945" ry="4.54765" transform="matrix(-1 0 0 1 70.3447 154.273)" fill="#40A808"/>
<ellipse cx="6.65945" cy="4.54765" rx="6.65945" ry="4.54765" transform="matrix(-1 0 0 1 59.8408 154.273)" fill="#40A808"/>
<ellipse cx="6.65945" cy="4.54765" rx="6.65945" ry="4.54765" transform="matrix(-1 0 0 1 49.3379 154.273)" fill="#40A808"/>
<path d="M38.7336 175.197L134.748 175.555C136.74 175.562 138.361 174.008 138.368 172.082L138.378 169.588C138.385 167.662 136.776 166.096 134.783 166.088L38.7689 165.73C36.7764 165.722 35.1555 167.277 35.1483 169.203L35.139 171.697C35.1318 173.622 36.7411 175.189 38.7336 175.197Z" fill="#AB3C00"/>
<path d="M37.1918 181.876L136.331 182.246C137.46 182.25 138.379 181.369 138.383 180.277C138.387 179.186 137.475 178.297 136.345 178.293L37.2066 177.923C36.077 177.919 35.158 178.801 35.1539 179.892C35.1498 180.984 36.0623 181.872 37.1918 181.876Z" fill="#FF6200"/>
<path d="M105.11 112.862C108.637 112.198 111.99 114.777 112.599 118.62L99.8271 121.023C99.2183 117.18 101.584 113.525 105.11 112.862Z" fill="white"/>
<path d="M105.715 116.682C107.34 116.377 108.884 117.564 109.165 119.335L103.283 120.442C103.001 118.671 104.091 116.988 105.715 116.682Z" fill="black"/>
<path d="M91.7715 115.37C95.2978 114.706 98.6509 117.284 99.2597 121.128L86.4882 123.531C85.8794 119.688 88.2452 116.033 91.7715 115.37Z" fill="white"/>
<path d="M92.3776 119.194C94.0017 118.889 95.5466 120.075 95.8272 121.847L89.9451 122.954C89.6644 121.182 90.7535 119.5 92.3776 119.194Z" fill="black"/>
<defs>
<clipPath id="clip0_105_1444">
<rect width="71.0036" height="19.8344" fill="white" transform="translate(225.765 200.637) rotate(-165)"/>
</clipPath>
<clipPath id="clip1_105_1444">
<rect width="56.4105" height="15.7579" fill="white" transform="matrix(0.990275 0.139121 0.139121 -0.990275 104.815 179.672)"/>
</clipPath>
</defs>
</svg>
