<svg width="700" height="180" viewBox="0 0 700 180" fill="none" xmlns="http://www.w3.org/2000/svg">
<path opacity="0.55" d="M509.214 136.698C452.571 63.9583 347.674 50.9074 274.935 107.55L480.065 370.977C552.805 314.335 565.856 209.438 509.214 136.698Z" fill="#6857B8"/>
<path d="M29.5358 155.403C28.9132 146.552 35.5746 138.829 44.4745 138.203C53.3743 137.577 61.048 144.242 61.6741 153.142C62.3003 162.042 55.6354 169.715 46.7355 170.341C37.8357 170.968 30.162 164.303 29.5358 155.403Z" fill="#6857B8" stroke="#6857B8" stroke-width="1.5" stroke-miterlimit="10"/>
<path d="M248.981 25.7232C248.358 16.8728 255.02 9.14962 263.92 8.52348C272.82 7.89733 280.493 14.5623 281.119 23.4621C281.746 32.3619 275.081 40.0356 266.181 40.6618C257.281 41.2879 249.607 34.623 248.981 25.7232Z" stroke="#6857B8" stroke-width="1.5" stroke-miterlimit="10"/>
<path d="M430.335 131.812L412.914 217.391" stroke="#ACB6E8" stroke-width="1.5" stroke-miterlimit="10"/>
<path d="M475.336 131.812L492.757 217.391" stroke="#ACB6E8" stroke-width="1.5" stroke-miterlimit="10"/>
<path d="M531.995 41.6797H373.672V131.092H531.995V41.6797Z" fill="white" stroke="#ACB6E8" stroke-width="1.5" stroke-linejoin="round"/>
<path d="M500.4 129.188H405.258V133.339H500.4V129.188Z" fill="#7984D1"/>
<path d="M500.4 39.6016H405.258V43.7534H500.4V39.6016Z" fill="#7984D1"/>
<path d="M478.274 111.704L476.445 112L479.384 126.686L481.213 126.389L478.274 111.704Z" fill="#8668BC"/>
<path d="M483.404 113.101L481.625 127.938L483.473 128.117L485.252 113.281L483.404 113.101Z" fill="#EF81C1"/>
<path d="M489.632 111.702L484.289 125.828L486.048 126.367L491.391 112.241L489.632 111.702Z" fill="#F98355"/>
<path d="M489.529 122.438H474.203V129.194H489.529V122.438Z" fill="#FFEAC5"/>
<path d="M474.203 124.531H479.327" stroke="black" stroke-miterlimit="10"/>
<path d="M481.633 124.531H489.521" stroke="black" stroke-miterlimit="10"/>
<path d="M477.098 99.75H452.063C450.937 99.75 450.023 100.572 450.023 101.585V111.244C450.023 112.257 450.937 113.079 452.063 113.079H477.098C478.225 113.079 479.138 112.257 479.138 111.244V101.585C479.138 100.572 478.225 99.75 477.098 99.75Z" fill="#F3F9FF"/>
<path d="M479.217 63.125H458.883V94.0231H479.217V63.125Z" fill="#F3F9FF"/>
<path d="M522.097 67.7188H487.078V116.658H522.097V67.7188Z" fill="#F3F9FF"/>
<path d="M443.443 48.0156H383.844V117.915H443.443V48.0156Z" fill="#EBEEF7"/>
<path d="M389.062 58.5224C390.038 57.9789 391.014 57.4312 391.989 56.8876C392.556 56.5699 393.234 56.2396 393.861 56.457C394.433 56.6535 394.735 57.2472 395.288 57.4813C396.835 58.1378 397.773 56.2228 399.069 55.9427C399.594 55.8298 399.571 56.1978 399.729 56.5155C399.845 56.7455 400.054 56.8793 400.328 56.9211C400.816 57.0005 401.308 56.7915 401.796 56.804C405.053 56.8793 410.418 56.8625 410.418 56.8625" stroke="white" stroke-width="1.5" stroke-linejoin="round"/>
<path d="M389.062 61.1094H403.534" stroke="white" stroke-width="1.5" stroke-linejoin="round"/>
<path d="M410.42 61.1094H406.039" stroke="white" stroke-width="1.5" stroke-linejoin="round"/>
<path d="M389.062 64.5312H410.418" stroke="white" stroke-width="1.5" stroke-linejoin="round"/>
<path d="M389.062 66.8594H410.418" stroke="white" stroke-width="1.5" stroke-linejoin="round"/>
<path d="M389.062 70.8281H401.68" stroke="white" stroke-width="1.5" stroke-linejoin="round"/>
<path d="M389.062 73.6562H405.183" stroke="white" stroke-width="1.5" stroke-linejoin="round"/>
<path d="M437.445 81.8278C437.445 82.4508 436.883 82.9525 436.195 82.9525C435.507 82.9525 434.945 82.4466 434.945 81.8278C434.945 81.209 435.507 80.7031 436.195 80.7031C436.883 80.7031 437.445 81.209 437.445 81.8278Z" fill="#FFEFE3"/>
<path d="M432.533 81.8281H411.07" stroke="#C2CAEF" stroke-width="1.5" stroke-linejoin="round"/>
<path d="M437.445 87.4997C437.445 88.1227 436.883 88.6244 436.195 88.6244C435.507 88.6244 434.945 88.1185 434.945 87.4997C434.945 86.8809 435.507 86.375 436.195 86.375C436.883 86.375 437.445 86.8809 437.445 87.4997Z" fill="#FFEFE3"/>
<path d="M432.533 87.5H411.07" stroke="#C2CAEF" stroke-width="1.5" stroke-linejoin="round"/>
<path d="M437.445 104.609C437.445 105.232 436.883 105.734 436.195 105.734C435.507 105.734 434.945 105.228 434.945 104.609C434.945 103.99 435.507 103.484 436.195 103.484C436.883 103.484 437.445 103.99 437.445 104.609Z" fill="#FFEFE3"/>
<path d="M432.533 104.609H411.07" stroke="#C2CAEF" stroke-width="1.5" stroke-linejoin="round"/>
<path d="M437.445 110.218C437.445 110.841 436.883 111.343 436.195 111.343C435.507 111.343 434.945 110.837 434.945 110.218C434.945 109.6 435.507 109.094 436.195 109.094C436.883 109.094 437.445 109.6 437.445 110.218Z" fill="#FFEFE3"/>
<path d="M432.533 110.219H411.07" stroke="#C2CAEF" stroke-width="1.5" stroke-linejoin="round"/>
<path d="M405.42 79.8125H389.477V110.932H405.42V79.8125Z" stroke="#C2CAEF" stroke-width="1.5" stroke-linejoin="round"/>
<path d="M454.435 53.8984H413.977V73.6163H454.435V53.8984Z" fill="white"/>
<path d="M451.946 55.9219H416.477V71.8685H451.946V55.9219Z" fill="#FFEFE3"/>
<path d="M450.311 61.8285L447.119 59.1484L437.354 65.5831L429.433 59.7798L416.477 65.5831V71.8045H451.946V60.9421L450.311 61.8285Z" fill="white"/>
<path d="M438.808 53.8984H454.44V73.6205H423.891" stroke="#C2CAEF" stroke-width="1.5" stroke-linejoin="round"/>
<path d="M420.518 73.6409C420.518 73.6409 413.977 73.6576 413.977 73.6409V53.9062H434.952" stroke="#C2CAEF" stroke-width="1.5" stroke-linejoin="round"/>
<path d="M452.364 59.3906V71.8042H416.477" stroke="#C2CAEF" stroke-width="1.5" stroke-linejoin="round"/>
<path d="M470.987 106.414H442.5C441.417 106.414 440.539 107.204 440.539 108.178V113.681C440.539 114.655 441.417 115.445 442.5 115.445H470.987C472.069 115.445 472.947 114.655 472.947 113.681V108.178C472.947 107.204 472.069 106.414 470.987 106.414Z" stroke="#C2CAEF" stroke-width="1.5" stroke-linejoin="round"/>
<path d="M448.297 109.844V112.704" stroke="#C2CAEF" stroke-width="1.5" stroke-linejoin="round"/>
<path d="M451.938 109.844V112.704" stroke="#C2CAEF" stroke-width="1.5" stroke-linejoin="round"/>
<path d="M454.547 110.93H468.196" stroke="#C2CAEF" stroke-width="1.5" stroke-linejoin="round"/>
<path d="M509.826 49.1016H471.843C470.829 49.1016 470.008 49.841 470.008 50.7531V56.4811C470.008 57.3933 470.829 58.1327 471.843 58.1327H509.826C510.839 58.1327 511.661 57.3933 511.661 56.4811V50.7531C511.661 49.841 510.839 49.1016 509.826 49.1016Z" stroke="#C2CAEF" stroke-width="1.5" stroke-linejoin="round"/>
<path d="M474.594 52.3359H477.678" stroke="#C2CAEF" stroke-width="1.5" stroke-linejoin="round"/>
<path d="M482.508 52.3359H507.766" stroke="#C2CAEF" stroke-width="1.5" stroke-linejoin="round"/>
<path d="M474.594 55.1094H495.494" stroke="#C2CAEF" stroke-width="1.5" stroke-linejoin="round"/>
<path d="M507.76 55.1094H499.156" stroke="#C2CAEF" stroke-width="1.5" stroke-linejoin="round"/>
<path d="M371.694 120.104C371.694 120.104 367.179 131.877 367.211 136.15C367.244 140.424 371.216 162.454 372.043 167.262C372.865 172.07 377.659 207.053 377.659 207.053H398.648L390.834 132.977C390.834 132.977 392.832 112.348 392.85 111.812" fill="#4C4139"/>
<path d="M406.976 120.105L407.608 124.462L430.302 207.059H407.529C407.529 207.059 387.154 140.856 385.955 136.83C384.756 132.803 386.991 117.016 386.991 117.016" fill="#4C4139"/>
<path d="M391.316 207.055C391.316 207.055 380.353 138.004 380.306 135.007C380.26 132.009 381.337 123.734 381.337 123.734" stroke="#70635B" stroke-miterlimit="10"/>
<path d="M423.508 207.201C423.508 207.201 402.914 126.042 402.914 125.691V123.5" stroke="#70635B" stroke-miterlimit="10"/>
<path d="M393.972 162.985L392.211 133.078" stroke="black" stroke-miterlimit="10"/>
<path d="M407.428 123.188H370.453" stroke="black" stroke-miterlimit="10"/>
<path d="M396.203 123.191V119.812" stroke="black" stroke-miterlimit="10"/>
<path d="M404.892 123.193L404.391 120.078" stroke="black" stroke-miterlimit="10"/>
<path d="M394.329 122.442C394.778 122.442 395.142 122.108 395.142 121.697C395.142 121.286 394.778 120.953 394.329 120.953C393.88 120.953 393.516 121.286 393.516 121.697C393.516 122.108 393.88 122.442 394.329 122.442Z" fill="black"/>
<path d="M388.938 123.191L389.425 119.812" stroke="black" stroke-miterlimit="10"/>
<path d="M378.258 123.191L378.746 119.812" stroke="black" stroke-miterlimit="10"/>
<path d="M378.391 129.195C380.746 129.776 383.064 130.458 385.345 131.236" stroke="black" stroke-miterlimit="10"/>
<path d="M377.969 126.578C379.325 127.272 380.789 127.799 382.298 128.15" stroke="black" stroke-miterlimit="10"/>
<path d="M403.547 128.535C404.416 128.1 405.28 127.669 406.148 127.234" stroke="black" stroke-miterlimit="10"/>
<path d="M386.698 68.4973L384.784 74.9947L380.055 76.6002C380.055 76.6002 389.959 82.5583 393.388 81.7597C396.816 80.9569 401.638 76.0274 401.638 76.0274C401.638 76.0274 398.981 75.1118 398.66 74.7647C398.34 74.4219 398.66 68.0625 398.66 68.0625" fill="#F4C3AB"/>
<path d="M436.367 81.7719C438.383 80.4089 440.534 79.1797 442.885 78.3602C444.037 77.9588 445.236 77.7247 446.462 77.5909C447.126 77.5198 447.8 77.4738 448.469 77.432C448.961 77.4027 449.454 77.3651 449.946 77.3233C450.62 77.2689 451.182 77.9755 450.43 78.3226C449.119 78.9246 447.916 78.9539 447.888 79.3971C449.51 79.673 451.112 79.1922 452.715 78.8494C453.561 78.6654 454.053 78.4982 455.131 78.2348C456.269 77.9588 456.91 77.9881 457.054 78.4647C457.096 78.6027 456.738 78.9706 456.627 79.071C457.073 79.071 457.365 78.9079 457.807 78.9455C458.011 78.9623 458.225 78.9915 458.392 79.096C458.564 79.2006 458.68 79.3971 458.615 79.5727C458.587 79.6563 458.522 79.7232 458.462 79.7859C458.322 79.9364 458.183 80.0828 458.044 80.2333C458.378 80.1455 458.68 80.5134 458.62 80.8228C458.559 81.1322 458.281 81.3622 458.02 81.5712C457.793 81.751 457.57 81.9266 457.342 82.1064C457.686 81.9643 458.137 82.2904 458.062 82.6249C458.034 82.7378 457.979 82.8465 457.895 82.9301C456.469 84.314 455.345 85.1419 453.839 85.9195C452.167 86.7892 450.411 87.5251 448.539 87.9725C445.31 88.746 442.578 89.4442 439.433 90.4518" fill="#F4C3AB"/>
<path d="M447.277 80.2344C446.455 80.9786 445.465 81.564 444.383 81.9486" stroke="black" stroke-miterlimit="10"/>
<path d="M457.355 82.1406C456.905 82.1406 456.542 82.2535 456.073 82.4375C455.39 82.7051 454.563 83.1943 453.857 83.42C451.432 84.1935 448.594 83.5873 446.312 84.6618" stroke="black" stroke-miterlimit="10"/>
<path d="M458.046 80.2344C455.885 81.2922 454.153 81.7981 451.672 81.9402" stroke="black" stroke-miterlimit="10"/>
<path d="M456.619 79.0703C454.816 80.1783 452.405 80.2954 450.227 80.3706" stroke="black" stroke-miterlimit="10"/>
<path d="M400.926 75.7734C400.926 75.7734 404.476 76.3504 406.39 77.1197C410.013 78.5748 411.537 80.1343 414.366 82.1454C417.195 84.1523 421.042 87.5013 421.042 87.5013L438.287 80.3559L443.494 90.6204C443.494 90.6204 429.525 100.684 425.85 102.047C423.393 102.959 418.594 103.749 411.904 100.517C405.214 97.285 398.664 91.6699 398.664 91.6699" fill="#F49A38"/>
<path d="M411.154 86.9444L406.982 120.146H371.698L369.617 85.4768L383.113 74.6562L394.578 78.0931L400.919 75.7768L411.154 86.9444Z" fill="#F49A38"/>
<path d="M410.859 89.9145C410.827 89.8267 411.598 82.4012 409.609 78.7344" stroke="#F9BD5F" stroke-miterlimit="10"/>
<path d="M441.152 90.4632C441.491 90.4632 441.766 90.2161 441.766 89.9113C441.766 89.6065 441.491 89.3594 441.152 89.3594C440.814 89.3594 440.539 89.6065 440.539 89.9113C440.539 90.2161 440.814 90.4632 441.152 90.4632Z" fill="black"/>
<path d="M421.04 87.5L417.281 89.3104" stroke="black" stroke-miterlimit="10"/>
<path d="M435.195 81.5938L440.765 92.6945" stroke="black" stroke-miterlimit="10"/>
<path d="M442.018 87.7109L435.133 90.9387" stroke="black" stroke-miterlimit="10"/>
<path d="M365.481 142.821C368.533 142.821 370.168 137.599 371 133.719L358.651 135.684C357.406 136.963 356.129 138.264 354.535 139.071C353.783 139.451 352.974 139.714 352.189 140.02C350.359 140.726 347.023 141.45 347.023 142.817H365.476L365.481 142.821Z" fill="#F4C3AB"/>
<path d="M362.966 140.602C361.846 140.911 360.727 141.216 359.602 141.526C359.259 141.622 358.91 141.718 358.604 141.885C358.209 142.107 357.902 142.433 357.609 142.759" stroke="black" stroke-miterlimit="10"/>
<path d="M356.986 140.172C354.667 141.154 351.945 141.188 349.697 142.296C349.427 142.43 349.162 142.58 348.977 142.806" stroke="black" stroke-miterlimit="10"/>
<path d="M385.036 74.1406C385.036 74.1406 378.128 75.905 374.565 77.4729C371.002 79.0367 367.727 80.5627 365.636 88.5068C363.546 96.4508 357.172 136.685 357.172 136.685L371.954 135.673L382.56 87.2399" fill="#F49A38"/>
<path d="M357.617 133.717L372.539 132.969" stroke="black" stroke-miterlimit="10"/>
<path d="M367.625 135.924L369.126 129.062" stroke="black" stroke-miterlimit="10"/>
<path d="M369.25 80.6967C371.889 80.1699 374.588 81.4702 376.525 83.1719C379.224 85.5468 380.966 88.7955 381.347 92.1863" stroke="#F9BD5F" stroke-miterlimit="10"/>
<path d="M370.07 134.333C370.07 134.638 369.796 134.885 369.457 134.885C369.118 134.885 368.844 134.638 368.844 134.333C368.844 134.028 369.118 133.781 369.457 133.781C369.796 133.781 370.07 134.028 370.07 134.333Z" fill="black"/>
<path d="M375.367 120.114L382.164 89.0781" stroke="black" stroke-miterlimit="10"/>
<path d="M409.609 99.3169L411.161 87.6016" stroke="black" stroke-miterlimit="10"/>
<path d="M391.328 120.118L393.447 79.6406" stroke="#F9BD5F" stroke-miterlimit="10"/>
<path d="M393.531 120.118L395.65 79.6406" stroke="#F9BD5F" stroke-miterlimit="10"/>
<path d="M399.825 90.9375L399.602 92.1793H407.973L408.191 90.9375H399.825Z" fill="#F9BD5F"/>
<path d="M385.703 71.8594L382.438 74.8447L389.74 84.6743L394.586 78.0933L385.703 71.8594Z" fill="#F49A38"/>
<path d="M398.529 73.6562L394.594 78.0924L398.176 83.4985L400.935 75.7761L398.529 73.6562Z" fill="#F49A38"/>
<path d="M382.438 74.8438L389.74 84.6734L394.586 78.0924" stroke="black" stroke-miterlimit="10"/>
<path d="M394.594 78.0897L398.176 83.4959L400.935 75.7734" stroke="black" stroke-miterlimit="10"/>
<path d="M386.102 114.465C390.324 112.918 394.422 111.091 398.347 109" stroke="black" stroke-miterlimit="10"/>
<path d="M392.797 114.14C395.64 113.333 398.478 112.526 401.322 111.719" stroke="black" stroke-miterlimit="10"/>
<path d="M388.253 54.6017C390.961 53.4268 395.11 52.7077 397.293 55.9355C399.477 59.1632 401.265 63.9297 401.813 65.6146C402.362 67.2996 403.058 70.9455 397.683 71.928C392.308 72.9106 389.112 70.3852 387.319 68.4912C385.526 66.5972 379.37 58.4608 388.253 54.6059V54.6017Z" fill="#F4C3AB"/>
<path d="M385.903 65.2092C387.441 63.4532 387.506 60.7982 387.469 58.6408C389.09 59.1091 391.91 58.7286 393.527 58.2478C395.148 57.7711 396.045 57.2485 396.546 55.944C397.415 56.4248 397.954 56.73 399.009 58.9C399.473 58.1307 399.608 56.7844 399.431 55.9231C399.153 54.5433 398.409 53.6277 397.364 52.6075C396.244 51.5121 394.948 51.0814 393.322 50.9476C392.663 50.8933 390.688 51.0061 389.174 52.6075C385.968 51.972 383.762 53.4395 382.452 54.3468C380.984 55.3628 379.859 57.0812 379.529 58.7662C379.135 60.7606 379.293 63.4156 381.086 65.3932C382.433 66.8775 383.896 67.605 385.778 68.4245" fill="#4C4139"/>
<path d="M387.706 64.6218C387.186 63.5974 385.179 63.3717 384.269 64.0908C382.085 65.8134 384.84 69.4551 387.404 68.9701C388.129 68.8321 388.989 68.2551 388.91 67.5109" fill="#F4C3AB"/>
<path d="M384.93 65.9219L387.954 66.8417" stroke="black" stroke-width="0.75" stroke-miterlimit="10"/>
<path d="M385.961 63.7656C386.63 63.8492 387.271 64.1168 387.773 64.5266" stroke="black" stroke-width="0.75" stroke-miterlimit="10"/>
<path d="M384.367 67.8805C385.101 68.608 386.207 69.256 387.345 69.0219C388.135 68.8588 388.85 68.2693 388.836 67.5" stroke="black" stroke-width="0.75" stroke-miterlimit="10"/>
<path d="M392.602 71.7891C392.602 71.7891 395.538 72.7507 398.539 71.8392" stroke="black" stroke-miterlimit="10"/>
<path d="M397.023 61.5156C397.59 62.5693 398.157 63.6229 398.724 64.6723C398.803 64.8187 398.886 64.9734 398.896 65.1322C398.923 65.4584 398.649 65.6423 398.278 65.6841C397.985 65.7134 397.66 65.7176 397.437 65.5629" stroke="black" stroke-width="0.75" stroke-miterlimit="10"/>
<path d="M394.941 63.1265C395.076 63.5112 394.941 63.8916 394.649 63.9753C394.356 64.0589 394.007 63.8122 393.873 63.4275C393.738 63.0429 393.873 62.6624 394.165 62.5788C394.458 62.4952 394.807 62.7419 394.941 63.1265Z" fill="black"/>
<path d="M400.051 61.8374C400.185 62.2221 400.051 62.6026 399.758 62.6862C399.465 62.7698 399.117 62.5231 398.982 62.1385C398.847 61.7538 398.982 61.3733 399.275 61.2897C399.567 61.2061 399.916 61.4528 400.051 61.8374Z" fill="black"/>
<path d="M393.995 61.1761C393.326 60.9671 392.555 61.1385 391.979 61.5148C391.403 61.8869 390.994 62.4388 390.688 63.0116" stroke="black" stroke-miterlimit="10"/>
<path d="M397.898 60.1277C398.242 59.4839 399.613 59.4713 400.11 59.9647" stroke="black" stroke-miterlimit="10"/>
<path d="M398.54 66.7427L395.702 66.1406C395.702 66.1406 395.377 68.4026 396.631 68.6785C398.29 69.0465 398.54 66.7427 398.54 66.7427Z" fill="white"/>
<path d="M341.983 132.719V134.542H341.225C340.013 134.542 339.023 135.428 339.023 136.524V137.782C339.023 138.873 340.008 139.764 341.225 139.764H341.983V140.274C341.983 141.006 342.54 141.612 343.288 141.787V142.812H350.075V141.787C350.823 141.612 351.381 141.001 351.381 140.274V132.719H341.983ZM341.225 138.923C340.524 138.923 339.953 138.409 339.953 137.778V136.519C339.953 135.888 340.524 135.374 341.225 135.374H341.983V138.919H341.225V138.923Z" fill="#FFEAC5"/>
<path d="M350.076 141.766H343.289" stroke="#D3B88C" stroke-miterlimit="10"/>
<path d="M455.318 120.75H424.847C424.058 120.75 423.356 121.239 423.082 121.975L415.816 141.517H400.607C399.859 141.517 399.25 142.124 399.25 142.872H448.582L456.289 122.142C456.54 121.465 456.038 120.75 455.318 120.75Z" fill="#B7C8EA"/>
<path d="M450.202 142.872H416.93L424.702 121.975C424.976 121.239 425.682 120.75 426.467 120.75H456.938C457.658 120.75 458.16 121.469 457.909 122.142L450.202 142.872Z" fill="#DFE8FE"/>
<path d="M438.969 132.969C441.032 132.969 442.705 131.984 442.705 130.77C442.705 129.555 441.032 128.57 438.969 128.57C436.907 128.57 435.234 129.555 435.234 130.77C435.234 131.984 436.907 132.969 438.969 132.969Z" stroke="#B7C8EA" stroke-width="1.5" stroke-miterlimit="10"/>
<path d="M289.922 217.08V143H465.141V217.08" stroke="#7984D1" stroke-width="1.5" stroke-linejoin="round"/>
<path d="M245.628 156.171C244.917 154.603 244.787 152.831 245.354 151.008C246.525 147.261 250.636 144.598 254.738 144.422C260.949 144.159 267.616 144.586 272.559 148.328C272.601 148.357 272.642 148.39 272.684 148.42C274.552 149.845 274.7 151.2 273.409 153.073C271.695 155.552 268.341 157.806 265.716 159.395C262.97 161.059 259.797 162.242 256.555 162.238C253.372 162.234 250.315 161.025 247.965 159.119C246.924 158.274 246.13 157.271 245.623 156.163L245.628 156.171Z" fill="#9ED1A8"/>
<path d="M273.964 149.859C265.746 150.771 257.574 152.021 249.477 153.601" stroke="#D7EACA" stroke-miterlimit="10"/>
<path d="M266.5 137.156C272.744 145.686 276.929 155.436 278.676 165.529" stroke="#6E8467" stroke-width="2" stroke-miterlimit="10"/>
<path d="M277.291 159.321C276.334 150.884 278.88 142.166 284.32 135.242" stroke="#6E8467" stroke-width="2" stroke-miterlimit="10"/>
<path d="M268.298 141.896C265.478 142.025 262.328 140.942 259.731 140.035C256.289 138.835 255.067 136.025 255.699 132.852C256.103 130.816 257.743 129.039 260.112 128.784C261.868 128.596 263.652 129.21 265.023 130.21C266.895 131.573 268.214 133.487 268.99 135.524C269.385 136.556 269.645 137.635 269.761 138.722C269.84 139.491 270.309 140.838 269.575 141.461C269.227 141.753 268.781 141.879 268.298 141.9V141.896Z" fill="#9ED1A8"/>
<path d="M269.54 141.685C266.53 137.846 263.143 134.359 259.469 131.328" stroke="#D7EACA" stroke-miterlimit="10"/>
<path d="M282.802 141.076C287.187 141.264 292.079 139.563 296.116 138.141C301.463 136.26 303.345 131.882 302.341 126.948C301.696 123.783 299.136 121.028 295.452 120.643C292.72 120.359 289.951 121.321 287.824 122.884C284.92 125.013 282.885 127.998 281.687 131.163C281.078 132.773 280.679 134.449 280.512 136.138C280.391 137.334 279.675 139.429 280.818 140.395C281.357 140.851 282.054 141.039 282.807 141.072L282.802 141.076Z" fill="#9ED1A8"/>
<path d="M280.867 140.769C285.522 134.781 290.772 129.35 296.463 124.617" stroke="#D7EACA" stroke-miterlimit="10"/>
<path d="M270.234 105.992C273.542 111.499 275.549 118.443 276 124.69" stroke="#6E8467" stroke-width="2" stroke-miterlimit="10"/>
<path d="M279.162 114.094C277.461 116.272 276.82 118.973 276.398 121.611C275.52 127.13 275.445 132.754 276.184 138.29" stroke="#6E8467" stroke-width="2" stroke-miterlimit="10"/>
<path d="M268.742 85.2812C270.828 89.9181 272.44 94.7305 273.55 99.6307C274.103 102.081 274.554 104.556 274.837 107.044C275.088 109.235 274.461 112.91 274.201 115.105" stroke="#6E8467" stroke-width="2" stroke-miterlimit="10"/>
<path d="M277.561 96.0469C276.14 99.0907 274.918 101.925 274.672 105.747" stroke="#6E8467" stroke-width="2" stroke-miterlimit="10"/>
<path d="M273.648 132.562C278.805 142.735 281.476 153.873 281.439 165.02" stroke="#6E8467" stroke-width="2" stroke-miterlimit="10"/>
<path d="M255.121 110.5C253.341 110.484 251.502 110.927 250.182 112.01C248.134 113.691 247.734 116.53 248.161 119.026C249.267 125.456 255.102 130.77 261.931 132.606C264.356 133.258 266.879 133.517 269.397 133.634C270.488 133.684 272.282 133.592 273.341 133.358C274.739 133.049 274.326 131.268 274.121 130.202C273.643 127.664 271.994 125.469 270.749 123.215C269.067 120.167 267.111 116.96 264.44 114.527C261.94 112.248 258.637 110.534 255.116 110.5H255.121Z" fill="#9ED1A8"/>
<path d="M252.781 115.695C260.001 121.223 267.113 126.871 274.114 132.629" stroke="#D7EACA" stroke-miterlimit="10"/>
<path d="M256.797 130.234C257.833 130.966 258.943 131.531 260.081 131.965C262.674 132.96 265.396 133.303 268.095 133.646" stroke="#6E8467" stroke-miterlimit="10"/>
<path d="M259.585 105.916C262.604 106.924 265.708 107.76 268.867 108.329C269.986 108.53 271.208 108.948 271.524 107.601C272.1 105.109 270.999 102.965 270.084 100.673C269.252 98.5912 268.239 96.5592 266.934 94.6777C264.625 91.3538 261.294 88.4814 257.183 87.181C255.194 86.5497 252.872 86.3323 251.055 87.3023C250.14 87.7873 249.429 88.5441 248.9 89.3719C246.888 92.5286 247.576 96.6846 249.866 99.6824C252.156 102.68 255.798 104.65 259.585 105.921V105.916Z" fill="#9ED1A8"/>
<path d="M252.031 90.4375C259.264 95.6011 265.741 101.58 271.26 108.182" stroke="#D7EACA" stroke-miterlimit="10"/>
<path d="M259.189 83.3512C259.774 84.3128 260.425 85.2703 261.354 85.9853C262.654 86.9887 264.322 87.3817 265.944 87.758C266.766 87.9462 267.597 88.2138 268.424 88.3643C271.611 88.9538 270.631 85.0696 270.069 83.5101C269.214 81.1352 267.63 78.9694 265.498 77.3639C264.624 76.7075 263.644 76.1305 262.543 75.8713C261.442 75.612 260.202 75.704 259.268 76.2935C258.092 77.0378 257.605 78.4426 257.73 79.7304C257.856 81.0181 258.497 82.2181 259.189 83.3512Z" fill="#9ED1A8"/>
<path d="M261.703 77.8984C264.662 81.1764 267.427 84.6049 269.977 88.1713" stroke="#D7EACA" stroke-miterlimit="10"/>
<path d="M278.581 97.4908C282.386 96.596 286.06 93.9661 289.085 91.7794C293.094 88.882 293.4 84.6884 291.078 80.7163C289.586 78.1659 286.581 76.4308 283.315 76.9868C280.899 77.4008 278.818 78.8892 277.461 80.7373C275.612 83.2543 274.762 86.2981 274.678 89.2917C274.637 90.8136 274.795 92.3397 275.152 93.8282C275.408 94.8776 275.412 96.8427 276.681 97.3904C277.275 97.6497 277.93 97.6455 278.581 97.4908Z" fill="#9ED1A8"/>
<path d="M276.844 97.6933C279.046 91.4593 281.912 85.5515 285.368 80.1328" stroke="#D7EACA" stroke-miterlimit="10"/>
<path d="M302.594 103.266C302.185 101.31 301.177 99.2985 299.235 98.3369C294.65 96.0666 288.708 99.7208 285.345 102.376C281.349 105.532 278.028 109.734 277.34 114.58C277.336 114.626 277.326 114.676 277.322 114.722C277.024 116.901 277.902 117.959 280.188 118.481C283.217 119.175 287.254 118.686 290.288 118.18C293.46 117.653 296.592 116.516 298.905 114.493C302.143 111.658 303.43 107.259 302.598 103.266H302.594Z" fill="#9ED1A8"/>
<path d="M277.461 116.543C284.002 112.07 290.752 107.864 297.688 103.938" stroke="#D7EACA" stroke-miterlimit="10"/>
<path d="M298.203 162.219H262.148V217.396H298.203V162.219Z" fill="#FFEAC5"/>
<path d="M262.148 170.25H285.446" stroke="#D3B17A" stroke-miterlimit="10"/>
<path d="M298.212 170.25H288.289" stroke="#D3B17A" stroke-miterlimit="10"/>
<path d="M304.029 140.984L302.961 149.443C302.961 149.443 303.528 157.27 308.466 161.505C313.409 165.736 330.76 182.67 330.76 182.67L347.489 207.2L365.603 201.652C365.603 201.652 348.925 173.317 346.704 170.519C339.875 161.911 324.126 147.444 324.126 147.444" fill="#211C28"/>
<path d="M311.586 144.761C311.586 144.761 313.449 154.674 314.777 156.464C317.579 160.223 321.416 161.071 328.9 161.924C336.709 162.811 344.644 165.056 344.644 165.056L333.992 188.646L353.745 194.436C353.745 194.436 365.457 166.151 366.223 163.254C367.598 158.069 368.732 151.58 359.622 148.039C353.62 145.706 336.38 141.454 336.38 141.454L334.958 139.422" fill="#2C2635"/>
<path d="M320.07 143.641C320.07 143.641 323.113 152.492 330.588 155.339C338.063 158.191 340.553 159.466 344.079 161.105C348.214 163.028 350.699 163.333 350.671 165.386C350.643 167.439 347.995 172.992 346.156 177.144C344.91 179.953 340.135 190.448 340.135 190.448" stroke="#645B72" stroke-miterlimit="10"/>
<path d="M336.031 163.047L352.421 166.931" stroke="black" stroke-miterlimit="10"/>
<path d="M324.766 151.278C324.766 151.278 332.213 147.243 332.505 142.836" stroke="#645B72" stroke-miterlimit="10"/>
<path d="M358.891 170.249C360.707 168.576 362.375 166.774 363.871 164.859" stroke="black" stroke-miterlimit="10"/>
<path d="M359.922 164.389C360.949 163.8 361.971 163.21 362.997 162.625" stroke="black" stroke-miterlimit="10"/>
<path d="M336.376 141.453L312.414 149.987" stroke="#645B72" stroke-miterlimit="10"/>
<path d="M333.984 188.652L344.637 165.062" stroke="black" stroke-miterlimit="10"/>
<path d="M295.899 99.5785L295.764 101.351L294.891 105.963H308.92L307.819 98.8594" fill="#F9B7B7"/>
<path d="M311.325 98.3779C311.288 95.8149 310.271 93.022 309.588 91.0987C308.854 89.0291 307.636 87.5532 305.472 86.834C302.531 85.8556 299.186 87.1183 297.751 89.4263C296.496 91.4415 296.608 93.9627 297.625 96.1034C298.471 97.8846 299.702 99.7033 301.592 100.74C303.483 101.777 306.076 102.208 308.231 101.694C310.415 101.175 311.348 100.075 311.325 98.3779Z" fill="#F9B7B7"/>
<path d="M304.533 92.3796C304.31 91.3343 305.643 90.427 306.507 90.2891" stroke="black" stroke-width="0.75" stroke-miterlimit="10"/>
<path d="M307.621 92.6225C307.788 92.9528 307.695 93.3166 307.412 93.4295C307.128 93.5424 306.766 93.3668 306.599 93.0365C306.431 92.7062 306.524 92.3424 306.808 92.2295C307.091 92.1166 307.454 92.2922 307.621 92.6225Z" fill="black"/>
<path d="M310.385 96.8252L308.331 95.8594C308.331 95.8594 307.249 97.5485 308.211 97.9834C309.465 98.552 310.385 96.8252 310.385 96.8252Z" fill="white"/>
<path d="M298.667 94.1978L300.776 100.206L295.768 101.352C295.768 101.352 294.045 99.491 293.264 99.2234C292.484 98.9558 289.297 95.5106 288.935 93.5957C288.568 91.6808 289.455 88.6286 290.867 87.5959C292.275 86.5632 293.84 83.1347 295.146 82.2441C296.451 81.3535 299.773 82.6204 300.981 82.4783C302.189 82.3361 304.558 80.7891 305.515 81.6337C306.467 82.4783 306.574 84.0294 307.354 84.1214C308.135 84.2134 310.328 85.5304 310.119 86.8433C309.91 88.1561 308.683 89.2349 308.683 89.2349C308.683 89.2349 306.625 87.1276 304.511 87.738C302.398 88.3485 303.127 92.8557 298.672 94.202L298.667 94.1978Z" fill="black"/>
<path d="M303.664 101.547C303.664 101.547 306.298 102.483 308.254 101.902" stroke="black" stroke-miterlimit="10"/>
<path d="M308.914 91.6484C309.504 92.4972 310.47 93.1829 311.246 93.8895C311.427 94.0567 311.613 94.224 311.715 94.4372C311.883 94.7842 310.387 95.541 310.387 95.541" fill="#F9B7B7"/>
<path d="M309.266 91.6562C309.475 92.2332 309.828 92.7684 310.292 93.2074" stroke="black" stroke-width="0.75" stroke-miterlimit="10"/>
<path d="M310.25 95.6166C310.44 95.5205 310.636 95.4243 310.826 95.3281" stroke="black" stroke-width="0.75" stroke-miterlimit="10"/>
<path d="M308.867 92.2939C308.867 93.6443 307.649 94.744 306.144 94.744C304.639 94.744 303.422 93.6485 303.422 92.2939C303.422 90.9392 304.639 89.8438 306.144 89.8438C307.649 89.8438 308.867 90.9392 308.867 92.2939Z" stroke="#FFEAC5" stroke-miterlimit="10"/>
<path d="M298.25 94.2009L303.439 92.5703" stroke="#FFEAC5" stroke-miterlimit="10"/>
<path d="M308.773 91.5966L309.768 91.375" stroke="#FFEAC5" stroke-miterlimit="10"/>
<path d="M299.807 94.6904C299.273 93.6325 297.196 93.4026 296.263 94.1426C294.009 95.9196 296.853 99.6784 299.501 99.1766C300.248 99.0345 301.136 98.4366 301.057 97.6715" fill="#F9B7B7"/>
<path d="M296.938 96.0312L300.064 96.9803" stroke="black" stroke-width="0.75" stroke-miterlimit="10"/>
<path d="M298.008 93.7969C298.7 93.8847 299.36 94.1606 299.875 94.5829" stroke="black" stroke-width="0.75" stroke-miterlimit="10"/>
<path d="M299.664 99.3621C300.482 99.1949 300.997 98.4548 300.983 97.6562" stroke="black" stroke-width="0.75" stroke-miterlimit="10"/>
<path d="M297.813 105.634C295.328 105.634 291.328 104.701 287.76 109.246C284.192 113.791 278.492 128.354 276.773 132.075C275.054 135.796 275.482 145.4 282.367 145.4H306.152L302.454 133.003H294.348L298.278 121.124" fill="#A2BDFF"/>
<path d="M291.031 114.891L299.486 149.448L334.951 139.417L324.224 113.344L313.576 105.555H297.298L291.031 114.891Z" fill="#A2BDFF"/>
<path d="M294.346 133L289.078 133.92" stroke="black" stroke-miterlimit="10"/>
<path d="M347.75 114.746C350.129 112.89 352.911 111.514 355.764 110.389C357.213 109.821 358.755 109.306 360.33 109.177C361.989 109.039 363.671 109.026 365.306 109.265C365.575 109.302 365.845 109.344 366.114 109.386C366.411 109.432 366.676 109.62 366.7 109.9C366.718 110.126 366.486 110.297 366.267 110.398C364.53 111.205 362.23 110.515 360.656 111.568C361.162 111.506 361.701 111.447 362.165 111.639C362.635 111.832 362.969 112.384 362.728 112.806C363.448 113.078 363.852 113.922 363.587 114.608C363.824 114.533 364.358 115.022 364.437 115.248C364.734 116.101 364.679 116.494 364.177 117.255C363.675 118.016 362.393 118.906 361.445 119.023C361.004 119.078 360.516 119.032 360.172 118.764C360.112 118.718 360.056 118.664 359.977 118.659C359.931 118.659 359.884 118.672 359.843 118.689C358.361 119.249 357.357 120.545 356.033 121.377C354.663 122.238 353 122.581 351.369 122.803" fill="#F9B7B7"/>
<path d="M361.173 111.312C360.128 111.43 358.92 111.714 358.047 112.128" stroke="black" stroke-miterlimit="10"/>
<path d="M362.634 112.828C361.347 113.033 360.088 113.422 358.922 113.965" stroke="black" stroke-miterlimit="10"/>
<path d="M363.775 114.656C362.628 114.836 361.187 115.459 360.133 116.237" stroke="black" stroke-miterlimit="10"/>
<path d="M359.797 118.782C360.851 118.063 362.008 117.478 363.23 117.047" stroke="black" stroke-miterlimit="10"/>
<path d="M295.336 105.63C296.047 105.642 312.223 105.555 313.589 105.555C314.954 105.555 320.487 106.575 325.049 112.119C329.611 117.663 333.137 121.999 333.137 121.999L348.742 113.386L354.763 122.914C354.763 122.914 342.452 133.618 338.982 135.387C335.511 137.155 328.854 139.614 324.404 135.608C319.953 131.603 311.596 119.085 311.596 119.085" fill="#A2BDFF"/>
<path d="M312.413 120.302C312.413 120.302 309.784 108.227 317.918 106.672" stroke="#7699DD" stroke-miterlimit="10"/>
<path d="M292.846 106.062C290.291 110.264 289.529 114.655 292.442 120.604" stroke="#7699DD" stroke-miterlimit="10"/>
<path d="M334.079 137.274C330.873 138.089 327.198 138.131 324.402 135.61C319.951 131.604 311.594 119.086 311.594 119.086" stroke="black" stroke-miterlimit="10"/>
<path d="M311.588 106.095L309.567 102.984H294.962L294.344 106.095" fill="#A2BDFF"/>
<path d="M311.821 105.672H294.344" stroke="black" stroke-miterlimit="10"/>
<path d="M333.133 122L334.684 123.773" stroke="black" stroke-miterlimit="10"/>
<path d="M345.656 115.062L352.425 124.921" stroke="black" stroke-miterlimit="10"/>
<path d="M353.635 121.141L349.031 124.628" stroke="black" stroke-miterlimit="10"/>
<path d="M352.112 120.328C352.112 120.683 351.791 120.976 351.392 120.976C350.992 120.976 350.672 120.687 350.672 120.328C350.672 119.968 350.992 119.68 351.392 119.68C351.791 119.68 352.112 119.968 352.112 120.328Z" fill="white"/>
<path d="M298.498 145.715L291.391 115.938" stroke="black" stroke-miterlimit="10"/>
<path d="M294.016 165.055L289.523 217.402" stroke="#FCAD95" stroke-width="2" stroke-miterlimit="10"/>
<path d="M323.914 165.055L325.591 217.402" stroke="#FCAD95" stroke-width="2" stroke-miterlimit="10"/>
<path d="M307.552 165.055L305.875 217.402" stroke="#F98355" stroke-width="2" stroke-miterlimit="10"/>
<path d="M337.453 165.055L341.945 217.402" stroke="#F98355" stroke-width="2" stroke-miterlimit="10"/>
<path d="M332.567 161.454H323.819C321.668 161.454 319.81 160.049 319.336 158.068C318.031 152.586 315.383 141.682 313.376 134.737C310.612 125.154 306.617 119.347 299.091 119.347C296.169 119.347 287.532 118.619 282.617 119.347C277.702 120.074 277.507 123.992 278.162 127.333C280.318 138.337 287.384 157.478 290.408 163.311C290.956 164.373 292.136 165.046 293.437 165.046H339.693C338.1 162.801 335.429 161.45 332.567 161.45V161.454Z" fill="#F98355"/>
<path d="M332.561 161.223H320.166C318.015 161.223 316.157 159.86 315.683 157.933C314.378 152.606 311.73 142.015 309.723 135.275C306.959 125.968 302.963 120.328 295.438 120.328" stroke="black" stroke-miterlimit="10"/>
</svg>
