<svg width="532" height="180" viewBox="0 0 532 180" fill="none" xmlns="http://www.w3.org/2000/svg">
<path opacity="0.55" d="M282.093 301.544C334.519 235.572 323.537 139.581 257.566 87.1553L67.7045 326.071C133.676 378.497 229.667 367.515 282.093 301.544Z" fill="#6857B8"/>
<path d="M510.438 100.094L540.443 91.505" stroke="#6857B8" stroke-width="1.5" stroke-miterlimit="10"/>
<path d="M520.674 82.3309L530.203 109.297" stroke="#6857B8" stroke-width="1.5" stroke-miterlimit="10"/>
<path d="M324.661 46.4905C332.389 44.0326 340.683 48.288 343.155 56.0592C345.626 63.8303 341.357 72.0814 333.586 74.553C325.815 77.0246 317.564 72.7555 315.092 64.9844C312.621 57.2132 316.89 48.9621 324.661 46.4905Z" stroke="#6857B8" stroke-width="1.5" stroke-miterlimit="10"/>
<path opacity="0.55" d="M21.3519 48.1905L40.7341 23.4418L0 4.6875L21.3519 48.1905Z" fill="#6857B8"/>
<path d="M119.376 134.734L133.713 244.889H104.782L90.3125 137.367" fill="#19181E"/>
<path d="M110.98 244.889L95.4688 137.367" stroke="#3C3A49" stroke-miterlimit="10"/>
<path d="M109.891 153.664H119.897L121.089 160.477C121.089 160.477 118.227 162.782 116.488 162.46C114.749 162.138 111.071 161.127 111.083 160.805C111.096 160.483 109.891 153.67 109.891 153.67V153.664Z" stroke="#3C3A49" stroke-miterlimit="10"/>
<path d="M110.125 155.891H120.093" stroke="#3C3A49" stroke-miterlimit="10"/>
<path d="M70.6814 134.734L63.0859 244.889H95.0747L102.815 137.367" fill="#19181E"/>
<path d="M76.1111 134.734L68.5156 244.889" stroke="#3C3A49" stroke-miterlimit="10"/>
<path d="M79.8142 134.734L72.2188 244.889" stroke="#3C3A49" stroke-miterlimit="10"/>
<path d="M98.4531 198.558L101.096 162.412L103.218 158.164" stroke="#3C3A49" stroke-miterlimit="10"/>
<path d="M87.7734 171.8C90.2153 169.343 92.6634 166.885 95.1052 164.422" stroke="#3C3A49" stroke-miterlimit="10"/>
<path d="M92.4375 174.352C92.9334 172.821 93.6302 171.335 94.5027 169.945" stroke="#3C3A49" stroke-miterlimit="10"/>
<path d="M95.7322 153.664H84.6277L84 161.031C84 161.031 88.03 163.658 89.9571 163.302C91.8842 162.952 95.1232 161.732 95.1107 161.381C95.0981 161.031 95.7384 153.664 95.7384 153.664H95.7322Z" stroke="#3C3A49" stroke-miterlimit="10"/>
<path d="M95.4652 156.07H84.3984" stroke="#3C3A49" stroke-miterlimit="10"/>
<path d="M98.6958 60.4688L107.258 66.4403L107.321 78.1348H87.0703L90.0269 67.4515" fill="#F6ABA9"/>
<path d="M82.8553 63.9198C83.119 60.242 84.9394 56.2534 86.1697 53.5078C87.4942 50.5531 89.5343 48.4571 93.0056 47.4684C97.7324 46.1238 102.924 48.0108 105.014 51.3496C106.841 54.2648 106.464 57.8861 104.694 60.9369C103.219 63.4791 101.135 66.061 98.0588 67.5072C94.9892 68.9535 90.1306 70.5354 86.7598 69.7557C83.3512 68.9648 82.6859 66.3547 82.8616 63.9142L82.8553 63.9198Z" fill="#F6ABA9"/>
<path d="M93.7709 54.5885C93.3817 52.679 92.12 51.4474 90.7578 51.1875" stroke="black" stroke-width="0.75" stroke-miterlimit="10"/>
<path d="M89.4708 54.5414C89.1884 55.0611 89.3139 55.6374 89.7596 55.8351C90.199 56.0272 90.7891 55.7673 91.0716 55.2476C91.354 54.7278 91.2285 54.1516 90.7828 53.9538C90.3434 53.7617 89.7533 54.0216 89.4708 54.5414Z" fill="black"/>
<path d="M86.2999 54.7734C85.3207 56.0898 83.7514 57.1349 82.4834 58.2253C82.1883 58.4795 81.887 58.7394 81.7113 59.0727C81.4288 59.6151 83.7577 60.8806 83.7577 60.8806" fill="#F6ABA9"/>
<path d="M99.5883 59.8388C100.555 61.0647 101.428 63.7934 102.488 64.9516C102.959 65.4657 103.637 65.3414 104.284 65.4657C105.345 65.6634 105.903 66.2058 107.021 65.6747C108.753 64.8442 110.134 63.1211 110.931 61.5562C111.584 60.2851 111.986 58.9349 112.287 57.5677C112.545 56.4265 113.003 55.1384 112.871 53.9689C112.72 52.63 111.81 51.4718 110.925 50.3871C110.423 49.7713 109.914 49.1442 109.28 48.6358C108.916 48.342 108.496 48.0652 108.364 47.6415C108.289 47.4042 108.32 47.1443 108.301 46.8957C108.245 46.0935 107.648 45.3421 106.82 45.0314C105.991 44.7263 104.98 44.8789 104.309 45.4099C104.07 45.602 103.8 45.8506 103.493 45.7771C103.298 45.7319 103.173 45.5625 103.066 45.4043C102.532 44.5794 102.168 43.6642 101.566 42.8789C100.963 42.0937 100.047 41.4101 98.9857 41.3988C97.1967 41.3705 95.9287 43.1501 94.1459 43.314C93.1541 43.4043 92.2063 42.9693 91.2898 42.6191C90.3671 42.2688 89.2936 42.0033 88.4023 42.41C87.5925 42.7773 87.1657 43.6416 87.1719 44.4608C87.1782 45.28 87.5611 46.0596 88.0131 46.7658C89.0614 48.3985 90.5491 49.76 92.0117 51.1046L95.2256 54.0537C96.6882 55.3983 97.567 57.1835 98.7409 58.7541C99.0108 59.1213 99.2933 59.4829 99.5758 59.8444L99.5883 59.8388Z" fill="#2C2C3A"/>
<path d="M97.4257 59.8843C98.3171 58.4832 101.223 58.3985 102.416 59.5284C105.285 62.2458 100.815 67.1213 97.2249 66.127C96.208 65.8445 95.0655 64.918 95.2852 63.8615" fill="#F6ABA9"/>
<path d="M101.213 62.0703L96.75 63.0251" stroke="black" stroke-width="0.75" stroke-miterlimit="10"/>
<path d="M100.035 58.8516C99.0685 58.8911 98.1143 59.2018 97.3359 59.7272" stroke="black" stroke-width="0.75" stroke-miterlimit="10"/>
<path d="M101.73 64.9384C100.575 65.8875 98.9053 66.6841 97.3046 66.2152C96.1998 65.8875 95.2582 64.9667 95.3963 63.8594" stroke="black" stroke-width="0.75" stroke-miterlimit="10"/>
<path d="M84.5078 62.734C85.236 63.4854 86.5479 63.186 86.8366 62.2482C86.9685 61.8245 86.912 61.3669 86.8366 60.9375" stroke="black" stroke-width="0.75" stroke-miterlimit="10"/>
<path d="M89.2734 70.1678C89.2734 70.1678 92.5 70.3204 94.8602 68.2188" stroke="black" stroke-miterlimit="10"/>
<path d="M104.781 74.9062H111.711C114.216 74.9062 117.311 75.748 120.995 80.3919C124.68 85.0358 132.652 95.4083 136.513 100.679C140.015 105.464 139.909 112.798 135.59 119.662C129.175 129.859 118.34 141.655 119.307 140.418L106.476 127.757L116.281 111.436L106.476 93.2615" fill="#9FB78D"/>
<path d="M117.297 110.843C120.705 108.662 125.118 107.798 129.224 108.51" stroke="black" stroke-miterlimit="10"/>
<path d="M72.6535 89.0503C69.3517 108.677 67.2739 128.439 66.4453 148.24C66.4453 148.24 72.4777 144.935 74.1852 134.93C74.1852 134.93 77.7757 144.913 89.125 148.24C100.606 151.607 116.801 148.54 121.836 143.788C126.87 139.037 114.774 88.1633 114.774 88.1633L107.461 73L87.3485 73.8192L72.6535 89.0446V89.0503Z" fill="#9FB78D"/>
<path d="M74.1875 134.936L76.0204 91.1641" stroke="#6D875C" stroke-miterlimit="10"/>
<path d="M38.7109 96.0128C36.6959 93.753 32.0759 82.4257 33.2623 77.0135C33.664 75.183 34.6621 72.9515 35.3212 71.9515C36.6143 69.9855 37.9074 68.0138 39.2068 66.0478C39.2947 65.9122 39.3888 65.7709 39.5395 65.6692C40.004 65.3585 40.7698 65.6466 41.0147 66.0986C41.2532 66.5506 41.1339 67.0647 41.0147 67.5505C41.5984 66.6748 42.2324 65.754 43.287 65.2399C43.4816 65.1438 43.7201 65.0647 43.9336 65.1382C44.2098 65.2342 44.2725 65.5223 44.2914 65.7653C44.3604 66.5393 44.4232 67.3132 44.4922 68.0816C44.4546 67.7031 45.1765 67.5449 45.5405 67.7878C45.8983 68.0307 45.9737 68.4544 46.0176 68.833C46.1055 69.5617 46.1934 70.2962 46.2812 71.025C46.1494 70.6352 46.8901 70.3809 47.2982 70.6069C47.7062 70.8329 47.8003 71.2848 47.8443 71.6803C48.0326 73.4995 47.7376 75.3355 47.9447 77.1547C48.5662 82.6517 52.7845 86.9283 52.797 92.4479" fill="#F6ABA9"/>
<path d="M74.6398 83.099L42.6134 88.9802L28 51.8968L60.0265 46.0156L74.6398 83.099Z" fill="#8668BC"/>
<path d="M70.8603 81.0328L45.5317 85.6824L32.4688 52.548L57.7974 47.8984L70.8603 81.0328Z" fill="#FFF2C7"/>
<path d="M38.2188 57.1784L56.9061 53.7266" stroke="#D1C195" stroke-miterlimit="10"/>
<path d="M39.3516 60.2331L58.0326 56.7812" stroke="#D1C195" stroke-miterlimit="10"/>
<path d="M40.4922 63.28L59.1795 59.8281" stroke="#D1C195" stroke-miterlimit="10"/>
<path d="M41.625 66.3347L60.3123 62.8828" stroke="#D1C195" stroke-miterlimit="10"/>
<path d="M42.7578 69.3894L61.4452 65.9375" stroke="#D1C195" stroke-miterlimit="10"/>
<path d="M43.8984 72.4362L62.5795 68.9844" stroke="#D1C195" stroke-miterlimit="10"/>
<path d="M45.0234 75.4831L63.7108 72.0312" stroke="#D1C195" stroke-miterlimit="10"/>
<path d="M46.1641 78.53L64.8514 75.0781" stroke="#D1C195" stroke-miterlimit="10"/>
<path d="M57.4219 79.7225L65.9777 78.1406" stroke="#D1C195" stroke-miterlimit="10"/>
<path d="M40.9219 53.8969L53.0934 51.6484" stroke="#D1C195" stroke-miterlimit="10"/>
<path d="M42.9201 44.4239C41.4889 44.6894 40.7293 45.9154 41.2189 47.1639C41.7148 48.4124 43.2716 49.2147 44.7028 48.9548C46.134 48.6893 46.8935 47.4633 46.4039 46.2148C45.9143 44.9662 44.3513 44.164 42.9201 44.4239ZM44.1692 47.5989C43.598 47.7062 42.9703 47.3842 42.7694 46.8814C42.5748 46.3786 42.8761 45.8871 43.4473 45.7798C44.0186 45.6724 44.6463 45.9944 44.8472 46.4973C45.0418 47.0001 44.7405 47.4916 44.1692 47.5989Z" fill="#8668BC"/>
<path d="M55.1098 49.1732L35.2109 52.8284L34.125 50.0771L54.0238 46.4219L55.1098 49.1732Z" fill="#8668BC"/>
<path d="M33.9375 78.8223C33.9375 78.8223 36.3982 74.6982 38.7961 72.6248C38.9091 72.5231 39.0346 72.4214 39.1915 72.3875C39.6309 72.2915 39.9574 72.7661 40.0264 73.1672C40.3905 75.3309 37.9424 77.3704 38.545 79.489C38.8149 80.4437 39.6561 81.1612 40.4219 81.8618C42.01 83.3024 42.9767 85.4097 42.9767 90.2908" fill="#F6ABA9"/>
<path d="M37.201 74.5938C35.6192 76.153 33.9934 77.797 33.3594 79.8308" stroke="black" stroke-width="0.75" stroke-miterlimit="10"/>
<path d="M38.5553 78.0469C38.3921 78.561 38.0971 79.3689 38.2728 79.9056C38.4862 80.5722 39.4278 81.284 39.974 81.7473C40.4196 82.1258 40.8967 82.4704 41.2796 82.8998C41.719 83.3913 42.0203 83.9732 42.2526 84.5721C43.0686 86.6737 43.0435 88.9504 42.9305 91.1763" stroke="black" stroke-width="0.75" stroke-miterlimit="10"/>
<path d="M85.1719 77.2002L87.62 71.9688H108.492L109.433 77.2002" fill="#9FB78D"/>
<path d="M94.2381 74.9062H78.5764C74.6029 74.9062 67.723 77.9061 64.2078 85.4256C60.6925 92.9451 58.0938 97.5043 58.0938 97.5043L52.7832 89.1713L35.7656 96.5382C35.7656 96.5382 43.0409 109.56 47.0082 115.204C50.3916 120.018 53.1222 123.791 60.3033 123.424C67.4845 123.057 71.6903 116.119 74.5841 111.956C77.9487 107.12 86.8247 89.9848 86.8247 89.9848" fill="#9FB78D"/>
<path d="M76.2422 75.125C82.08 79.0627 84.5093 85.6783 84.3273 92.147" stroke="#6D875C" stroke-miterlimit="10"/>
<path d="M115.766 76.0625C117.862 80.7459 118.113 85.2543 117.348 92.5478" stroke="#6D875C" stroke-miterlimit="10"/>
<path d="M58.0918 97.5156L52.7812 108.51" stroke="black" stroke-miterlimit="10"/>
<path d="M68.5078 119.623C68.5078 119.623 73.1592 115.465 76.3983 109.048C79.6374 102.63 85.1613 90.2969 85.1613 90.2969" stroke="black" stroke-miterlimit="10"/>
<path d="M86.1953 75.0312H109.044" stroke="black" stroke-miterlimit="10"/>
<path d="M54.9288 92.5469L38.2188 100.569" stroke="#6D875C" stroke-miterlimit="10"/>
<path d="M123.263 136.771C123.263 135.896 118.091 97.479 116.578 88.3438" stroke="black" stroke-miterlimit="10"/>
<path d="M83.4922 85.0093C94.8916 84.4952 106.348 84.5686 117.735 85.2296" stroke="#6D875C" stroke-miterlimit="10"/>
<path d="M100.625 84.9453L104.787 149.446" stroke="#6D875C" stroke-miterlimit="10"/>
<path d="M104.781 84.9453L110.713 147.887" stroke="#6D875C" stroke-miterlimit="10"/>
<path d="M94.0234 132.317C99.9429 127.775 105.523 122.871 110.715 117.656" stroke="black" stroke-miterlimit="10"/>
<path d="M105.57 137.382C107.02 134.06 108.477 130.738 109.927 127.422" stroke="black" stroke-miterlimit="10"/>
</svg>
