<svg width="187" height="233" viewBox="0 0 187 233" fill="none" xmlns="http://www.w3.org/2000/svg">
<path d="M47.2767 0.652344H16.0508V181.025H47.2767V0.652344Z" fill="#FFAF00"/>
<path d="M87.7748 39.8086H56.5488V181.03H87.7748V39.8086Z" fill="#FFAF00"/>
<path d="M126.201 0.652344H94.9746V181.025H126.201V0.652344Z" fill="#FFAF00"/>
<path d="M169.856 23.4883H138.63V181.023H169.856V23.4883Z" fill="#FFAF00"/>
<path d="M169.86 232.447H15.0685L0 129.91H187L169.86 232.447Z" fill="#F00028"/>
<path d="M84.4614 139.66L65.4424 139.73L65.6638 199.081L84.6828 199.01L84.4614 139.66Z" fill="white"/>
<path d="M50.3549 139.785L31.3359 139.855L31.5574 199.206L50.5764 199.135L50.3549 139.785Z" fill="white"/>
<path d="M73.3714 157.096L65.5049 157.125L65.5965 181.682L73.463 181.652L73.3714 157.096Z" fill="black"/>
<path d="M39.2679 157.221L31.4014 157.25L31.493 181.807L39.3595 181.777L39.2679 157.221Z" fill="black"/>
</svg>
