<svg width="50" height="50" viewBox="0 0 50 50" fill="none" xmlns="http://www.w3.org/2000/svg">
<g clip-path="url(#clip0_160_9)">
<path d="M43.6815 25.002C43.6815 17.821 37.9686 12 30.9248 12C23.8809 12 18.1641 17.821 18.1641 25.002C18.1641 26.7264 18.4938 28.3699 19.0937 29.8758H30.5155L28.3782 38H30.9208C37.9686 38 43.6815 32.179 43.6815 24.998V25.002Z" fill="#FFAF00"/>
<path d="M13.5752 31.4998L18.4896 12.8145H11.1518L6.23739 31.4998C5.27597 35.1551 7.25443 38.0008 11.3901 38.0008H26.5425L28.2508 31.4998H13.5752Z" fill="#F00028"/>
<path d="M40.0039 36.4417H40.6793V37.9111H41.0249V36.4417H41.7082V36.1543H40.0039V36.4417Z" fill="#FFAF00"/>
<path d="M43.4643 36.1544L43.0392 37.1907C43.0233 37.2312 43.0074 37.2838 42.9915 37.3445C42.9756 37.2919 42.9558 37.2433 42.9359 37.1867L42.5108 36.1504H41.9824V37.9072H42.2963V36.6645C42.2963 36.5997 42.2963 36.5349 42.2923 36.4742C42.2923 36.4499 42.2923 36.4216 42.2883 36.3933L42.9001 37.9072H43.0551L43.6709 36.3933C43.6709 36.3933 43.6709 36.4257 43.6709 36.4418C43.6709 36.4985 43.6709 36.5511 43.6709 36.5997V37.9072H44.0125V36.1504H43.4762L43.4643 36.1544Z" fill="#FFAF00"/>
</g>
<defs>
<clipPath id="clip0_160_9">
<rect width="38" height="26" fill="white" transform="translate(6 12)"/>
</clipPath>
</defs>
</svg>
