<svg width="216" height="87" viewBox="0 0 216 87" fill="none" xmlns="http://www.w3.org/2000/svg">
<path d="M210.849 85.8726L5.64675 86.837C2.92579 86.8498 0.686211 84.4378 0.672308 81.4795C0.582922 62.4604 14.8216 46.8273 32.3204 46.745L183.8 46.0331C201.299 45.9509 215.684 61.4495 215.773 80.4686C215.787 83.4268 213.57 85.8598 210.849 85.8726Z" fill="#FFAF00"/>
<path d="M42.8146 1.19657L66.5439 1.10156L66.8404 75.1517L43.111 75.2467L42.8146 1.19657Z" fill="white"/>
<path d="M85.3683 1.0247L109.098 0.929688L109.394 74.9798L85.6647 75.0748L85.3683 1.0247Z" fill="white"/>
<path d="M56.8229 22.8518L66.6377 22.8125L66.7604 53.4509L56.9455 53.4902L56.8229 22.8518Z" fill="black"/>
<path d="M99.3688 22.676L109.184 22.6367L109.306 53.2751L99.4914 53.3144L99.3688 22.676Z" fill="black"/>
</svg>
