<svg width="172" height="26" viewBox="0 0 172 26" fill="none" xmlns="http://www.w3.org/2000/svg">
<g clip-path="url(#clip0_73_4072)">
<path d="M164.093 1.52344H167.085V2.01843H164.093V1.52344ZM165.285 1.77093H165.893V4.55712H165.285V1.77093Z" fill="white"/>
<path d="M167.565 1.52344H168.492L169.242 3.3084C169.317 3.48839 169.373 3.66464 169.414 3.82964H169.279L169.298 3.75089C169.343 3.55964 169.388 3.4134 169.429 3.31215L170.179 1.52344H171.124V4.55337H170.528V2.30342C170.528 2.22092 170.528 2.13092 170.528 2.03343C170.528 1.93218 170.535 1.82718 170.547 1.71468H170.625L169.448 4.55712H169.174L168.004 1.71468H168.079C168.094 1.85343 168.105 1.97343 168.109 2.08218C168.117 2.19092 168.117 2.29967 168.117 2.41217V4.55712H167.565V1.52344Z" fill="white"/>
<path d="M142.058 1.52344H135.432V24.4767H142.058V1.52344Z" fill="white"/>
<path d="M79.4759 24.4767H72.8047V7.02457H65.9312V1.52344H86.7994V7.02457H79.4759V24.4767Z" fill="white"/>
<path d="M92.5743 24.4767H108.286V19.3955H95.233V15.4619H106.981V10.5532H95.233V6.60458H108.286V1.52344H88.8169V20.7193C88.8169 22.7892 90.5044 24.4767 92.5743 24.4767Z" fill="white"/>
<path d="M50.6991 24.4767H57.3702V7.02457H64.2438V1.52344H43.3755V7.02457H50.6991V24.4767Z" fill="white"/>
<path d="M18.8321 18.9756H6.62611V1.52344H0V20.7193C0 22.7892 1.68746 24.4767 3.75742 24.4767H18.8321V18.9756Z" fill="white"/>
<path d="M31.0716 0.988281C23.9618 0.988281 18.8169 6.21192 18.8169 13.003C18.8169 19.7941 23.9655 25.0178 31.0716 25.0178C38.1777 25.0178 43.3789 19.7941 43.3789 13.003C43.3789 6.21192 38.1777 0.988281 31.0716 0.988281ZM31.0754 19.2466C27.4042 19.2466 25.0043 16.5129 25.0043 13.0068C25.0043 9.50059 27.4042 6.7594 31.0754 6.7594C34.7465 6.7594 37.1352 9.49684 37.1352 13.0068C37.1352 16.5167 34.739 19.2466 31.0754 19.2466Z" fill="white"/>
<path d="M132.777 24.4692L128.825 17.1156C131.135 15.6306 132.357 12.9719 132.357 9.94575C132.357 5.30335 129.481 1.52344 124.055 1.52344H111.084V24.4654H117.376V18.3643H122.926L126.275 24.4654H132.781L132.777 24.4692ZM117.373 6.66458H122.99C125.154 6.66458 126.312 8.08204 126.312 9.94575C126.312 11.8095 125.097 13.2269 122.99 13.2269H117.373V6.66458Z" fill="white"/>
<path d="M164.603 24.4767H171.116L161.048 1.52344H152.524L144.638 19.2305C143.539 21.6942 145.343 24.4729 148.043 24.4729H161.771L159.323 18.9718H151.418L156.784 6.91582L164.603 24.4729V24.4767Z" fill="white"/>
</g>
<defs>
<clipPath id="clip0_73_4072">
<rect width="171.12" height="24.0257" fill="white" transform="translate(0 0.988281)"/>
</clipPath>
</defs>
</svg>
