<svg width="82" height="61" viewBox="0 0 82 61" fill="none" xmlns="http://www.w3.org/2000/svg">
<path d="M60.6743 18.2817C58.6296 14.315 57.3037 10.8126 56.5447 8.54688C56.1742 10.6162 55.259 15.353 53.9062 20.101C55.0201 22.0386 56.1161 23.5743 57.0715 24.9226C58.3796 22.9582 59.7189 20.6501 60.6743 18.2817Z" fill="url(#paint0_linear_173_2337)"/>
<path d="M56.1877 26.21C55.2233 24.8506 54.297 23.3929 53.3862 21.8438C52.7099 24.0202 51.9442 26.1274 51.0938 27.9065C51.4978 28.5003 52.1183 29.3486 52.9688 30.3374C53.4688 29.7615 54.7457 28.2481 56.1854 26.21H56.1877Z" fill="url(#paint1_linear_173_2337)"/>
<path d="M39 27.8037C40.3125 29.6118 41.7434 31.4802 43.1765 33.17C44.2926 32.4647 45.2703 31.7637 46.1297 31.0874C45.3908 29.4266 44.3774 26.9242 43.3595 24.3438C42.3907 25.192 40.9264 26.4041 39 27.8037Z" fill="url(#paint2_linear_173_2337)"/>
<path d="M42.7905 22.8899C41.5583 19.7402 40.3998 16.6887 39.806 15.1172C37.9265 17.0592 36.0045 18.8517 34.0625 20.5014C34.9398 21.901 36.4175 24.1689 38.1787 26.6534C40.2569 25.1132 41.8038 23.7895 42.7905 22.8921V22.8899Z" fill="url(#paint3_linear_173_2337)"/>
<path d="M29.0938 33.8974C31.3304 34.9577 33.7055 35.989 35.9846 36.8105C36.873 36.4533 37.7168 36.0872 38.5137 35.7122C36.5181 34.8282 34.2524 33.6161 32.0157 32.3125C31.0894 32.8415 30.1161 33.3728 29.096 33.8996L29.0938 33.8974Z" fill="url(#paint4_linear_173_2337)"/>
<path d="M30.6901 31.5314C28.3864 30.1452 26.181 28.7143 24.4131 27.5C23.1943 28.2433 21.9933 28.9376 20.8125 29.5782C22.4509 30.5135 24.8818 31.8439 27.6252 33.1922C28.6989 32.6431 29.719 32.085 30.6923 31.5314H30.6901Z" fill="url(#paint5_linear_173_2337)"/>
<path d="M53.6875 31.1388C54.2991 31.804 55.0067 32.5161 55.8103 33.2461C60.085 31.4 63.8307 28.5539 65.9156 26.8016C64.6946 25.1318 63.603 23.4554 62.6298 21.8125C59.1319 26.2837 54.6407 30.304 53.6897 31.1366L53.6875 31.1388Z" fill="url(#paint6_linear_173_2337)"/>
<path d="M7.40933 35.4375C6.22849 35.8348 5.22399 36.1407 4.43378 36.3661C4.43378 36.3661 4.31548 36.3929 4.29316 36.442C4.2753 36.4777 4.25744 36.5536 4.4003 36.6139C7.23522 37.5403 10.2487 38.3193 13.0345 38.9421C14.1261 38.6318 15.1931 38.3037 16.231 37.9622C13.068 37.1519 9.95852 36.259 7.40933 35.4375Z" fill="url(#paint7_linear_173_2337)"/>
<path d="M18.3126 38.4766C17.3371 38.8069 16.3371 39.1217 15.3125 39.423C17.9688 39.9632 20.2836 40.3405 21.844 40.5458C23.0025 40.3673 24.1186 40.1708 25.1945 39.9565C23.0828 39.5748 20.7145 39.0614 18.3126 38.4788V38.4766Z" fill="url(#paint8_linear_173_2337)"/>
<path d="M25.8832 34.0526C23.113 32.8182 20.5191 31.5458 18.7668 30.6484C17.682 31.1998 16.6239 31.711 15.6016 32.1775C17.836 33.1709 20.4857 34.2669 23.1799 35.2937C24.1085 34.8875 25.0104 34.4723 25.8809 34.0526H25.8832Z" fill="url(#paint9_linear_173_2337)"/>
<path d="M24.8594 35.9286C27.3371 36.8394 29.7859 37.6586 31.9154 38.2569C32.8172 37.9756 33.6766 37.6809 34.5025 37.3796C32.4154 36.7724 29.902 35.7969 27.4287 34.7344C26.6005 35.1384 25.7433 35.538 24.8594 35.9286Z" fill="url(#paint10_linear_173_2337)"/>
<path d="M21.3921 36.057C18.2358 35.0079 15.2625 33.9498 13.2691 33.2109C12.1083 33.702 11.0123 34.1373 9.99219 34.5168C12.1173 35.2534 15.1821 36.2624 18.4233 37.2C19.4412 36.8316 20.43 36.4477 21.3921 36.0548V36.057Z" fill="url(#paint11_linear_173_2337)"/>
<path d="M20.3672 37.7478C22.9052 38.4398 25.4522 39.0492 27.6531 39.4175C28.5483 39.2055 29.4121 38.9822 30.2447 38.7479C28.1085 38.1853 25.6374 37.4353 23.1842 36.6406C22.2735 37.0201 21.3337 37.3884 20.3694 37.7456L20.3672 37.7478Z" fill="url(#paint12_linear_173_2337)"/>
<path d="M62.4688 37.9935C64.9689 37.8015 69.5807 37.2591 74.2572 35.7367C73.3777 35.0023 72.5317 34.2456 71.7214 33.4688C69.3708 34.355 64.9488 35.9644 60.0938 36.5671C60.8393 37.056 61.6273 37.5337 62.4688 37.9935Z" fill="url(#paint13_linear_173_2337)"/>
<path d="M59.0514 35.8552C61.0939 35.4467 65.7034 34.2168 70.2683 32.0135C69.3017 31.0046 68.391 29.971 67.5405 28.9219C65.3262 30.2724 60.9153 32.7814 56.75 34.0739C57.4509 34.6654 58.2188 35.2637 59.0492 35.8552H59.0514Z" fill="url(#paint14_linear_173_2337)"/>
<path d="M77.5072 38.2211C76.804 37.73 76.1209 37.2255 75.4535 36.7031C74.1075 37.1518 69.6922 38.4778 63.8438 38.7121C64.6965 39.1318 65.5938 39.5291 66.5358 39.8997C69.047 40.018 72.8775 39.8394 77.5049 38.4822C77.5897 38.451 77.6143 38.4153 77.6165 38.3684C77.621 38.288 77.5049 38.2166 77.5049 38.2166L77.5072 38.2211Z" fill="url(#paint15_linear_173_2337)"/>
<path d="M31.4432 22.6272C29.8695 23.8527 28.2869 24.9889 26.7109 26.0292C29.4365 28.3596 35.0483 32.7839 39.4948 35.2349C40.4837 34.7439 41.3989 34.2416 42.2427 33.7393C39.4881 31.2258 33.7112 25.0648 31.441 22.625L31.4432 22.6272Z" fill="url(#paint16_linear_173_2337)"/>
<path d="M42.9241 11.7044C44.1987 17.6511 46.1497 27.0109 46.8617 30.4842C48.4377 29.165 49.5337 27.973 50.248 27.089C52.5472 14.4032 51.9289 1.43605 51.9289 1.43605C51.9266 1.32667 51.9177 0.520831 51.6699 0.424845C51.3485 0.299839 51.1498 0.65923 51.1498 0.65923C51.1498 0.65923 46.2858 8.03903 42.9219 11.7066L42.9241 11.7044Z" fill="url(#paint17_linear_173_2337)"/>
<path d="M21.0972 50.5851C21.1284 50.5538 25.0304 46.7099 25.0304 46.7099C25.0304 46.7099 28.9345 50.5538 28.9658 50.5851H31.7895C31.6176 50.4087 27.8965 46.5849 27.8965 46.5849H31.0931V44.6875H18.9699V46.5849H22.1664C22.1664 46.5849 18.4453 50.4065 18.2734 50.5851H21.0972Z" fill="#4C5C65"/>
<path d="M3.54699 44.6875L0 53.9379H2.02685L4.38854 47.7903L6.75246 53.9379H8.77931L5.23232 44.6875H3.54699Z" fill="#4C5C65"/>
<path d="M13.4297 53.9379H15.4543V44.6875H13.4297V53.9379Z" fill="#4C5C65"/>
<path d="M9.87284 47.4555C9.64515 47.1809 9.30363 47.0068 8.92192 47.0068C8.24109 47.0068 7.6875 47.5604 7.6875 48.2412C7.6875 48.9221 8.24109 49.4757 8.92192 49.4757C9.30363 49.4757 9.64739 49.3015 9.87284 49.027V53.9379H11.8952V44.6875H9.87284V47.4555Z" fill="#4C5C65"/>
<path d="M26.4032 50.5838C26.4032 49.8248 25.7893 49.2109 25.0304 49.2109C24.2714 49.2109 23.6576 49.8248 23.6576 50.5838C23.6576 50.9856 23.8339 51.345 24.1107 51.595H17.8516V53.4946H22.1173C21.403 54.2268 20.9633 55.2268 20.9633 56.3318C20.9633 58.5797 22.7848 60.4012 25.0326 60.4012C27.2804 60.4012 29.1019 58.5797 29.1019 56.3318C29.1019 55.2268 28.66 54.2268 27.9456 53.4946H32.2114V51.595H25.9523C26.2291 51.345 26.4054 50.9856 26.4054 50.5838H26.4032ZM25.0304 58.3721C23.9031 58.3721 22.9901 57.4568 22.9901 56.3318C22.9901 55.2067 23.9031 54.2915 25.0304 54.2915C26.1576 54.2915 27.0728 55.2045 27.0728 56.3318C27.0728 57.4591 26.1599 58.3721 25.0304 58.3721Z" fill="#4C5C65"/>
<path d="M46.1719 50.6663H50.9444V51.3315H46.1719V53.9098H52.2033V53.0638H47.4331V52.1798H52.2033V49.8203H46.1719V50.6686V50.6663Z" fill="#4C5C65"/>
<path d="M50.95 45.5056H49.3852V44.6975H48.1262V45.7378H46.1574V44.6975H44.8984V48.9098H49.3852V48.1263H50.95V49.2402H52.2089V44.6953H50.95V45.5034V45.5056ZM48.1262 48.0615H46.1574V46.5838H48.1262V48.0615ZM50.95 47.2803H49.3852V46.3539H50.95V47.2803Z" fill="#4C5C65"/>
<path d="M35.7522 51.3382H41.1386V53.9723H42.3975V50.4922H35.75V51.3382H35.7522Z" fill="#4C5C65"/>
<path d="M42.3975 47.691H37.0112V46.9767H42.2234V46.1931H37.0112V45.4788H42.3975V44.6953H35.75V48.4745H42.3975V47.691Z" fill="#4C5C65"/>
<path d="M61.9933 44.6953H60.7344V53.9145H61.9933V48.412H63.2925V47.566H61.9933V44.6975V44.6953Z" fill="#4C5C65"/>
<path d="M57.3863 46.3661V45.7545H59.3484V44.9062H54.1161V45.7545H56.0782V46.3661C56.076 48.2211 55.346 49.4868 53.9688 50.0069V51.007C53.9866 51.0025 55.9175 50.5985 56.6519 49.1364L56.7322 48.9756L56.8126 49.1364C57.547 50.5962 59.4756 51.0025 59.4957 51.007V50.0069C58.1184 49.4868 57.3907 48.2211 57.3863 46.3661Z" fill="#4C5C65"/>
<path d="M70.9453 53.9145H72.2043V44.6953H70.9453V53.9145Z" fill="#4C5C65"/>
<path d="M67.6106 46.3907V46.1273H69.7044V45.2791H67.5905V44.5156H66.2802V45.2791H64.1663V46.1273H66.2601V46.3907C66.2601 48.5828 65.3583 49.5873 63.9453 50.123V51.1521H63.9498C63.9699 51.1476 66.0414 50.7123 66.8517 49.2324L66.932 49.0716L67.0124 49.2324C67.8249 50.7123 69.8964 51.1476 69.9143 51.1521H69.9187V50.123C68.5057 49.5873 67.6039 48.5828 67.6039 46.3907H67.6106Z" fill="#4C5C65"/>
<path d="M34.5234 49.9007H43.6219V49.0547H34.5234V49.9007Z" fill="#4C5C65"/>
<path d="M80.6406 44.6953V53.9145H81.8996V44.6953H80.6406Z" fill="#4C5C65"/>
<path d="M77.3115 46.3918V44.6953H75.9632V46.3918C75.9632 48.5839 75.0614 49.5884 73.6484 50.1241V51.1532H73.6551C73.6752 51.1487 75.7467 50.7134 76.557 49.2335L76.6374 49.0727L76.7177 49.2335C77.528 50.7134 79.5995 51.1487 79.6196 51.1532H79.6241V50.1241C78.2111 49.5884 77.3093 48.5839 77.3093 46.3918H77.3115Z" fill="#4C5C65"/>
<defs>
<linearGradient id="paint0_linear_173_2337" x1="59.7051" y1="12.8456" x2="52.1505" y2="30.9895" gradientUnits="userSpaceOnUse">
<stop stop-color="#44C8F5"/>
<stop offset="0.15" stop-color="#2BB9EE"/>
<stop offset="0.39" stop-color="#0BA7E6"/>
<stop offset="0.52" stop-color="#00A1E4"/>
<stop offset="1" stop-color="#0066B3"/>
</linearGradient>
<linearGradient id="paint1_linear_173_2337" x1="60.2089" y1="13.0587" x2="52.6563" y2="31.2025" gradientUnits="userSpaceOnUse">
<stop stop-color="#44C8F5"/>
<stop offset="0.15" stop-color="#2BB9EE"/>
<stop offset="0.39" stop-color="#0BA7E6"/>
<stop offset="0.52" stop-color="#00A1E4"/>
<stop offset="1" stop-color="#0066B3"/>
</linearGradient>
<linearGradient id="paint2_linear_173_2337" x1="34.8955" y1="14.476" x2="43.8511" y2="31.019" gradientUnits="userSpaceOnUse">
<stop stop-color="#44C8F5"/>
<stop offset="0.15" stop-color="#2BB9EE"/>
<stop offset="0.39" stop-color="#0BA7E6"/>
<stop offset="0.52" stop-color="#00A1E4"/>
<stop offset="1" stop-color="#0066B3"/>
</linearGradient>
<linearGradient id="paint3_linear_173_2337" x1="35.0741" y1="14.3809" x2="44.0277" y2="30.9239" gradientUnits="userSpaceOnUse">
<stop stop-color="#44C8F5"/>
<stop offset="0.15" stop-color="#2BB9EE"/>
<stop offset="0.39" stop-color="#0BA7E6"/>
<stop offset="0.52" stop-color="#00A1E4"/>
<stop offset="1" stop-color="#0066B3"/>
</linearGradient>
<linearGradient id="paint4_linear_173_2337" x1="19.941" y1="25.1317" x2="38.2345" y2="36.209" gradientUnits="userSpaceOnUse">
<stop stop-color="#44C8F5"/>
<stop offset="0.15" stop-color="#2BB9EE"/>
<stop offset="0.39" stop-color="#0BA7E6"/>
<stop offset="0.52" stop-color="#00A1E4"/>
<stop offset="1" stop-color="#0066B3"/>
</linearGradient>
<linearGradient id="paint5_linear_173_2337" x1="19.7193" y1="25.5079" x2="38.0128" y2="36.581" gradientUnits="userSpaceOnUse">
<stop stop-color="#44C8F5"/>
<stop offset="0.15" stop-color="#2BB9EE"/>
<stop offset="0.39" stop-color="#0BA7E6"/>
<stop offset="0.52" stop-color="#00A1E4"/>
<stop offset="1" stop-color="#0066B3"/>
</linearGradient>
<linearGradient id="paint6_linear_173_2337" x1="67.7601" y1="23.1391" x2="53.9958" y2="33.3595" gradientUnits="userSpaceOnUse">
<stop stop-color="#44C8F5"/>
<stop offset="0.15" stop-color="#2BB9EE"/>
<stop offset="0.39" stop-color="#0BA7E6"/>
<stop offset="0.52" stop-color="#00A1E4"/>
<stop offset="1" stop-color="#0066B3"/>
</linearGradient>
<linearGradient id="paint7_linear_173_2337" x1="0.89465" y1="34.054" x2="24.5444" y2="39.6585" gradientUnits="userSpaceOnUse">
<stop stop-color="#44C8F5"/>
<stop offset="0.15" stop-color="#2BB9EE"/>
<stop offset="0.39" stop-color="#0BA7E6"/>
<stop offset="0.52" stop-color="#00A1E4"/>
<stop offset="1" stop-color="#0066B3"/>
</linearGradient>
<linearGradient id="paint8_linear_173_2337" x1="0.870729" y1="34.168" x2="24.5205" y2="39.7704" gradientUnits="userSpaceOnUse">
<stop stop-color="#44C8F5"/>
<stop offset="0.15" stop-color="#2BB9EE"/>
<stop offset="0.39" stop-color="#0BA7E6"/>
<stop offset="0.52" stop-color="#00A1E4"/>
<stop offset="1" stop-color="#0066B3"/>
</linearGradient>
<linearGradient id="paint9_linear_173_2337" x1="13.658" y1="28.7896" x2="34.289" y2="37.6041" gradientUnits="userSpaceOnUse">
<stop stop-color="#44C8F5"/>
<stop offset="0.15" stop-color="#2BB9EE"/>
<stop offset="0.39" stop-color="#0BA7E6"/>
<stop offset="0.52" stop-color="#00A1E4"/>
<stop offset="1" stop-color="#0066B3"/>
</linearGradient>
<linearGradient id="paint10_linear_173_2337" x1="13.6981" y1="28.6995" x2="34.3249" y2="37.514" gradientUnits="userSpaceOnUse">
<stop stop-color="#44C8F5"/>
<stop offset="0.15" stop-color="#2BB9EE"/>
<stop offset="0.39" stop-color="#0BA7E6"/>
<stop offset="0.52" stop-color="#00A1E4"/>
<stop offset="1" stop-color="#0066B3"/>
</linearGradient>
<linearGradient id="paint11_linear_173_2337" x1="7.92792" y1="31.5389" x2="30.1636" y2="39.291" gradientUnits="userSpaceOnUse">
<stop stop-color="#44C8F5"/>
<stop offset="0.15" stop-color="#2BB9EE"/>
<stop offset="0.39" stop-color="#0BA7E6"/>
<stop offset="0.52" stop-color="#00A1E4"/>
<stop offset="1" stop-color="#0066B3"/>
</linearGradient>
<linearGradient id="paint12_linear_173_2337" x1="8.0443" y1="31.1917" x2="30.28" y2="38.9438" gradientUnits="userSpaceOnUse">
<stop stop-color="#44C8F5"/>
<stop offset="0.15" stop-color="#2BB9EE"/>
<stop offset="0.39" stop-color="#0BA7E6"/>
<stop offset="0.52" stop-color="#00A1E4"/>
<stop offset="1" stop-color="#0066B3"/>
</linearGradient>
<linearGradient id="paint13_linear_173_2337" x1="76.53" y1="35.192" x2="58.5345" y2="38.629" gradientUnits="userSpaceOnUse">
<stop stop-color="#44C8F5"/>
<stop offset="0.15" stop-color="#2BB9EE"/>
<stop offset="0.39" stop-color="#0BA7E6"/>
<stop offset="0.52" stop-color="#00A1E4"/>
<stop offset="1" stop-color="#0066B3"/>
</linearGradient>
<linearGradient id="paint14_linear_173_2337" x1="71.9109" y1="30.9469" x2="56.3387" y2="35.8322" gradientUnits="userSpaceOnUse">
<stop stop-color="#44C8F5"/>
<stop offset="0.15" stop-color="#2BB9EE"/>
<stop offset="0.39" stop-color="#0BA7E6"/>
<stop offset="0.52" stop-color="#00A1E4"/>
<stop offset="1" stop-color="#0066B3"/>
</linearGradient>
<linearGradient id="paint15_linear_173_2337" x1="78.9818" y1="39.1493" x2="61.7766" y2="39.6003" gradientUnits="userSpaceOnUse">
<stop stop-color="#44C8F5"/>
<stop offset="0.15" stop-color="#2BB9EE"/>
<stop offset="0.39" stop-color="#0BA7E6"/>
<stop offset="0.52" stop-color="#00A1E4"/>
<stop offset="1" stop-color="#0066B3"/>
</linearGradient>
<linearGradient id="paint16_linear_173_2337" x1="26.3462" y1="21.3732" x2="40.1993" y2="33.5034" gradientUnits="userSpaceOnUse">
<stop stop-color="#44C8F5"/>
<stop offset="0.15" stop-color="#2BB9EE"/>
<stop offset="0.39" stop-color="#0BA7E6"/>
<stop offset="0.52" stop-color="#00A1E4"/>
<stop offset="1" stop-color="#0066B3"/>
</linearGradient>
<linearGradient id="paint17_linear_173_2337" x1="47.3418" y1="-0.0656239" x2="48.405" y2="30.7713" gradientUnits="userSpaceOnUse">
<stop stop-color="#44C8F5"/>
<stop offset="0.15" stop-color="#2BB9EE"/>
<stop offset="0.39" stop-color="#0BA7E6"/>
<stop offset="0.52" stop-color="#00A1E4"/>
<stop offset="1" stop-color="#0066B3"/>
</linearGradient>
</defs>
</svg>
