<svg width="50" height="50" viewBox="0 0 50 50" fill="none" xmlns="http://www.w3.org/2000/svg">
<rect width="50" height="50" fill="white"/>
<path d="M37.0856 24.1299C35.8135 21.6608 34.9886 19.4806 34.5165 18.0703C34.2859 19.3584 33.7166 22.3069 32.875 25.2623C33.568 26.4684 34.2498 27.4244 34.8442 28.2636C35.658 27.0409 36.4912 25.6041 37.0856 24.1299Z" fill="url(#paint0_linear_236_2436)"/>
<path d="M34.2862 29.0616C33.6863 28.2154 33.11 27.3081 32.5434 26.3438C32.1226 27.6985 31.6463 29.0102 31.1172 30.1176C31.3685 30.4872 31.7546 31.0152 32.2837 31.6308C32.5948 31.2723 33.3891 30.3302 34.2849 29.0616H34.2862Z" fill="url(#paint1_linear_236_2436)"/>
<path d="M23.6016 30.0521C24.4181 31.1776 25.3083 32.3406 26.1999 33.3925C26.8942 32.9534 27.5025 32.5171 28.0371 32.0961C27.5775 31.0623 26.947 29.5047 26.3137 27.8984C25.711 28.4264 24.8 29.1809 23.6016 30.0521Z" fill="url(#paint2_linear_236_2436)"/>
<path d="M25.9533 27.0023C25.1868 25.0417 24.466 23.1423 24.0966 22.1641C22.9273 23.3729 21.7316 24.4887 20.5234 25.5155C21.0692 26.3867 21.9885 27.7984 23.0842 29.3449C24.3771 28.3862 25.3395 27.5622 25.9533 27.0037V27.0023Z" fill="url(#paint3_linear_236_2436)"/>
<path d="M17.4453 33.8537C18.8368 34.5137 20.3144 35.1557 21.7323 35.667C22.285 35.4447 22.8099 35.2168 23.3057 34.9834C22.0642 34.4331 20.6546 33.6786 19.2631 32.8672C18.6868 33.1965 18.0813 33.5272 17.4467 33.8551L17.4453 33.8537Z" fill="url(#paint4_linear_236_2436)"/>
<path d="M18.4341 32.3688C17.001 31.5059 15.6289 30.6153 14.5291 29.8594C13.7708 30.3221 13.0237 30.7542 12.2891 31.153C13.3084 31.7352 14.8207 32.5633 16.5274 33.4026C17.1954 33.0608 17.8301 32.7134 18.4355 32.3688H18.4341Z" fill="url(#paint5_linear_236_2436)"/>
<path d="M32.7422 32.1412C33.1227 32.5553 33.5629 32.9985 34.0629 33.4529C36.7223 32.3038 39.0525 30.5322 40.3496 29.4414C39.59 28.4021 38.9109 27.3586 38.3054 26.3359C36.1293 29.1191 33.3352 31.6216 32.7436 32.1398L32.7422 32.1412Z" fill="url(#paint6_linear_236_2436)"/>
<path d="M3.94606 34.8047C3.21143 35.052 2.5865 35.2424 2.0949 35.3827C2.0949 35.3827 2.02129 35.3994 2.00741 35.43C1.9963 35.4522 1.98519 35.4994 2.07407 35.5369C3.83774 36.1136 5.71251 36.5985 7.44563 36.9862C8.12471 36.793 8.78852 36.5888 9.43427 36.3762C7.46646 35.8718 5.53198 35.316 3.94606 34.8047Z" fill="url(#paint7_linear_236_2436)"/>
<path d="M10.7258 36.6953C10.1189 36.901 9.4968 37.0969 8.85938 37.2845C10.512 37.6207 11.9521 37.8555 12.9228 37.9834C13.6435 37.8722 14.3379 37.7499 15.0072 37.6165C13.6935 37.3789 12.2201 37.0594 10.7258 36.6967V36.6953Z" fill="url(#paint8_linear_236_2436)"/>
<path d="M15.4355 33.9549C13.7121 33.1865 12.0984 32.3945 11.0083 31.8359C10.3333 32.1791 9.6751 32.4973 9.03906 32.7877C10.4292 33.4061 12.0776 34.0883 13.7538 34.7275C14.3315 34.4746 14.8925 34.2161 15.4341 33.9549H15.4355Z" fill="url(#paint9_linear_236_2436)"/>
<path d="M14.7969 35.1184C16.3384 35.6853 17.8618 36.1952 19.1866 36.5676C19.7477 36.3925 20.2823 36.2091 20.7961 36.0215C19.4977 35.6436 17.934 35.0364 16.3953 34.375C15.8801 34.6265 15.3468 34.8752 14.7969 35.1184Z" fill="url(#paint10_linear_236_2436)"/>
<path d="M12.6469 35.1935C10.6832 34.5404 8.83345 33.8818 7.59333 33.4219C6.87119 33.7276 6.18933 33.9985 5.55469 34.2347C6.87675 34.6933 8.78346 35.3213 10.7999 35.9049C11.4331 35.6756 12.0483 35.4366 12.6469 35.1921V35.1935Z" fill="url(#paint11_linear_236_2436)"/>
<path d="M12.0156 36.2439C13.5946 36.6746 15.1791 37.0539 16.5484 37.2832C17.1053 37.1512 17.6427 37.0123 18.1607 36.8664C16.8317 36.5162 15.2944 36.0493 13.7682 35.5547C13.2016 35.7909 12.6169 36.0202 12.017 36.2425L12.0156 36.2439Z" fill="url(#paint12_linear_236_2436)"/>
<path d="M38.1963 36.4024C39.7517 36.2829 42.6208 35.9453 45.5302 34.9977C44.983 34.5405 44.4567 34.0695 43.9526 33.5859C42.4903 34.1376 39.7392 35.1394 36.7188 35.5145C37.1826 35.8188 37.6728 36.1162 38.1963 36.4024Z" fill="url(#paint13_linear_236_2436)"/>
<path d="M36.0724 35.0658C37.3431 34.8115 40.2108 34.0459 43.0507 32.6744C42.4494 32.0464 41.8828 31.4031 41.3537 30.75C39.9761 31.5906 37.232 33.1524 34.6406 33.9569C35.0767 34.3252 35.5544 34.6975 36.071 35.0658H36.0724Z" fill="url(#paint14_linear_236_2436)"/>
<path d="M47.555 36.5464C47.1176 36.2407 46.6926 35.9267 46.2774 35.6016C45.44 35.8808 42.6931 36.7062 39.0547 36.8521C39.5852 37.1133 40.1434 37.3607 40.7295 37.5913C42.2918 37.665 44.6748 37.5538 47.5536 36.709C47.6064 36.6895 47.6217 36.6673 47.6231 36.6381C47.6259 36.5881 47.5536 36.5436 47.5536 36.5436L47.555 36.5464Z" fill="url(#paint15_linear_236_2436)"/>
<path d="M18.905 26.8373C17.926 27.6002 16.9414 28.3074 15.9609 28.9549C17.6566 30.4055 21.1478 33.1595 23.9141 34.6852C24.5293 34.3795 25.0987 34.0668 25.6236 33.7542C23.91 32.1896 20.316 28.3546 18.9036 26.8359L18.905 26.8373Z" fill="url(#paint16_linear_236_2436)"/>
<path d="M26.0483 20.0375C26.8412 23.7391 28.055 29.5653 28.498 31.7273C29.4784 30.9061 30.1603 30.1641 30.6047 29.6139C32.035 21.7174 31.6504 13.6459 31.6504 13.6459C31.649 13.5778 31.6434 13.0762 31.4893 13.0164C31.2893 12.9386 31.1657 13.1623 31.1657 13.1623C31.1657 13.1623 28.1397 17.756 26.0469 20.0389L26.0483 20.0375Z" fill="url(#paint17_linear_236_2436)"/>
<defs>
<linearGradient id="paint0_linear_236_2436" x1="36.4826" y1="20.7461" x2="31.7783" y2="32.0382" gradientUnits="userSpaceOnUse">
<stop stop-color="#44C8F5"/>
<stop offset="0.15" stop-color="#2BB9EE"/>
<stop offset="0.39" stop-color="#0BA7E6"/>
<stop offset="0.52" stop-color="#00A1E4"/>
<stop offset="1" stop-color="#0066B3"/>
</linearGradient>
<linearGradient id="paint1_linear_236_2436" x1="36.788" y1="20.8754" x2="32.085" y2="32.1674" gradientUnits="userSpaceOnUse">
<stop stop-color="#44C8F5"/>
<stop offset="0.15" stop-color="#2BB9EE"/>
<stop offset="0.39" stop-color="#0BA7E6"/>
<stop offset="0.52" stop-color="#00A1E4"/>
<stop offset="1" stop-color="#0066B3"/>
</linearGradient>
<linearGradient id="paint2_linear_236_2436" x1="21.048" y1="21.7561" x2="26.6243" y2="32.051" gradientUnits="userSpaceOnUse">
<stop stop-color="#44C8F5"/>
<stop offset="0.15" stop-color="#2BB9EE"/>
<stop offset="0.39" stop-color="#0BA7E6"/>
<stop offset="0.52" stop-color="#00A1E4"/>
<stop offset="1" stop-color="#0066B3"/>
</linearGradient>
<linearGradient id="paint3_linear_236_2436" x1="21.1528" y1="21.7058" x2="26.7277" y2="32.0006" gradientUnits="userSpaceOnUse">
<stop stop-color="#44C8F5"/>
<stop offset="0.15" stop-color="#2BB9EE"/>
<stop offset="0.39" stop-color="#0BA7E6"/>
<stop offset="0.52" stop-color="#00A1E4"/>
<stop offset="1" stop-color="#0066B3"/>
</linearGradient>
<linearGradient id="paint4_linear_236_2436" x1="11.7512" y1="28.3974" x2="23.1353" y2="35.2871" gradientUnits="userSpaceOnUse">
<stop stop-color="#44C8F5"/>
<stop offset="0.15" stop-color="#2BB9EE"/>
<stop offset="0.39" stop-color="#0BA7E6"/>
<stop offset="0.52" stop-color="#00A1E4"/>
<stop offset="1" stop-color="#0066B3"/>
</linearGradient>
<linearGradient id="paint5_linear_236_2436" x1="11.609" y1="28.6193" x2="22.9931" y2="35.5065" gradientUnits="userSpaceOnUse">
<stop stop-color="#44C8F5"/>
<stop offset="0.15" stop-color="#2BB9EE"/>
<stop offset="0.39" stop-color="#0BA7E6"/>
<stop offset="0.52" stop-color="#00A1E4"/>
<stop offset="1" stop-color="#0066B3"/>
</linearGradient>
<linearGradient id="paint6_linear_236_2436" x1="41.4971" y1="27.1617" x2="32.9307" y2="33.5191" gradientUnits="userSpaceOnUse">
<stop stop-color="#44C8F5"/>
<stop offset="0.15" stop-color="#2BB9EE"/>
<stop offset="0.39" stop-color="#0BA7E6"/>
<stop offset="0.52" stop-color="#00A1E4"/>
<stop offset="1" stop-color="#0066B3"/>
</linearGradient>
<linearGradient id="paint7_linear_236_2436" x1="-0.10689" y1="33.9435" x2="14.6071" y2="37.4285" gradientUnits="userSpaceOnUse">
<stop stop-color="#44C8F5"/>
<stop offset="0.15" stop-color="#2BB9EE"/>
<stop offset="0.39" stop-color="#0BA7E6"/>
<stop offset="0.52" stop-color="#00A1E4"/>
<stop offset="1" stop-color="#0066B3"/>
</linearGradient>
<linearGradient id="paint8_linear_236_2436" x1="-0.125219" y1="34.0134" x2="14.5888" y2="37.4971" gradientUnits="userSpaceOnUse">
<stop stop-color="#44C8F5"/>
<stop offset="0.15" stop-color="#2BB9EE"/>
<stop offset="0.39" stop-color="#0BA7E6"/>
<stop offset="0.52" stop-color="#00A1E4"/>
<stop offset="1" stop-color="#0066B3"/>
</linearGradient>
<linearGradient id="paint9_linear_236_2436" x1="7.8299" y1="30.6789" x2="20.6671" y2="36.1606" gradientUnits="userSpaceOnUse">
<stop stop-color="#44C8F5"/>
<stop offset="0.15" stop-color="#2BB9EE"/>
<stop offset="0.39" stop-color="#0BA7E6"/>
<stop offset="0.52" stop-color="#00A1E4"/>
<stop offset="1" stop-color="#0066B3"/>
</linearGradient>
<linearGradient id="paint10_linear_236_2436" x1="7.85314" y1="30.6185" x2="20.6878" y2="36.1002" gradientUnits="userSpaceOnUse">
<stop stop-color="#44C8F5"/>
<stop offset="0.15" stop-color="#2BB9EE"/>
<stop offset="0.39" stop-color="#0BA7E6"/>
<stop offset="0.52" stop-color="#00A1E4"/>
<stop offset="1" stop-color="#0066B3"/>
</linearGradient>
<linearGradient id="paint11_linear_236_2436" x1="4.27045" y1="32.3811" x2="18.1055" y2="37.2018" gradientUnits="userSpaceOnUse">
<stop stop-color="#44C8F5"/>
<stop offset="0.15" stop-color="#2BB9EE"/>
<stop offset="0.39" stop-color="#0BA7E6"/>
<stop offset="0.52" stop-color="#00A1E4"/>
<stop offset="1" stop-color="#0066B3"/>
</linearGradient>
<linearGradient id="paint12_linear_236_2436" x1="4.34924" y1="32.1629" x2="18.1843" y2="36.9836" gradientUnits="userSpaceOnUse">
<stop stop-color="#44C8F5"/>
<stop offset="0.15" stop-color="#2BB9EE"/>
<stop offset="0.39" stop-color="#0BA7E6"/>
<stop offset="0.52" stop-color="#00A1E4"/>
<stop offset="1" stop-color="#0066B3"/>
</linearGradient>
<linearGradient id="paint13_linear_236_2436" x1="46.9441" y1="34.6586" x2="35.7483" y2="36.7957" gradientUnits="userSpaceOnUse">
<stop stop-color="#44C8F5"/>
<stop offset="0.15" stop-color="#2BB9EE"/>
<stop offset="0.39" stop-color="#0BA7E6"/>
<stop offset="0.52" stop-color="#00A1E4"/>
<stop offset="1" stop-color="#0066B3"/>
</linearGradient>
<linearGradient id="paint14_linear_236_2436" x1="44.0726" y1="32.0105" x2="34.3838" y2="35.0484" gradientUnits="userSpaceOnUse">
<stop stop-color="#44C8F5"/>
<stop offset="0.15" stop-color="#2BB9EE"/>
<stop offset="0.39" stop-color="#0BA7E6"/>
<stop offset="0.52" stop-color="#00A1E4"/>
<stop offset="1" stop-color="#0066B3"/>
</linearGradient>
<linearGradient id="paint15_linear_236_2436" x1="48.4725" y1="37.1242" x2="37.7686" y2="37.4046" gradientUnits="userSpaceOnUse">
<stop stop-color="#44C8F5"/>
<stop offset="0.15" stop-color="#2BB9EE"/>
<stop offset="0.39" stop-color="#0BA7E6"/>
<stop offset="0.52" stop-color="#00A1E4"/>
<stop offset="1" stop-color="#0066B3"/>
</linearGradient>
<linearGradient id="paint16_linear_236_2436" x1="15.734" y1="26.0568" x2="24.3564" y2="33.6027" gradientUnits="userSpaceOnUse">
<stop stop-color="#44C8F5"/>
<stop offset="0.15" stop-color="#2BB9EE"/>
<stop offset="0.39" stop-color="#0BA7E6"/>
<stop offset="0.52" stop-color="#00A1E4"/>
<stop offset="1" stop-color="#0066B3"/>
</linearGradient>
<linearGradient id="paint17_linear_236_2436" x1="28.7966" y1="12.7111" x2="29.4588" y2="31.906" gradientUnits="userSpaceOnUse">
<stop stop-color="#44C8F5"/>
<stop offset="0.15" stop-color="#2BB9EE"/>
<stop offset="0.39" stop-color="#0BA7E6"/>
<stop offset="0.52" stop-color="#00A1E4"/>
<stop offset="1" stop-color="#0066B3"/>
</linearGradient>
</defs>
</svg>
